<svg id="Layer_1" data-name="Layer 1" xmlns="http://www.w3.org/2000/svg" viewBox="0 0 2598.48 1782.58"><defs><style>.cls-1{fill:#fff;}</style></defs><title>new_media_white_tim1</title><path class="cls-1" d="M2286.34,204V1426.56H247.87V204H2286.34m280-280H-32.13V1706.56H2566.34V-76h0Z" transform="translate(32.13 76.01)"/><g id="MAIN"><path class="cls-1" d="M1591.14,1047.73q-10.14-5.32-24.53-5.33-26.67,0-41.6,17.33t-17.6,44.53h110.39Q1617.81,1062.13,1591.14,1047.73Z" transform="translate(32.13 76.01)"/><path class="cls-1" d="M1561.81,784.87q0,14.4,11.73,24.8t37.6,10.4q25.86,0,42.66-17.33t17.87-43.46q-31.47-8.52-58.66-8.53Q1561.81,750.74,1561.81,784.87Z" transform="translate(32.13 76.01)"/><path class="cls-1" d="M1204,712.35q-1.08-27.72-18.67-45.33-16-16-42.66-16t-44.53,21.6q-17.87,21.6-17.87,57.86t18.13,58.39Q1116.52,811,1144.26,811q22.92,0,41.06-18.13Q1204,774.21,1204,745.94v-33.6Z" transform="translate(32.13 76.01)"/><path class="cls-1" d="M699.76,1046.66q-28.54,0-46.66,20.53T635,1128.79q0,41.07,16.26,61.59t44.53,20.53q28.26,0,46.4-20.53t18.13-61.59q0-41.06-16-61.59T699.76,1046.66Z" transform="translate(32.13 76.01)"/><path class="cls-1" d="M1785.26,1182.65q0,14.4,11.73,24.8t37.6,10.4q25.86,0,42.66-17.33t17.87-43.46q-31.47-8.52-58.66-8.53Q1785.26,1148.52,1785.26,1182.65Z" transform="translate(32.13 76.01)"/><path class="cls-1" d="M170.07,148V1499.31h2150V148h-2150Zm847.14,285.07q-4-3.19-12.48-5.84l-28.14-10.09q-31.33-10.88-31.33-35.58,0-16.46,14.73-26.42t39.56-10q24.82,0,38.23,10.88t13.94,27.35h-29.47a12.94,12.94,0,0,0-6.11-10.09q-5.58-3.71-15.93-3.72t-16.06,4.11q-5.71,4.12-5.71,9.42,0,9.3,15.66,13.81l30.53,11.42q15.13,5,23.23,12.88t8.1,20.31q0,15.93-15.13,27.61-15.67,12.21-41.42,12.21T958,470.09q-15.67-11.28-15.93-31.73h29.2q0.53,18.32,26.81,18.32,10.09,0,16.59-4.38t6.5-10.22Q1021.19,436.24,1017.21,433.05ZM870.67,293.54q5-4.91,14.34-4.91,9,0,14.2,4.91t5.18,13.41q0,8.5-5.18,13.41T885,325.26q-9.3,0-14.34-4.91t-5-13.41Q865.62,298.45,870.67,293.54Zm30,54.82V477.65H869.34V348.36h31.33ZM723.06,433.05q-4-3.19-12.48-5.84l-28.14-10.09q-31.33-10.88-31.33-35.58,0-16.46,14.73-26.42t39.56-10q24.82,0,38.23,10.88t13.94,27.35H728.1A12.94,12.94,0,0,0,722,373.32q-5.58-3.71-15.93-3.72T690,373.72q-5.71,4.12-5.71,9.42,0,9.3,15.66,13.81l30.53,11.42q15.13,5,23.23,12.88t8.1,20.31q0,15.93-15.13,27.61Q731,481.37,705.27,481.37t-41.42-11.28q-15.67-11.28-15.93-31.73h29.2q0.53,18.32,26.81,18.32,10.09,0,16.59-4.38t6.5-10.22Q727,436.24,723.06,433.05ZM576.52,293.54q5-4.91,14.34-4.91,9,0,14.2,4.91t5.18,13.41q0,8.5-5.18,13.41t-14.2,4.91q-9.3,0-14.34-4.91t-5-13.41Q571.47,298.45,576.52,293.54Zm30,54.82V477.65H575.19V348.36h31.33ZM407.14,295.53h31.33V369.6q13.27-24.42,38.76-24.42t37.57,15.66q12.08,15.67,12.08,41.42v75.4H495.55v-75.4q0-14.34-6.9-21.64t-19.38-7.3q-12.48,0-21.37,11.15t-9.42,33.45v59.73H407.14V295.53Zm-121.06,53.1h18.05v-34h31.33v34h35v21h-35v71.15q0,15.93,15.13,15.93,7.7,0,19.91-4.25l4.51,22q-17.52,6.9-27.61,6.9A58.76,58.76,0,0,1,329.75,479a39.91,39.91,0,0,1-13.41-7.17q-12.21-10.88-12.21-30V369.6H286.08v-21Zm231.58,909.75H454.73V1106.92q0-28.8-13.87-43.46t-38.93-14.67q-25.07,0-42.93,22.4t-18.93,67.19v120H277.14V999.2h54.93L339,1044q25.6-51.72,82.13-51.73,48,0,72.26,31.46t24.26,83.19v151.45Zm17.07-585.49q-16,21.87-17.07,66.13V860.6H454.73V709.15q0-28.8-13.87-43.46T401.93,651q-25.07,0-42.93,22.4t-18.93,67.19v120H277.14V601.43h54.93l6.93,44.8q25.6-51.72,82.13-51.73,32.52,0,54.13,14.93t32.26,41.06q25.06-56,88-56,46.4,0,72,31.46Q692,655.83,692,709.15V860.6H628.58V709.15q0-28.8-13.87-43.46T575.78,651Q550.71,651,534.72,672.89Zm251.7,558.83q-33.07,34.13-88.52,34.13t-89.59-34.13q-36.8-36.8-36.8-102.39,0-66.66,36.8-103.46,33.6-33.6,89.59-33.6a143.69,143.69,0,0,1,49.06,8.27,102.74,102.74,0,0,1,39.46,25.33q36.8,37.33,36.8,103.46Q823.22,1194.39,786.42,1231.71Zm-5.33-401Q745.36,791.82,745.36,731q0-62.39,35.73-100.26Q815.21,594.5,867,594.49q53.86,0,83.73,37.86a118.39,118.39,0,0,1,20,39.46q6.66,22.4,6.67,41.06a240,240,0,0,1-2.13,33.6H807.76q1.06,31.47,15.46,51.19T867,817.41q38.92,0,46.4-34.13h63.46q-6.4,38.93-35.73,61.33-30.4,23.47-74.13,23.46Q815.75,868.07,781.09,830.74Zm338.63,427.64h-62.93v-46.93q-24.53,51.73-78.93,51.73-68.79,0-90.66-53.86-8-18.66-8-45.33V998.67h62.93v158.92q0,25.6,12.27,38.13a40.49,40.49,0,0,0,30.13,12.53q17.86,0,30.13-5.07A58.07,58.07,0,0,0,1036,1188q19.72-22.92,20.8-61.33v-128h62.93v259.71ZM1051.47,830.2q-34.67-39.46-34.66-100.26t33.06-98.66q32.52-36.8,81.06-36.8T1204,633.42V494.77h63.46V860.6h-51.73l-7.47-40q-24,47.47-73.59,47.46T1051.47,830.2Zm278.37,428.17h-70.93L1162.38,999.2h72.53L1294.11,1196l59.73-196.78h72.53Zm28.8-397.77V600.89h62.93V860.6h-62.93Zm60-316q-10.4,9.87-28.53,9.87-18.67,0-28.8-9.87t-10.13-26.93q0-17.06,10.13-26.93t28.8-9.87q18.12,0,28.53,9.87T1429,517.7Q1429,534.77,1418.63,544.63Zm103.72,650.82q14.4,19.74,43.73,19.73,38.92,0,46.4-34.13h63.46q-6.4,38.93-35.73,61.33-30.4,23.47-74.13,23.46-51.2,0-85.86-37.33-35.73-38.92-35.73-99.72,0-62.4,35.73-100.26,34.12-36.26,85.86-36.26,53.86,0,83.73,37.86a118.38,118.38,0,0,1,20,39.46q6.66,22.4,6.67,41.06a240,240,0,0,1-2.13,33.6H1506.88Q1507.95,1175.72,1522.35,1195.45Zm152.52-369.51q-25.07,42.13-76.79,42.13-50.13,0-77.86-24.53-25.6-23.46-25.6-59.46t28.26-55.46q28.26-19.46,77.33-19.46,30.92,0,71.46,10.13v-25.6q0-27.2-10.93-40.26T1625,640.36q-24.8,0-38.13,9.87t-13.33,28h-68.79q0-44.26,31.2-64t87.19-19.73q80,0,103.46,56,8,19.2,8,45.33V860.6h-54.93ZM1958,1258.38h-54.93l-4.8-34.66q-25.07,42.13-76.79,42.13-50.13,0-77.86-24.53-25.6-23.46-25.6-59.46t28.26-55.46q28.26-19.46,77.33-19.47,30.92,0,71.46,10.13v-25.6q0-27.2-10.93-40.26t-35.73-13.07q-24.8,0-38.13,9.87T1797,1076H1728.2q0-44.26,31.2-64t87.19-19.73q80,0,103.46,56,8,19.2,8,45.33v164.79Zm313.57,0h-62.93v-46.93q-24.53,51.73-78.93,51.73-68.79,0-90.66-53.86-8-18.66-8-45.33V998.67H2094v158.92q0,25.6,12.27,38.13a40.49,40.49,0,0,0,30.13,12.53q17.86,0,30.13-5.07a58.07,58.07,0,0,0,21.33-15.2q19.72-22.92,20.8-61.33v-128h62.93v259.71Z" transform="translate(32.13 76.01)"/><path class="cls-1" d="M892,650q-10.14-5.32-24.53-5.33-26.67,0-41.6,17.33t-17.6,44.53H918.68Q918.68,664.36,892,650Z" transform="translate(32.13 76.01)"/></g></svg>