<svg id="Layer_1" data-name="Layer 1" xmlns="http://www.w3.org/2000/svg" viewBox="0 0 2296 4083.82"><defs><style>.cls-1{fill:#fff;}</style></defs><title>new_media_HERO_portrait_tim1</title><path class="cls-1" d="M2118.36,1247V2404.12H189V1247H2118.36M2296,0H0V4083.82H2296V0Z"/><g id="MAIN"><path class="cls-1" d="M1484.36,2045.57q-9.59-5-23.22-5-25.25,0-39.37,16.4t-16.66,42.14h104.48Q1509.58,2059.2,1484.36,2045.57Z"/><path class="cls-1" d="M1456.58,1796.82q0,13.63,11.1,23.47t35.58,9.84q24.47,0,40.38-16.4t16.91-41.14q-29.79-8.07-55.52-8.08Q1456.58,1764.49,1456.58,1796.82Z"/><path class="cls-1" d="M1117.92,1728.15q-1-26.24-17.67-42.9-15.14-15.14-40.38-15.14t-42.14,20.44q-16.92,20.44-16.91,54.76t17.16,55.27q17.15,21,43.41,20.95,21.7,0,38.86-17.16,17.66-17.66,17.67-44.42v-31.8h0Z"/><path class="cls-1" d="M640.69,2044.56q-27,0-44.16,19.43t-17.17,58.3q0,38.87,15.39,58.3T636.89,2200q26.75,0,43.91-19.43t17.16-58.3q0-38.86-15.14-58.3T640.69,2044.56Z"/><path class="cls-1" d="M1668.06,2173.26q0,13.63,11.1,23.47t35.58,9.84q24.47,0,40.38-16.4T1772,2149q-29.79-8.07-55.52-8.08Q1668.06,2141,1668.06,2173.26Z"/><path class="cls-1" d="M139.36,1194V2473H2174.24V1194H139.36Zm801.78,269.82q-3.77-3-11.81-5.53l-26.63-9.55q-29.65-10.3-29.65-33.67,0-15.58,14-25t37.44-9.42q23.49,0,36.18,10.3t13.19,25.87H945.92a12.25,12.25,0,0,0-5.78-9.55q-5.28-3.52-15.08-3.52t-15.2,3.89q-5.41,3.9-5.4,8.92,0,8.8,14.82,13.07l28.9,10.8q14.32,4.78,22,12.19t7.66,19.22q0,15.08-14.32,26.13-14.83,11.56-39.2,11.56t-39.21-10.71q-14.83-10.68-15.08-30h27.64q0.5,17.34,25.38,17.34,9.55,0,15.7-4.15t6.16-9.67A10.32,10.32,0,0,0,941.14,1463.82Zm-138.7-132q4.77-4.65,13.57-4.65,8.54,0,13.44,4.65t4.9,12.69q0,8-4.9,12.69T816,1361.82q-8.8,0-13.57-4.65t-4.77-12.69q0-8.07,4.77-12.72v0.06Zm28.39,51.89V1506H801.19V1383.65h29.65v0.06Zm-168.09,80.11q-3.77-3-11.81-5.53l-26.63-9.55q-29.65-10.3-29.65-33.67,0-15.58,14-25t37.44-9.42q23.49,0,36.18,10.3t13.14,25.87H667.52a12.25,12.25,0,0,0-5.78-9.55q-5.28-3.52-15.08-3.52t-15.2,3.89q-5.41,3.9-5.4,8.92,0,8.8,14.82,13.07l28.9,10.8q14.32,4.78,22,12.19t7.66,19.22q0,15.08-14.32,26.13-14.83,11.56-39.2,11.56t-39.21-10.71q-14.83-10.68-15.08-30h27.64q0.5,17.34,25.38,17.34,9.55,0,15.7-4.15t6.16-9.67A10.32,10.32,0,0,0,662.74,1463.82Zm-138.7-132q4.77-4.65,13.57-4.65,8.54,0,13.44,4.65t4.9,12.69q0,8-4.9,12.69t-13.44,4.62q-8.8,0-13.57-4.65t-4.77-12.69q0-8.07,4.77-12.72v0.06Zm28.39,51.89V1506H522.79V1383.65h29.65v0.06Zm-188.7-50h29.63v70.1q12.56-23.11,36.69-23.12t35.55,14.82q11.43,14.83,11.43,39.2v71.36H447.36v-71.36q0-13.57-6.53-20.48t-18.34-6.91q-11.81,0-20.23,10.55t-8.9,31.61V1506H363.74V1333.71ZM249.16,1383.9h17.09v-32.16H295.9v32.16h33.16v19.85H295.9v67.34q0,15.08,14.32,15.08,7.28,0,18.84-4l4.27,20.86q-16.58,6.53-26.13,6.53a55.62,55.62,0,0,1-16.71-2.26,37.77,37.77,0,0,1-12.69-6.78q-11.56-10.3-11.56-28.39v-68.35H249.16V1383.9Zm219.18,861H408.78V2101.59q0-27.25-13.12-41.13t-36.85-13.88q-23.73,0-40.63,21.2t-17.92,63.6v113.56H240.7v-245.3h52l6.56,42.4q24.23-49,77.73-49,45.43,0,68.39,29.78t23,78.74V2244.9h0Zm16.15-554.08q-15.13,20.68-16.13,62.56v115.08H408.78V1725.12q0-27.26-13.12-41.14t-36.85-13.88q-23.73,0-40.63,21.2t-17.92,63.6v113.56H240.7v-245.3h52l6.56,42.4q24.23-49,77.73-49,30.78,0,51.23,14.13t30.54,38.86q23.72-53,83.28-53,43.91,0,68.14,29.78,23.18,28.32,23.18,78.79v143.34h-60V1725.12q0-27.26-13.12-41.14t-36.88-13.88Q499.62,1670.1,484.49,1690.82Zm238.22,528.9q-31.3,32.31-83.78,32.3t-84.79-32.3q-34.83-34.83-34.83-96.91,0-63.09,34.83-97.92,31.8-31.8,84.79-31.8a136,136,0,0,1,46.43,7.82,97.23,97.23,0,0,1,37.35,24q34.83,35.34,34.83,97.92,0,61.54-34.83,96.87v0Zm-5-379.5q-33.82-36.84-33.82-94.38,0-59.05,33.82-94.89Q750,1616.63,799,1616.63q51,0,79.24,35.84a112,112,0,0,1,18.89,37.35q6.31,21.2,6.31,38.86a227.14,227.14,0,0,1-2,31.8H742.9q1,29.79,14.64,48.45t41.39,18.68q36.84,0,43.91-32.3H902.9q-6.06,36.85-33.82,58-28.77,22.22-70.16,22.21-48.45,0-81.25-35.32ZM1038.21,2245h-59.6v-44.44q-23.22,49-74.7,49-65.11,0-85.8-51-7.57-17.66-7.57-42.9V1999.13H870.1v150.41q0,24.23,11.61,36.09a38.33,38.33,0,0,0,28.52,11.86q16.9,0,28.52-4.8a55,55,0,0,0,20.19-14.38q18.67-21.7,19.68-58V1999.13h59.56v245.8Zm-64.6-405.24q-32.82-37.35-32.81-94.89t31.29-93.37q30.78-34.83,76.72-34.83t69.15,36.85V1522.22H1178v346.24h-49l-7.07-37.85q-22.71,44.93-69.65,44.92t-78.74-35.84ZM1237.07,2245h-67.13l-91.36-245.3h68.64l56,186.24,56.53-186.24h68.61Zm27.26-376.48v-245.8h59.56v245.8h-59.56Zm56.78-299.05q-9.84,9.35-27,9.34-17.67,0-27.25-9.34t-9.59-25.49q0-16.15,9.59-25.49t27.25-9.34q17.15,0,27,9.34t9.84,25.49q0,16.14-9.88,25.47Zm98.16,616q13.63,18.68,41.39,18.67,36.84,0,43.91-32.3h60.06q-6.06,36.85-33.82,58Q1502,2252,1460.65,2252q-48.45,0-81.26-35.33-33.82-36.84-33.82-94.38,0-59.05,33.82-94.89,32.29-34.32,81.26-34.32,51,0,79.24,35.84a112,112,0,0,1,18.93,37.35q6.31,21.2,6.31,38.86a227.12,227.12,0,0,1-2,31.8H1404.6q1,29.77,14.63,48.44Zm144.35-349.72q-23.73,39.88-72.68,39.87-47.45,0-73.69-23.22-24.23-22.2-24.23-56.28t26.75-52.49q26.75-18.42,73.19-18.42,29.27,0,67.63,9.59v-24.23q0-25.74-10.35-38.11T1516.36,1660q-23.47,0-36.09,9.34t-12.62,26.5h-65.11q0-41.89,29.53-60.57t82.52-18.68q75.71,0,97.92,53,7.57,18.17,7.57,42.9v156h-52Zm268,409.28h-52l-4.54-32.81q-23.73,39.88-72.68,39.87-47.45,0-73.69-23.22-24.23-22.2-24.23-56.28t26.75-52.49q26.75-18.42,73.19-18.42,29.27,0,67.63,9.59V2087q0-25.74-10.35-38.11t-33.82-12.37q-23.47,0-36.09,9.34t-12.62,26.5h-65.11q0-41.89,29.53-60.57t82.52-18.67q75.71,0,97.92,53,7.57,18.17,7.57,42.9v156Zm296.78,0h-59.56v-44.47q-23.22,49-74.7,49-65.11,0-85.8-51-7.57-17.66-7.57-42.9V1999.13h59.56v150.41q0,24.23,11.61,36.09a38.33,38.33,0,0,0,28.52,11.86q16.9,0,28.52-4.8a55,55,0,0,0,20.19-14.38q18.67-21.7,19.68-58V1999.13h59.51v245.8Z"/><path class="cls-1" d="M822.65,1669.09q-9.59-5-23.22-5-25.25,0-39.37,16.4t-16.7,42.1H847.89Q847.89,1682.73,822.65,1669.09Z"/></g></svg>