<svg id="Layer_1" data-name="Layer 1" xmlns="http://www.w3.org/2000/svg" viewBox="0 0 2554.33 1681.78"><defs><style>.cls-1{fill:#fff;}</style></defs><title>new_media_white</title><polygon class="cls-1" points="1993.32 1248.23 2077.91 1248.23 2036.2 1129.46 1993.32 1248.23"/><path class="cls-1" d="M1375.78,1072.48h-44v197.58h50.41c48.67,0,80-38.24,80-97.92C1462.11,1111.88,1427.92,1072.48,1375.78,1072.48Z" transform="translate(5.13 27.42)"/><path class="cls-1" d="M24.5,104V1544H2527.56V104H24.5ZM1055.37,647.84v102h-190v50.41h214.38v102H730.9V496h343.59V598H865.33v49.83h190ZM865.11,336.59c0-28.26,23.82-46,60.56-46,22.41,0,45.62,6.66,61.57,16.75l-17,35.53c-14.33-7.87-36.34-16.55-48.65-16.55-5.25,0-8.68,1.61-8.68,5.85,0,17.76,73.28,6.66,73.28,57.93,0,31.49-27.66,45.42-59.55,45.42-24.63,0-52.08-8.28-70.85-22.61l17.36-35.12c14.53,12.11,39.57,22,53.9,22,6.86,0,11.3-2.22,11.3-7.27C938.38,374.14,865.11,386.25,865.11,336.59Zm-65-44h46.83V434.09H800.11V292.58Zm-169.76,44c0-28.26,23.82-46,60.56-46,22.41,0,45.62,6.66,61.57,16.75l-17,35.53c-14.33-7.87-36.34-16.55-48.65-16.55-5.25,0-8.68,1.61-8.68,5.85,0,17.76,73.28,6.66,73.28,57.93,0,31.49-27.66,45.42-59.55,45.42-24.63,0-52.08-8.28-70.85-22.61l17.36-35.12c14.53,12.11,39.57,22,53.9,22,6.86,0,11.3-2.22,11.3-7.27C703.62,374.14,630.34,386.25,630.34,336.59Zm-65-44h46.83V434.09H565.35V292.58ZM551.3,496H673V902.2H560.57L400.65,694.77V902.2H278.39V496H390.8L551.3,704.62V496ZM410.52,292.58h46.83v54.91h43.8V292.58H548V434.09H501.16V383h-43.8v51.07H410.52V292.58Zm-135.65,0H402.25v36.94H361.87V434.09H315V329.53H274.87V292.58ZM739.6,1374.35h-117V1151.86L553,1335H465l-69.53-183.09v222.49h-117V968.19h142L509,1180.25l88.65-212.06h142v406.16Zm406.74,0H797.54V968.19h343.59v102H932V1120h190v102H932v50.41h214.38v102Zm227.12,0H1197.32V968.19h181.35c133.84,0,220.75,79.38,220.75,202.79S1510.78,1374.35,1373.46,1374.35ZM1483,902.2l-56.2-242.77L1368.82,902.2H1230.34L1098.82,496h143.69l61.42,266.53,60.26-265.95,130.95-.58,61.42,266.53L1616.81,496h137.32L1621.44,902.2H1483Zm288.54,472.15H1637.08V968.19H1771.5v406.16Zm354.59,0L2105.81,1317H1953.43l-20.86,57.36h-137.9l171.51-406.16h137.9l165.13,406.16H2126.09Z" transform="translate(5.13 27.42)"/><path class="cls-1" d="M2269.2,252.58V1374.35H274.87V252.58H2269.2m280-280H-5.13V1654.35H2549.2V-27.42h0Z" transform="translate(5.13 27.42)"/></svg>