<svg id="Layer_1" data-name="Layer 1" xmlns="http://www.w3.org/2000/svg" viewBox="0 0 2296 4080.36"><defs><style>.cls-1{fill:#fff;}</style></defs><title>new_media_HERO_portrait</title><polygon class="cls-1" points="1857.65 2099.56 1937.46 2099.56 1898.1 1987.5 1857.65 2099.56"/><path class="cls-1" d="M1279.88,1963.08h-41.54v186.4h47.56c45.92,0,75.43-36.08,75.43-92.38C1361.33,2000.25,1329.08,1963.08,1279.88,1963.08Z" transform="translate(0 -3.46)"/><path class="cls-1" d="M0,3.46V4083.82H2296V3.46H0ZM990.63,1245.16c0-35.84,30.21-58.37,76.8-58.37,28.42,0,57.86,8.45,78.08,21.25L1124,1253.1c-18.18-10-46.08-21-61.7-21-6.66,0-11,2-11,7.42,0,22.53,92.93,8.45,92.93,73.48,0,39.94-35.07,57.6-75.52,57.6-31.23,0-66.05-10.5-89.86-28.67l22-44.55c18.43,15.36,50.18,27.9,68.36,27.9,8.7,0,14.34-2.82,14.34-9.22C1083.56,1292.78,990.63,1308.14,990.63,1245.16Zm-82.43-55.81h59.39v179.46H908.19V1189.35Zm-215.3,55.81c0-35.84,30.21-58.37,76.8-58.37,28.42,0,57.86,8.45,78.08,21.25l-21.5,45.06c-18.18-10-46.08-21-61.7-21-6.66,0-11,2-11,7.42,0,22.53,92.93,8.45,92.93,73.48,0,39.94-35.07,57.6-75.52,57.6-31.23,0-66.05-10.5-89.86-28.67l22-44.55c18.43,15.36,50.18,27.9,68.36,27.9,8.7,0,14.34-2.82,14.34-9.22C785.83,1292.78,692.9,1308.14,692.9,1245.16Zm-21.41,174.08H995.64v96.21H798.31v47H977.6v96.21H798.31v47.56h202.25v96.21H671.49V1419.24Zm-61-229.89h59.39v179.46H610.47V1189.35Zm6.37,229.89v383.19h-106L359.92,1606.74v195.69H244.58V1419.24h106L502,1616V1419.24H616.83ZM414.11,1189.35h59.39V1259h55.55v-69.64h59.39v179.46H529.06V1304H473.51v64.77H414.11V1189.35Zm-172,0H403.62v46.85h-51.2v132.61H293V1236.2H242.08v-46.85ZM679.7,2247.88H569.28V2038l-65.6,172.74H420.59L355,2038v209.91H244.58V1864.69H378.5l83.63,200.07,83.63-200.07H679.7v383.19Zm383.73,0H734.35V1864.69h324.15v96.21H861.17v47h179.29v96.21H861.17v47.56h202.25v96.21Zm214.27,0H1111.52V1864.69h171.1c126.27,0,208.27,74.89,208.27,191.32S1407.25,2247.88,1277.7,2247.88ZM1381,1802.43l-53-229-54.66,229H1142.68l-124.09-383.19h135.56l57.94,251.45,56.85-250.9,123.54-.55,57.94,251.45,56.85-251.45h129.55l-125.18,383.19H1381Zm272.21,445.44H1526.4V1864.69h126.82v383.19Zm334.53,0-19.13-54.12H1824.85l-19.68,54.12h-130.1l161.8-383.19H1967l155.79,383.19h-135Z" transform="translate(0 -3.46)"/></svg>