<svg id="Layer_1" data-name="Layer 1" xmlns="http://www.w3.org/2000/svg" viewBox="0 0 2598.48 1782.58"><defs><style>.cls-1{fill:#fff;}</style></defs><title>new_media_white_tim_hand</title><path class="cls-1" d="M2286.34,204V1426.56H247.87V204H2286.34m280-280H-32.13V1706.56H2566.34V-76h0Z" transform="translate(32.13 76.01)"/><path class="cls-1" d="M1564.65,374.33c2.06,0,3.08-.83,3.05-2.38a5,5,0,0,1,3.8-3.95q3-2.38-.09-4.65c-1.06-1-1.85-1.51-2.35-1.5a39.53,39.53,0,0,0-4.28-1.08,22.1,22.1,0,0,0-4.27-.3c-3.1.06-4.63,1.13-4.59,3.19A8.73,8.73,0,0,0,1558,371,8.08,8.08,0,0,0,1564.65,374.33Z" transform="translate(32.13 76.01)"/><path class="cls-1" d="M1559.83,564.22q3.12,1.5,4.65-.09t-0.08-3.87c-1.06-1-1.58-1.77-1.59-2.29a60.41,60.41,0,0,0-6.15,2.44A16.19,16.19,0,0,0,1559.83,564.22Z" transform="translate(32.13 76.01)"/><path class="cls-1" d="M1392.33,1347.22q0.7-.82-0.19-2.32a4.77,4.77,0,0,0-3.73-2.8c-1.85-.36-3.24,0-4.18,1.13l-2.47,2.93-2.48,2.93a2.24,2.24,0,0,0-.64,1.61l0.06,0.77c0.09,1,.9,1.48,2.44,1.35l0.77-.06a0.69,0.69,0,0,0,.71-0.84,3,3,0,0,0,1.9-.55,1.59,1.59,0,0,1,1.13-.48Q1391.09,1351.21,1392.33,1347.22Z" transform="translate(32.13 76.01)"/><path class="cls-1" d="M1272.44,644.19c-0.52,0-1.28.55-2.29,1.59a5.69,5.69,0,0,0,1.57,1.13,4.34,4.34,0,0,1,1.59,1.91l2.28-2.37C1275.53,643.88,1274.48,643.12,1272.44,644.19Z" transform="translate(32.13 76.01)"/><path class="cls-1" d="M1391.17,1352c-1.54.13-2.23,1.23-2.06,3.28s1,3,2.57,2.89c2.57-.21,3.8-1.09,3.67-2.64C1395.14,1352.95,1393.74,1351.76,1391.17,1352Z" transform="translate(32.13 76.01)"/><path class="cls-1" d="M1533.57,647.62c1.55,0,2.3-1.07,2.26-3.14s-0.83-3.08-2.38-3.05-2.3,1.34-2.25,3.92A2.05,2.05,0,0,0,1533.57,647.62Z" transform="translate(32.13 76.01)"/><path class="cls-1" d="M934,295.85a1.35,1.35,0,0,0,.67-0.56,4.12,4.12,0,0,1-.61-1.15,1.1,1.1,0,0,0-1.22-.11,0.69,0.69,0,0,0-.14,1A1,1,0,0,0,934,295.85Z" transform="translate(32.13 76.01)"/><path class="cls-1" d="M919.08,274.21a1.79,1.79,0,0,0,.32.69c0.37,0.45.7,0.86,1,1.23a5.43,5.43,0,0,0,1,1L922,278.5a8.75,8.75,0,0,0,.61,1.15q0.36,1.18.59,2.12a8.63,8.63,0,0,0,.83,2.09,0.42,0.42,0,0,0,.53.43,1.33,1.33,0,0,0,1.7.06,2,2,0,0,0,.27-2,8.5,8.5,0,0,0-.57-0.79,7.17,7.17,0,0,1-.57-0.79q-0.61-1.14-1.35-2.4t-1.34-2.4a12.31,12.31,0,0,1-.9-1.6,13.61,13.61,0,0,0-.9-1.6q-0.87-1.36-1.59-1.28a0.86,0.86,0,0,0-.39.89,2.41,2.41,0,0,1-.13,1.1A1.92,1.92,0,0,1,919.08,274.21Z" transform="translate(32.13 76.01)"/><path class="cls-1" d="M726.53,318a1.34,1.34,0,0,0,.67-0.56,4.08,4.08,0,0,1-.6-1.15,1.1,1.1,0,0,0-1.22-.11,0.69,0.69,0,0,0-.14,1A1,1,0,0,0,726.53,318Z" transform="translate(32.13 76.01)"/><path class="cls-1" d="M1457.68,1124.91q2.06-3.27.06-8.56l-0.26-3.09a28.72,28.72,0,0,0,1.28-7.88,78,78,0,0,1,.51-7.81,129.59,129.59,0,0,0,1.12-14.47q0.15-7.39.35-14.41c-0.39-4.63-.64-9.14-0.74-13.54s-0.1-8.93,0-13.6l-3.48-41.68a1.57,1.57,0,0,1,.29-1.19,1.59,1.59,0,0,0,.29-1.19q-2.2-7.57-3.57-14.86T1450,967.78q-1.23-5.33-2.8-10.26t-3.64-11a63.2,63.2,0,0,0-3.7-11.74,94,94,0,0,0-6-11.54,53.57,53.57,0,0,0-3.54-5.14,48.33,48.33,0,0,1-3.54-5.15l-4.82-1.93q-6.19.52-9.13,2.32a22.47,22.47,0,0,0-7.36,4.89q-2.87,3-6.46,6.37a86.75,86.75,0,0,0-7.81,8.81q-3.52,4.58-7,9.52c-1.46,1.17-3.1,3.37-4.89,6.63q-3.48,5-7.72,10a80.15,80.15,0,0,0-7.65,10.74c0,0.52-.07.78-0.32,0.8s-0.36.3-.32,0.8a48,48,0,0,0-5.88,8.65q-2.36,4.48-5,9.36a11.8,11.8,0,0,0-1.16,4.76q0.39,4.63-2.18,11.06a19.29,19.29,0,0,0-1.61,8.68,52.19,52.19,0,0,1-.77,14.05q-1.35,7.11-2.31,14.18a11.9,11.9,0,0,1-1.16,4.76,9.5,9.5,0,0,0-1.09,5.53q2,5.28.64,7.72a9.4,9.4,0,0,0,0,4.66,28.56,28.56,0,0,1,.77,4.6,23.73,23.73,0,0,1,1.35,6.88,48,48,0,0,1,.16,6.59,46.28,46.28,0,0,0,.16,6.59,73.39,73.39,0,0,0,.1,10.48l0.87,10.42a3.15,3.15,0,0,0-.58,2.38q-0.45,3.94-1,7.07t-1,7.08l0.13,1.54c0.22,2.58.57,5.39,1.1,8.46s0.88,5.89,1.09,8.46l0.19,2.31a2.71,2.71,0,0,0-.19,2.35,5.49,5.49,0,0,1,.58,2.28l1.68,20.07q-0.26,6.25-.58,11.71a81.76,81.76,0,0,0,.2,11.64,69.71,69.71,0,0,1,.1,10.48,20.22,20.22,0,0,0,1.58,9.58l0.13,1.54a12.23,12.23,0,0,0-.16,7.4q1,3.41,2.16,7.2a61.19,61.19,0,0,1,1.61,19.3l0.32,3.86a24.47,24.47,0,0,1,1.26,5.72,23.7,23.7,0,0,0,1.26,5.72c0.13,1.54,1.22,2.23,3.28,2.06a18,18,0,0,0,3.67-2.64q5.85-4.37,10.19-8.24t10.19-8.24a88.09,88.09,0,0,1,8.81-6.18l8.87-5.4a58,58,0,0,1,10.29-7.08,106.51,106.51,0,0,0,10.35-6.31,6.88,6.88,0,0,1,2.93-2.19,6.81,6.81,0,0,0,2.93-2.19l12.73-15.06c0.94-1.11,1.39-1.93,1.35-2.44a49.44,49.44,0,0,0,3.73-11.19q1.15-4.76,2.35-9.13c0.79-2.91,1.57-6,2.35-9.13q1.09-5.52,2.6-10.71a31.18,31.18,0,0,0,1-11.35l0.71-.84a29.08,29.08,0,0,0,1.35-7.11,18.92,18.92,0,0,1,1.41-6.34q1.22-4,.25-6.24Q1456.52,1129.68,1457.68,1124.91Z" transform="translate(32.13 76.01)"/><path class="cls-1" d="M711.64,296.35a1.82,1.82,0,0,0,.32.69c0.37,0.44.7,0.86,1,1.23a5.35,5.35,0,0,0,1,1l0.63,1.38a8.79,8.79,0,0,0,.61,1.15q0.36,1.18.59,2.12a8.67,8.67,0,0,0,.83,2.09,0.42,0.42,0,0,0,.53.43,1.33,1.33,0,0,0,1.7.06,2,2,0,0,0,.27-2,8.51,8.51,0,0,0-.57-0.79,7.06,7.06,0,0,1-.57-0.79q-0.61-1.14-1.35-2.4t-1.34-2.4a12.44,12.44,0,0,1-.9-1.6,13.55,13.55,0,0,0-.9-1.6c-0.58-.91-1.11-1.33-1.59-1.28a0.86,0.86,0,0,0-.39.89,2.41,2.41,0,0,1-.12,1.1A1.9,1.9,0,0,1,711.64,296.35Z" transform="translate(32.13 76.01)"/><path class="cls-1" d="M1995.89,1278.11l0.06,0.77a2.28,2.28,0,0,1,1.61.64l-0.06-.77C1997.45,1278.25,1996.91,1278,1995.89,1278.11Z" transform="translate(32.13 76.01)"/><path class="cls-1" d="M1913.29,1006l-0.77-9.26c0.42-1.07.5-1.72,0.23-2a3,3,0,0,1-.55-1.9,57.4,57.4,0,0,0,0-9.33l-0.84-10a48.31,48.31,0,0,0-.93-6.53,19.56,19.56,0,0,1-.16-6.59,16.34,16.34,0,0,0,.51-7.82,25.67,25.67,0,0,1-.26-7.75,85.16,85.16,0,0,0-.78-13.92q-1-6.91-1.55-13.86a93,93,0,0,1-1.74-11.51,78,78,0,0,0-1.67-10.74q-2.2-7.58-3.22-10.61-1.81-2.95-2.51-2.12-2.71,4.89-3.34,6.5-3.55,4.19-6.65,8.72a48,48,0,0,0-5,9.36q-1.3,3.22-2.57,6.43c-0.87,2.15-2,4.57-3.28,7.27l0.13,1.54a10.27,10.27,0,0,1-1.8,6.37c-1,1.12-1.39,1.94-1.35,2.44a9.39,9.39,0,0,1-1.57,4.41,10.18,10.18,0,0,0-1.7,2.86,43.1,43.1,0,0,1-1.86,5.6c-0.78,3.17-1.34,5.82-1.67,7.91a29.11,29.11,0,0,0-1.22,8.65,79.47,79.47,0,0,1-.45,8.59,15,15,0,0,0-.9,3.18,15.81,15.81,0,0,1-.9,3.18q-0.45,3.94-1.28,7.88a26.86,26.86,0,0,0-.51,7.82q-0.39,4.7-.77,9.39a62.19,62.19,0,0,1-1.54,9.46,5.39,5.39,0,0,1-.19,2.35,5.3,5.3,0,0,0-.19,2.35,41.58,41.58,0,0,1,.1,5.82,40.11,40.11,0,0,0,.1,5.82,32.58,32.58,0,0,0,.84,10c0.55,0.48.92,1.74,1.09,3.79a3.11,3.11,0,0,1,2,.22,3,3,0,0,0,2,.23,13.79,13.79,0,0,1,4.18-1.13,13.49,13.49,0,0,0,4.18-1.13c1.92-1.72,4.48-2.18,7.65-1.42,0.51,0,.76-0.19.74-0.45s0.22-.41.74-0.45a25.61,25.61,0,0,0,8.88-.74,45.88,45.88,0,0,1,8-1.45,10.94,10.94,0,0,1,4.7.38,6.24,6.24,0,0,1,1.45-1.29,6.06,6.06,0,0,0,1.45-1.29,8.35,8.35,0,0,0,2.67-.61,8.64,8.64,0,0,1,2.67-.61,17.92,17.92,0,0,1,2-4.05,73.15,73.15,0,0,1-1.64-10.36Z" transform="translate(32.13 76.01)"/><rect class="cls-1" x="2014.05" y="1253.21" width="1.55" height="0.77" transform="translate(-64.49 246.64) rotate(-4.74)"/><path class="cls-1" d="M1812.92,883.81a8.68,8.68,0,0,1-.16,2.73c-0.2.79,0.53,1.64,2.15,2.54q3.66-2.64.83-8.62Z" transform="translate(32.13 76.01)"/><path class="cls-1" d="M224,157.66l20.2,1324.25L2325.56,1462V174Zm1571.24,775-1.74-2.19C1795,929.88,1795.58,930.61,1795.25,932.7ZM914.05,252a21.62,21.62,0,0,1,.57-3.69,43.31,43.31,0,0,1,.74-4.43,19.09,19.09,0,0,1,1.48-4.27l1.05-3.74a26.79,26.79,0,0,1,10.69-13.24,13.8,13.8,0,0,1,2.32-1,13.41,13.41,0,0,0,2.32-1,2.41,2.41,0,0,1,1.05-.35,2.39,2.39,0,0,0,1.05-.35,15.9,15.9,0,0,1,8.06-1.59l0.26,0.21a2.13,2.13,0,0,1-.93.34,15.15,15.15,0,0,0-4.71,1.23,1,1,0,0,1-.69.32,1.39,1.39,0,0,0-.38,1c0,0.32.29,0.45,0.77,0.4l2.15-.23a6.58,6.58,0,0,0,1.3-.26,1.78,1.78,0,0,1,1.35.22,1.17,1.17,0,0,0,1.44-.15,3.33,3.33,0,0,1,1.88-.56,1.77,1.77,0,0,0,1.59-1,1.16,1.16,0,0,0-1.26-.47,1.29,1.29,0,0,1-1.24-.23,2.44,2.44,0,0,1,2.56-1l8.2,2a2.87,2.87,0,0,1,1.83,1.26,6.16,6.16,0,0,0,1.34,1.19,16.59,16.59,0,0,0,1.55.92,2.27,2.27,0,0,1,1.83,1.26,3.62,3.62,0,0,0,1.88,1.74,2,2,0,0,1,.85,1.12,1.42,1.42,0,0,1-1.12.85,9.61,9.61,0,0,1-1.47,1q-0.8.45-1.71,1a9.25,9.25,0,0,1-1.84.92,9.43,9.43,0,0,0-1.84.92l-0.91.58a6.54,6.54,0,0,1-2.69,2,6.58,6.58,0,0,0-2.69,2,11.17,11.17,0,0,1-2,1.9,22,22,0,0,0-2.21,1.93,3.53,3.53,0,0,0-1,1.8,5.52,5.52,0,0,1-1.71,2.12,3.64,3.64,0,0,0-1.47,2.09q-1,1.8-1.81,3.46t-1.54,3.67a17.65,17.65,0,0,0-.51,2,4.54,4.54,0,0,0-.08,1.46,7.23,7.23,0,0,1-.06,1.7l0.05,0.48a3.36,3.36,0,0,0-.5,2.11,6.16,6.16,0,0,1-.24,2.32,13.83,13.83,0,0,0,1.41,6.38,2.84,2.84,0,0,0,1.64,1.76,1.14,1.14,0,0,1,1.09,1.09,8.94,8.94,0,0,0,2.47,5.06q0.82,0.88,1.52,1.77c0.46,0.6,1,1.27,1.55,2l0.58,0.91,1.66,2a31.92,31.92,0,0,1,2.52,3.24,8.61,8.61,0,0,0,3,2.71,0.71,0.71,0,0,1,.29.45,8.24,8.24,0,0,0,1.87,2.82l2.3,2.3a6.14,6.14,0,0,0,1.34,1.19,6.32,6.32,0,0,1,1.34,1.19q1.05,0.86,2,1.72t1.76,1.75c0.72,0.73,1.36,1.43,1.92,2.09s1.12,1.37,1.68,2.12q0.55,0.67,1.24,1.44c0.46,0.52.87,1,1.24,1.44q1.35,1.31,2.58,2.63a22.11,22.11,0,0,1,2.39,3.13l1,1.59,1,1.59a1.91,1.91,0,0,1,.32.69,1.81,1.81,0,0,0,.32.69q0.65,1.63,1.19,3.26a11.68,11.68,0,0,0,1.67,3.21,0.7,0.7,0,0,1,.28.33,0.64,0.64,0,0,0,.28.33,24.49,24.49,0,0,0,2.72,5,1,1,0,0,0,.17.47,1.1,1.1,0,0,1,.17.47,15.16,15.16,0,0,0,1,2.67,17.66,17.66,0,0,1,1,2.44,36.64,36.64,0,0,1,1.1,3.51,24.34,24.34,0,0,0,1.08,3.27,0.8,0.8,0,0,1,.09.84,1.47,1.47,0,0,0-.15.86,1.58,1.58,0,0,0,.18,1.67,2.77,2.77,0,0,1,.64,1.5,5,5,0,0,1-.07,1.58,20.32,20.32,0,0,1-.1,3.64,5.62,5.62,0,0,1-.8,1.54,4.3,4.3,0,0,0-1.07,1.32,12,12,0,0,1-3.45,4,3.7,3.7,0,0,1-.88.82,3.78,3.78,0,0,0-.88.82,7.46,7.46,0,0,1-2.41,1.23q-1.29.38-2.7,0.77a15.76,15.76,0,0,0-2.67,1,7,7,0,0,0-2.33,1.94A4.37,4.37,0,0,1,971.9,370a3.7,3.7,0,0,0-1.39.63,7,7,0,0,1-4.82,2.45,6.45,6.45,0,0,0-2.74.41c-0.85.33-1.67,0.62-2.45,0.87l-0.48.05a18.15,18.15,0,0,1-3,.56,18.56,18.56,0,0,0-3,.56,7.82,7.82,0,0,1-2.44-.22,2.49,2.49,0,0,0-2.42,0,2.68,2.68,0,0,0-.82.21,2.6,2.6,0,0,1-.83.21,3.32,3.32,0,0,1-1.46-.09,4.44,4.44,0,0,0-2.42,0,3.39,3.39,0,0,1-4-1,2.6,2.6,0,0,0-2-.51,1.19,1.19,0,0,1-1.44.15,19.34,19.34,0,0,0-2.84-.54c-1.06-.13-2.09-0.3-3.08-0.52q-2-.51-1-2.56a22.06,22.06,0,0,1,1.61-3.08,23.53,23.53,0,0,1,2.26-3.75,16.39,16.39,0,0,1,3.06-3.11,35.58,35.58,0,0,1,3.49-2.43q1.71-1,3.54-2a12.43,12.43,0,0,0,4.83-4.63q0.82-1.3,1.67-2.48a15.31,15.31,0,0,0,1.43-2.45,15.89,15.89,0,0,1,1.26-1.83,6.47,6.47,0,0,0,1-1.8,9.28,9.28,0,0,0,1.33-5.71,41.63,41.63,0,0,0-1.4-8.56,32.39,32.39,0,0,0-2.38-6.4q-1.54-3.1-3.33-6.3c-0.19-.3-0.39-0.64-0.59-1s-0.4-.72-0.59-1a16.56,16.56,0,0,0-2-3.17q-1.11-1.33-2.25-2.91c-0.55-.58-1.05-1.14-1.51-1.65s-1-1.14-1.53-1.89q-1.38-1.54-2.72-2.85t-2.73-2.86q-1.91-2-3.56-3.86a19.61,19.61,0,0,1-2.89-4.41,0.65,0.65,0,0,1-.28-0.33,0.7,0.7,0,0,0-.28-0.33,4.65,4.65,0,0,1-1.25-1.56q-0.46-.92-1-1.82a0.68,0.68,0,0,1-.29-0.45,40.63,40.63,0,0,0-2.64-4.32,15.6,15.6,0,0,1-2.16-4.37q-1-2.31-1.92-4.39a42.8,42.8,0,0,1-1.66-4.18c-0.49-1.56-.93-3.08-1.34-4.58a18.24,18.24,0,0,1-.62-4.65,15.06,15.06,0,0,1-.08-1.93q0-1,.13-2.19a5,5,0,0,0,.07-1.58A7.4,7.4,0,0,1,914.05,252ZM888.7,282.05q0.58,0.91,1,1.71c0.3,0.53.64,1.1,1,1.7q-0.83,1.3-.54,1.75A3,3,0,0,0,892,288a5.41,5.41,0,0,0,.24,1.06,5.64,5.64,0,0,1,.23,1.06,2.19,2.19,0,0,1,.34.93,1.37,1.37,0,0,0,.58.91,0.87,0.87,0,0,1,.13,1.2c0.08,0.8.37,1.17,0.85,1.12a1.39,1.39,0,0,1,.58.91,9,9,0,0,1,.84,2.21c0.16,0.71.36,1.46,0.6,2.24a4.63,4.63,0,0,1,.39,1.41,2.56,2.56,0,0,0,.63,1.38,8,8,0,0,1,1.1,3.51,15.16,15.16,0,0,1,1.23,4.71,0.87,0.87,0,0,1,.2.71,1,1,0,0,0-.07.49,6.59,6.59,0,0,0,.84,3.3,1.61,1.61,0,0,0,.2.7,1.72,1.72,0,0,1,.2.7,4.64,4.64,0,0,1,.39,1.41,4.52,4.52,0,0,0,.39,1.41,28.91,28.91,0,0,1,1,3,19.19,19.19,0,0,1,.57,3.08,3.84,3.84,0,0,0,.66,1.62,4.11,4.11,0,0,1,.76,2.58,1,1,0,0,0,.17.47,1.71,1.71,0,0,1,.2.7l0.63,1.38a2.21,2.21,0,0,1-.06,1.7l0.05,0.48a3.91,3.91,0,0,1,.66,1.62,7.2,7.2,0,0,1-.06,1.7,3.32,3.32,0,0,0,.39,1.41,10.08,10.08,0,0,0,.3,1.66,2,2,0,0,1-.21,1.47l0.08,0.72a0.93,0.93,0,0,0,.18.59,0.5,0.5,0,0,1,.16.35,17.15,17.15,0,0,0-.17,1.83,14.33,14.33,0,0,0,.1,2l0.08,0.72a4,4,0,0,1,.2,1.91l0.18,1.67L908,353.8a5.17,5.17,0,0,0,.33,3.11l0,0.24a27.47,27.47,0,0,0-.39,3.19,29,29,0,0,1-.39,3.19,0.61,0.61,0,0,1-.18.62,1.3,1.3,0,0,0-.41.65,2.29,2.29,0,0,0-.62,1,5.15,5.15,0,0,1-.14,2.07,10.42,10.42,0,0,0-.38,2.1,3.32,3.32,0,0,1-1,2.28,2.41,2.41,0,0,0-1,1.8,1.25,1.25,0,0,0,.37,1.17,3.23,3.23,0,0,1-2.21,1.93,2.13,2.13,0,0,1-.93.34l-0.91.58q-0.86,1.06-1.41.39a1.56,1.56,0,0,0-.64.8,0.47,0.47,0,0,1-.69.32,1.15,1.15,0,0,0-.8.45,1.16,1.16,0,0,1-.8.45,20.21,20.21,0,0,0-3.56.62,14.25,14.25,0,0,1-2.34.73,1.67,1.67,0,0,0-.7.2,1.65,1.65,0,0,1-.7.2l-3.74-1.05a3.66,3.66,0,0,1-1.48-2.5,6.41,6.41,0,0,0-1-2.79,13,13,0,0,1-.78-2.82,31.34,31.34,0,0,1-1.13-3.75q-0.45-1.89-.89-3.78a2.66,2.66,0,0,1-.37-1.17L878.95,363a13.11,13.11,0,0,1-1.48-4.8q-0.27-2.51-.79-5.12a24.09,24.09,0,0,0-.37-2.38,23.36,23.36,0,0,1-.37-2.38l-0.18-1.67-0.31-2.87-0.56-5.26q-0.28-2.63-.32-5.29l-0.38-3.59-0.4-3.71a29.78,29.78,0,0,1-.16-3.73l-0.38-3.59a29,29,0,0,1-.14-3.61q0-2.41-.14-4.7a32.23,32.23,0,0,1,.1-4.73,20.35,20.35,0,0,1,.07-3.88l0.26-4.38q0.08-1.46.05-2.91a22.9,22.9,0,0,1,.08-2.67,8.29,8.29,0,0,1,0-1.45,7.86,7.86,0,0,0,0-1.21l0.1-5.82a2.17,2.17,0,0,0-.34-0.93l-0.58-.91a2.08,2.08,0,0,1-.87-1.36,2,2,0,0,1,.44-0.41,1.9,1.9,0,0,0,.44-0.41,1.35,1.35,0,0,1,.67-0.56l0.24,0q0.83-1.3,1.71-1a4.52,4.52,0,0,0,1.83.17,23.53,23.53,0,0,1,3.72.81,15.06,15.06,0,0,1,4,.79l0.5,0.19A7.91,7.91,0,0,1,888.7,282.05Zm-24.84-37.76a1.57,1.57,0,0,1,1.2-.13,1.64,1.64,0,0,0,1.94,0c0.48-.05.7-0.23,0.67-0.55a1.45,1.45,0,0,1,.74-1,3.18,3.18,0,0,0,1-.83c0.32,0,.47-0.13.45-0.29a2.74,2.74,0,0,0,.67-0.55,1,1,0,0,1,.69-0.32,7.68,7.68,0,0,1,2.2.25,1.63,1.63,0,0,0,.2.71,1.71,1.71,0,0,1,.2.7,2.39,2.39,0,0,0,.51-0.9,2.36,2.36,0,0,1,.51-0.9l2,0.75a4.84,4.84,0,0,1,1.83,1.26l1,0.38,1.51,0.56a1.41,1.41,0,0,1,.34.93,3.22,3.22,0,0,0,1.26,2.77,11.14,11.14,0,0,1,1.84,2.47c0.5,0.92,1,1.83,1.62,2.73a4.46,4.46,0,0,1,.49,1.16,4.19,4.19,0,0,0,.49,1.16,5.35,5.35,0,0,0,.85,1.12,4.06,4.06,0,0,1,.84,3.3,8.81,8.81,0,0,1-.84,3.48,2,2,0,0,1-.23,1.23c-0.2.35-.44,0.77-0.71,1.29a5,5,0,0,0,0,1.94,4.1,4.1,0,0,1-1.25-.35,4.36,4.36,0,0,0-1.23,2.07,1.29,1.29,0,0,1-1.33,1.11,1,1,0,0,1-.74-0.16,3.34,3.34,0,0,0-2-.15q-0.95.23-2.12,0.59a1.62,1.62,0,0,1-1.25-.35,3.92,3.92,0,0,0-1-.62,7.05,7.05,0,0,1-2.6-1.66l-0.79-.64a5.87,5.87,0,0,0-.85-1.12,5.78,5.78,0,0,0-1.11-1.33,0.51,0.51,0,0,0-.16-0.35,0.47,0.47,0,0,1-.16-0.35,0.65,0.65,0,0,0,.15-0.86,6.68,6.68,0,0,1-.57-0.79,1.53,1.53,0,0,1-.18-1.67c0.23-.83-0.13-1.2-1.09-1.09-0.8.09-1-.14-0.56-0.67a3.5,3.5,0,0,1,.65-0.67,1.31,1.31,0,0,0,.42-0.65,0.42,0.42,0,0,0,.43-0.53c-0.05-.48-0.24-0.7-0.55-0.67a4.71,4.71,0,0,1-1.42-.82,2.77,2.77,0,0,1,.21-1.47,2.45,2.45,0,0,1-.64-0.3,3,3,0,0,0-.64-0.29,1,1,0,0,0,.59-0.18,1,1,0,0,1,.59-0.18,0.85,0.85,0,0,0-1.06-.85,20.12,20.12,0,0,1-.84-3.3,3.43,3.43,0,0,0-.68-1.86l-1.11-1.33A1.19,1.19,0,0,1,863.86,244.29ZM706.61,274.14a21.71,21.71,0,0,1,.57-3.69,43.29,43.29,0,0,1,.74-4.43,19.08,19.08,0,0,1,1.48-4.27l1.05-3.74a26.79,26.79,0,0,1,10.69-13.24,13.73,13.73,0,0,1,2.32-1,13.47,13.47,0,0,0,2.32-1,2.42,2.42,0,0,1,1.05-.35,2.4,2.4,0,0,0,1.05-.35,15.9,15.9,0,0,1,8.06-1.59l0.26,0.21a2.12,2.12,0,0,1-.93.34,15.16,15.16,0,0,0-4.71,1.23,1,1,0,0,1-.69.32,1.38,1.38,0,0,0-.38,1c0,0.32.29,0.45,0.77,0.4l2.15-.23a6.64,6.64,0,0,0,1.3-.26,1.78,1.78,0,0,1,1.35.22,1.17,1.17,0,0,0,1.44-.15,3.34,3.34,0,0,1,1.88-.56,1.77,1.77,0,0,0,1.59-1,1.16,1.16,0,0,0-1.26-.47,1.29,1.29,0,0,1-1.24-.23,2.44,2.44,0,0,1,2.56-1l8.2,2a2.88,2.88,0,0,1,1.83,1.26,6.13,6.13,0,0,0,1.34,1.19,16.49,16.49,0,0,0,1.55.92,2.26,2.26,0,0,1,1.83,1.26,3.61,3.61,0,0,0,1.88,1.74,2,2,0,0,1,.85,1.12,1.42,1.42,0,0,1-1.12.85,9.56,9.56,0,0,1-1.47,1c-0.54.3-1.1,0.64-1.71,1a9.23,9.23,0,0,1-1.84.92,9.43,9.43,0,0,0-1.84.92l-0.91.58a6.55,6.55,0,0,1-2.69,2,6.58,6.58,0,0,0-2.69,2,11.2,11.2,0,0,1-2,1.9,22,22,0,0,0-2.21,1.93,3.53,3.53,0,0,0-1,1.8,5.51,5.51,0,0,1-1.71,2.12,3.65,3.65,0,0,0-1.47,2.09q-1,1.81-1.81,3.46t-1.54,3.67a17.47,17.47,0,0,0-.51,2,4.49,4.49,0,0,0-.09,1.46,7.23,7.23,0,0,1-.06,1.7l0.05,0.48a3.36,3.36,0,0,0-.5,2.11,6.18,6.18,0,0,1-.24,2.32,13.82,13.82,0,0,0,1.41,6.38,2.84,2.84,0,0,0,1.64,1.76,1.14,1.14,0,0,1,1.09,1.09,8.94,8.94,0,0,0,2.47,5.06q0.82,0.88,1.52,1.77c0.46,0.6,1,1.27,1.55,2l0.58,0.91,1.67,2a32,32,0,0,1,2.52,3.24,8.61,8.61,0,0,0,3,2.71,0.71,0.71,0,0,1,.29.45,8.25,8.25,0,0,0,1.87,2.83l2.3,2.3a6.15,6.15,0,0,0,1.34,1.19,6.3,6.3,0,0,1,1.34,1.19q1.05,0.86,2,1.72t1.76,1.75q1.08,1.1,1.92,2.09t1.68,2.12q0.55,0.67,1.24,1.44c0.46,0.52.87,1,1.24,1.44q1.35,1.31,2.58,2.63a22.07,22.07,0,0,1,2.39,3.13l1,1.59,1,1.59a1.89,1.89,0,0,1,.32.69,1.83,1.83,0,0,0,.32.69q0.66,1.63,1.2,3.26a11.68,11.68,0,0,0,1.67,3.21,0.7,0.7,0,0,1,.28.33,0.65,0.65,0,0,0,.28.33,24.5,24.5,0,0,0,2.72,5,1,1,0,0,0,.17.47,1.09,1.09,0,0,1,.17.47,15.09,15.09,0,0,0,1,2.67,17.87,17.87,0,0,1,1,2.44q0.68,1.87,1.1,3.51a24.31,24.31,0,0,0,1.07,3.27,0.8,0.8,0,0,1,.09.84,1.48,1.48,0,0,0-.15.86,1.58,1.58,0,0,0,.18,1.67,2.77,2.77,0,0,1,.64,1.5,5,5,0,0,1-.07,1.58,20.34,20.34,0,0,1-.1,3.64,5.64,5.64,0,0,1-.8,1.54,4.28,4.28,0,0,0-1.07,1.32,12,12,0,0,1-3.45,4,3.71,3.71,0,0,1-.88.82,3.79,3.79,0,0,0-.88.82,7.45,7.45,0,0,1-2.41,1.23q-1.29.38-2.7,0.77a15.76,15.76,0,0,0-2.67,1,7,7,0,0,0-2.33,1.94,4.37,4.37,0,0,1-1.76,1.64,3.69,3.69,0,0,0-1.38.63,7,7,0,0,1-4.82,2.45,6.43,6.43,0,0,0-2.74.41c-0.85.33-1.67,0.62-2.45,0.87l-0.48.05a18.09,18.09,0,0,1-3,.56,18.58,18.58,0,0,0-3,.56,7.84,7.84,0,0,1-2.44-.22,2.5,2.5,0,0,0-2.42,0,2.69,2.69,0,0,0-.82.21,2.62,2.62,0,0,1-.83.21,3.33,3.33,0,0,1-1.46-.09,4.43,4.43,0,0,0-2.42,0,3.39,3.39,0,0,1-4-1,2.6,2.6,0,0,0-2-.51,1.19,1.19,0,0,1-1.44.15,19.34,19.34,0,0,0-2.84-.54c-1.06-.13-2.09-0.3-3.08-0.52q-2-.51-1-2.56a21.91,21.91,0,0,1,1.61-3.08A23.55,23.55,0,0,1,725.8,386a16.36,16.36,0,0,1,3.06-3.11,35.51,35.51,0,0,1,3.49-2.43q1.71-1,3.54-2a12.43,12.43,0,0,0,4.83-4.63q0.83-1.3,1.67-2.48a15.39,15.39,0,0,0,1.43-2.45,15.84,15.84,0,0,1,1.26-1.83,6.44,6.44,0,0,0,1-1.8,9.28,9.28,0,0,0,1.33-5.71A41.59,41.59,0,0,0,746,351a32.33,32.33,0,0,0-2.38-6.4q-1.55-3.1-3.34-6.3c-0.19-.3-0.39-0.64-0.59-1s-0.4-.72-0.59-1a16.49,16.49,0,0,0-2-3.17q-1.11-1.33-2.25-2.91-0.82-.88-1.51-1.65t-1.53-1.89q-1.38-1.54-2.72-2.85t-2.73-2.86q-1.91-2-3.56-3.86a19.61,19.61,0,0,1-2.89-4.41,0.65,0.65,0,0,1-.28-0.33,0.7,0.7,0,0,0-.28-0.33,4.66,4.66,0,0,1-1.26-1.56q-0.46-.91-1-1.82a0.68,0.68,0,0,1-.29-0.45,40.31,40.31,0,0,0-2.64-4.32,15.61,15.61,0,0,1-2.16-4.37q-1-2.31-1.92-4.39a43,43,0,0,1-1.66-4.18c-0.49-1.56-.93-3.08-1.34-4.58a18.21,18.21,0,0,1-.62-4.65,15.06,15.06,0,0,1-.09-1.93q0-1,.13-2.19a5,5,0,0,0,.07-1.58A7.4,7.4,0,0,1,706.61,274.14ZM681.26,304.2q0.58,0.91,1,1.71c0.3,0.53.64,1.1,1,1.7q-0.83,1.3-.54,1.75a3,3,0,0,0,1.78.78,5.39,5.39,0,0,0,.23,1.06,5.65,5.65,0,0,1,.23,1.06,2.19,2.19,0,0,1,.34.93,1.37,1.37,0,0,0,.58.91,0.87,0.87,0,0,1,.13,1.2c0.08,0.8.37,1.17,0.85,1.12a1.39,1.39,0,0,1,.58.91,8.93,8.93,0,0,1,.84,2.21q0.23,1.06.6,2.24a4.65,4.65,0,0,1,.39,1.41,2.57,2.57,0,0,0,.63,1.38,8,8,0,0,1,1.1,3.51,15.16,15.16,0,0,1,1.23,4.71,0.87,0.87,0,0,1,.2.71,1,1,0,0,0-.07.49,6.59,6.59,0,0,0,.84,3.3,1.63,1.63,0,0,0,.2.7,1.71,1.71,0,0,1,.2.7,4.64,4.64,0,0,1,.39,1.41,4.51,4.51,0,0,0,.39,1.41,29.12,29.12,0,0,1,1,3,19.28,19.28,0,0,1,.57,3.08,3.83,3.83,0,0,0,.66,1.62,4.11,4.11,0,0,1,.76,2.58,1,1,0,0,0,.17.47,1.71,1.71,0,0,1,.2.7l0.63,1.38a2.21,2.21,0,0,1-.06,1.7l0.05,0.48a3.91,3.91,0,0,1,.66,1.62,7.2,7.2,0,0,1-.06,1.7,3.32,3.32,0,0,0,.39,1.41,10,10,0,0,0,.3,1.66,2,2,0,0,1-.21,1.47l0.08,0.72a0.93,0.93,0,0,0,.18.59,0.5,0.5,0,0,1,.16.35,17.16,17.16,0,0,0-.17,1.83,14.31,14.31,0,0,0,.1,2l0.08,0.72a4,4,0,0,1,.2,1.91l0.18,1.67,0.18,1.67a5.16,5.16,0,0,0,.33,3.11l0,0.24a27.84,27.84,0,0,0-.39,3.19,28.83,28.83,0,0,1-.39,3.19,0.62,0.62,0,0,1-.17.62,1.29,1.29,0,0,0-.41.65,2.3,2.3,0,0,0-.62,1,5.19,5.19,0,0,1-.14,2.07,10.29,10.29,0,0,0-.38,2.1,3.32,3.32,0,0,1-1,2.28,2.42,2.42,0,0,0-1,1.8,1.25,1.25,0,0,0,.37,1.17,3.23,3.23,0,0,1-2.21,1.93,2.13,2.13,0,0,1-.93.34l-0.91.58q-0.86,1.06-1.41.39a1.56,1.56,0,0,0-.64.8,0.47,0.47,0,0,1-.69.32,1.15,1.15,0,0,0-.8.45,1.15,1.15,0,0,1-.8.45,20.12,20.12,0,0,0-3.56.62,14.24,14.24,0,0,1-2.34.73,1.67,1.67,0,0,0-.7.2,1.65,1.65,0,0,1-.71.2l-3.74-1.05a3.66,3.66,0,0,1-1.48-2.5,6.41,6.41,0,0,0-1-2.79,13,13,0,0,1-.78-2.82,31.31,31.31,0,0,1-1.13-3.75q-0.45-1.89-.89-3.78a2.66,2.66,0,0,1-.37-1.17l-0.15-1.44a13.11,13.11,0,0,1-1.48-4.8q-0.27-2.51-.79-5.12a24.09,24.09,0,0,0-.37-2.38,23.65,23.65,0,0,1-.37-2.38l-0.18-1.67L668,365.87l-0.56-5.26q-0.28-2.63-.32-5.29l-0.38-3.59-0.4-3.71a29.78,29.78,0,0,1-.16-3.73l-0.38-3.59a29,29,0,0,1-.14-3.61q0-2.41-.14-4.7a32.23,32.23,0,0,1,.1-4.73,20.5,20.5,0,0,1,.07-3.88l0.26-4.38q0.08-1.46.05-2.91a22.9,22.9,0,0,1,.08-2.67,8.29,8.29,0,0,1,0-1.45,7.75,7.75,0,0,0,0-1.21l0.1-5.82a2.17,2.17,0,0,0-.34-0.93l-0.58-.91a2.08,2.08,0,0,1-.87-1.36,2,2,0,0,1,.44-0.41,1.9,1.9,0,0,0,.44-0.41,1.35,1.35,0,0,1,.67-0.55l0.24,0q0.83-1.3,1.71-1a4.51,4.51,0,0,0,1.83.17,23.53,23.53,0,0,1,3.72.81,15.06,15.06,0,0,1,4,.79l0.5,0.19A7.9,7.9,0,0,1,681.26,304.2Zm-24.84-37.76a1.57,1.57,0,0,1,1.2-.13,1.64,1.64,0,0,0,1.94,0c0.48-.05.7-0.23,0.67-0.55a1.45,1.45,0,0,1,.74-1,3.19,3.19,0,0,0,1-.83c0.32,0,.47-0.13.45-0.29a2.74,2.74,0,0,0,.67-0.55,1,1,0,0,1,.69-0.32,7.66,7.66,0,0,1,2.2.25,1.63,1.63,0,0,0,.2.71,1.72,1.72,0,0,1,.2.7,2.39,2.39,0,0,0,.51-0.9,2.34,2.34,0,0,1,.51-0.9l2,0.75a4.84,4.84,0,0,1,1.83,1.26l1,0.38,1.51,0.56a1.41,1.41,0,0,1,.34.93,3.22,3.22,0,0,0,1.26,2.77,11.19,11.19,0,0,1,1.84,2.47c0.5,0.92,1,1.82,1.62,2.73a4.5,4.5,0,0,1,.49,1.16,4.16,4.16,0,0,0,.49,1.16,5.35,5.35,0,0,0,.85,1.12,4.06,4.06,0,0,1,.84,3.3,8.82,8.82,0,0,1-.84,3.48,2,2,0,0,1-.23,1.23c-0.21.35-.44,0.77-0.71,1.29a5,5,0,0,0,0,1.94,4.1,4.1,0,0,1-1.25-.35,4.36,4.36,0,0,0-1.23,2.07,1.29,1.29,0,0,1-1.33,1.11,1,1,0,0,1-.74-0.16,3.33,3.33,0,0,0-2-.15q-0.95.23-2.12,0.59a1.62,1.62,0,0,1-1.25-.35,3.94,3.94,0,0,0-1-.62,7.05,7.05,0,0,1-2.6-1.66l-0.79-.64a5.94,5.94,0,0,0-.85-1.12,5.8,5.8,0,0,0-1.11-1.33,0.51,0.51,0,0,0-.16-0.35,0.47,0.47,0,0,1-.16-0.35,0.65,0.65,0,0,0,.15-0.86,6.91,6.91,0,0,1-.57-0.79,1.53,1.53,0,0,1-.18-1.68c0.23-.83-0.13-1.2-1.08-1.09-0.8.09-1-.14-0.56-0.67a3.5,3.5,0,0,1,.65-0.67,1.3,1.3,0,0,0,.42-0.65,0.42,0.42,0,0,0,.43-0.53c-0.05-.48-0.24-0.7-0.55-0.67a4.69,4.69,0,0,1-1.42-.82,2.78,2.78,0,0,1,.21-1.47,2.45,2.45,0,0,1-.64-0.29,3.05,3.05,0,0,0-.64-0.3,1,1,0,0,0,.59-0.18,1,1,0,0,1,.58-0.18,0.85,0.85,0,0,0-1.06-.85,20.12,20.12,0,0,1-.84-3.3,3.42,3.42,0,0,0-.68-1.86l-1.11-1.33A1.19,1.19,0,0,1,656.42,266.43ZM655.88,409.1a22.85,22.85,0,0,1,8.55,1.38,42.58,42.58,0,0,0,7.79,2.17,4.51,4.51,0,0,1,3.13,1.49l5.52,5.32a11.08,11.08,0,0,0,5.15,5.71,13.1,13.1,0,0,1,6.77,9.55,2.24,2.24,0,0,1,.8,1.15,2.09,2.09,0,0,0,.8,1.15,13.48,13.48,0,0,1,.88,5.41,12.35,12.35,0,0,0,1.66,5.39q1.63,4.62,3.28,9.23t3.28,9.23a8.37,8.37,0,0,1,1.64,4.62,14.55,14.55,0,0,0,.86,4.63l2.55,11.57a0.69,0.69,0,0,1,.79.76,13.43,13.43,0,0,0,1,10.05,72.13,72.13,0,0,1,4.05,9.22,7.83,7.83,0,0,1,.84,3.47,7.59,7.59,0,0,0,.84,3.47,8.56,8.56,0,0,0,.85,3.86,24,24,0,0,1,2.53,10.8,5.37,5.37,0,0,0,1.65,5.39,12.53,12.53,0,0,1,2.38,3.05,57.14,57.14,0,0,0,5.34,15.39,84.11,84.11,0,0,1,6.11,15.37,8.56,8.56,0,0,0,.85,3.86,12.37,12.37,0,0,0,1.65,5.39,1.53,1.53,0,0,0,.41,1.15,1.62,1.62,0,0,1,.41,1.15,3.74,3.74,0,0,0-.3,4.27,21.83,21.83,0,0,1,2,4.22c0.56,2.58,1.13,5.4,1.71,8.49s1.15,6.17,1.73,9.26a13.44,13.44,0,0,1,.88,5.41c1.09,3.08,2.06,6,2.88,8.85s1.78,5.78,2.88,8.85a19.61,19.61,0,0,1,2,5.77,18.73,18.73,0,0,0,2,5.77,7.22,7.22,0,0,1,.81,1.92,6.52,6.52,0,0,0,.81,1.92l2.46,6.92a2.24,2.24,0,0,1,.8,1.15,2.08,2.08,0,0,0,.8,1.15q2.31-.81,2.23-4.69,1.39-7.76,2.41-15.15t2.42-15.15a31.64,31.64,0,0,1,1.44-5.45l0-1.55a24.27,24.27,0,0,0,.66-5.82c0-1.8-.07-3.48-0.1-5a26.94,26.94,0,0,1,1.38-8.55q0.69-3.88,1.41-7c0.47-2.07.94-4.4,1.41-7a65.6,65.6,0,0,0,1.32-11.65,6,6,0,0,0,.73-2.34,2.23,2.23,0,0,1,.75-1.56,6.06,6.06,0,0,0,.73-2.34,6,6,0,0,1,.73-2.34l1.49-3.13,0.76-.79a5.49,5.49,0,0,1,.67-5,13.83,13.83,0,0,0,2.24-4.31c0-1.55-.06-3.22-0.1-5a15.79,15.79,0,0,1,.68-5l0-2.32a46.2,46.2,0,0,0,2-14.76c-1.05-.49-0.81-1.53.71-3.11a6.69,6.69,0,0,0,2.23-4.69,22.51,22.51,0,0,1,.67-5.43,42.08,42.08,0,0,0,.61-8.15,41.26,41.26,0,0,1,.62-8.15q0.66-5.42,1-10.48t1-9.7c-0.06-3.1,1.19-4.93,3.77-5.5,1-1,1.51-1.83,1.5-2.35q0.7-3.1,1.44-5.84a10.36,10.36,0,0,0-.9-6.57l-0.06-3.1a48.62,48.62,0,0,0,2.18-7.4c0.46-2.33.94-4.79,1.41-7.39a7.18,7.18,0,0,0-1.67-6.16c1-3.63.39-6.2-1.7-7.71a79,79,0,0,1,2.9-10.13,1.25,1.25,0,0,1,.75-1.18,4.19,4.19,0,0,0,1.51-2,32.65,32.65,0,0,1,4.09-8.6,21.24,21.24,0,0,0,3.3-9.36,13.06,13.06,0,0,1,3.34-7.42,33.75,33.75,0,0,1,6.48-5.16,7,7,0,0,1,3.11.71,5.48,5.48,0,0,1,2.33.34,5.23,5.23,0,0,0,2.33.34,9.15,9.15,0,0,0,4.77,6.1q5.47,3,8.53.61a1.62,1.62,0,0,1,1.17.36,3,3,0,0,0,1.94.35,15.94,15.94,0,0,0-2.87,11.68c1.08,2.57,1.88,3.84,2.4,3.83,3.13,1.49,3.69,4.07,1.7,7.71q-3,3.94-3.35,7a55.51,55.51,0,0,0-.25,7,44.34,44.34,0,0,1,.94,8.5,22.8,22.8,0,0,1-1.38,8.55q-2.93,8.59,1.17,20.12,1.66,6.18.18,9.29a8.29,8.29,0,0,0,.44,2.7,8.67,8.67,0,0,1,.44,2.7,17.39,17.39,0,0,0,.46,3.48,18.32,18.32,0,0,1,.46,3.48,10.69,10.69,0,0,0,.86,4.63q1.63,4.62.14,7c-0.51.53-.73,2.34-0.67,5.43a33.76,33.76,0,0,1-.28,5.43,32.55,32.55,0,0,0-.28,5.43,10.71,10.71,0,0,0,.87,4.63q1.65,5.4-.59,9.31a13.54,13.54,0,0,0-1.08,3.89,14.33,14.33,0,0,1-1.09,3.89q-1.5,3.13.16,8.52,1.69,7.72,1,11.6-1.5,3.13.11,5.42,1.67,6.18,1,10.05v0.77a10.36,10.36,0,0,1,.9,6.57,24.16,24.16,0,0,0-.64,6.6,3.08,3.08,0,0,1-.35,1.94,3,3,0,0,0-.35,1.94q-2.2,6.25.21,10.84l0.06,3.1c-0.46,3.11-.79,6.09-1,8.93a40.07,40.07,0,0,1-1.76,8.94c0.08,4.14-.13,7-0.61,8.53a14.55,14.55,0,0,0-.68,4.66,14.85,14.85,0,0,1-.68,4.66,23.34,23.34,0,0,0-.64,7,13.51,13.51,0,0,0-.69,4.27,7.76,7.76,0,0,1-.71,3.5l0.12,6.19a20,20,0,0,0-.65,6.21q-0.67,5.44-1.35,10.1a92.84,92.84,0,0,1-2.13,10.11,10.71,10.71,0,0,0,.87,4.63,79.82,79.82,0,0,1,1.33,8.5q0.47,4.64,1.34,9.27a24.7,24.7,0,0,1-.31,3.88,23.49,23.49,0,0,0-.31,3.88,8.7,8.7,0,0,1-.33,2.72,8.37,8.37,0,0,0-.33,2.72q0.14,7-2.14,9.34-1.5,3.13.11,5.42a38.73,38.73,0,0,1,.21,10.84l0.07,3.87a37.19,37.19,0,0,1-.61,8.53,10.75,10.75,0,0,0-.68,4.66,55.37,55.37,0,0,0,.52,7,57.46,57.46,0,0,1,.52,7l0,2.32c-1.5,2.62-1.46,4.68.12,6.19l0.81,1.53a8.15,8.15,0,0,0,.53,7.35c1.33,2.3,2.53,4.48,3.61,6.51q1.62,3.85,1.77,11.59l0.11,5.42a13.14,13.14,0,0,0,1.72,8.49,1.78,1.78,0,0,1,.42,1.93,8.36,8.36,0,0,0-.33,2.72,8.14,8.14,0,0,0,.14,7,24.5,24.5,0,0,1,4.13,13.09,26.84,26.84,0,0,0,1.72,8.49q1.65,5.4-.61,8.53a20.62,20.62,0,0,0-2.14,9.34c0.56,2.58.48,4.64-.27,6.2l-2.6,5.47c0,1-1,1.57-3.07,1.61-1,0-1.55-.22-1.56-0.74-3.62.07-4.88,1.91-3.77,5.5l-0.76.79a2.24,2.24,0,0,1-1.53.8,2.24,2.24,0,0,0-1.53.8c-2.58.57-5.4,1.14-8.49,1.72A15.75,15.75,0,0,1,814,891q-3.9-.69-8.16-1.39a40.88,40.88,0,0,1-8.17-2.16,2.29,2.29,0,0,0-1.56-.74q-4.65.09-8.62-5.25c-2.11-2-3.93-3-5.48-3l-3.87.08q-7,.14-8.58-2.93l-0.79-.76c-4.17-1.47-6.28-4-6.35-7.62l-3.95-3.8a6.7,6.7,0,0,0-1.57-1.13,4,4,0,0,1-1.59-1.9q-4.71-3-6.41-10.72-1.67-5.38-.18-9.29,2.2-6.23-1.79-12.36c-0.54-1-1.08-2.17-1.62-3.45s-1.09-2.69-1.63-4.23q-1.64-3.84-3.65-8.45c-1.35-3.07-2.57-5.88-3.65-8.45q-2.45-6.14-4.86-11.14a62.67,62.67,0,0,1-4.09-11.15L720.15,765c-1.62-3.58-3.12-7-4.46-10.37s-2.59-6.79-3.69-10.39q-2.44-6.14-4.51-12.69T703,718q-3.25-7.67-5.72-15.38t-5-16.17a34.39,34.39,0,0,0-4-6.89q-2.41-4.6-5.21-9.19t-6-10l-0.79-.76a2.19,2.19,0,0,1-1.56-.74l0.07,3.87a7.69,7.69,0,0,0-.71,3.5,4.81,4.81,0,0,1-1.48,3.51q-3,4.71-1.32,11.65a28.48,28.48,0,0,1,.18,9.29,64.83,64.83,0,0,0-1.32,11.65c-1,1.57-.71,3.11.87,4.63q2.38,3.06.88,5.4a24.31,24.31,0,0,0-1.41,7l-2,16.31-2,14a4.46,4.46,0,0,1-1.49,3.13q-1.5,3.13.11,5.42a5.07,5.07,0,0,1,.07,3.87,31.68,31.68,0,0,1-1.47,3.9c-1,1.57-1.47,3.9-1.41,7a30.43,30.43,0,0,1,.64,12.77q-1,6.61-2.46,12.83a6.86,6.86,0,0,0-.71,3.11,7,7,0,0,1-.71,3.11q-0.71,3.9-1,7a29.28,29.28,0,0,1-1.8,7,65.11,65.11,0,0,1-5.2,11.33,39.52,39.52,0,0,0-4.43,11.32,22.52,22.52,0,0,0-4.1,8.21,32,32,0,0,1-3.33,8.2q-3.7,9.37-16.82,11.17a8.16,8.16,0,0,1-7,.14,39.9,39.9,0,0,1-5.82-.27q-2.73-.33-6.6-1a27.16,27.16,0,0,0,2.8-15.16,135.79,135.79,0,0,1-1.05-14.31,23.08,23.08,0,0,0-1.31-7.33,23.09,23.09,0,0,1-1.3-7.33,27,27,0,0,1-.92-7.73,58,58,0,0,1-1-10.83,6.16,6.16,0,0,1-.46-3.86,24.71,24.71,0,0,0,.31-3.88,17.42,17.42,0,0,1,.32-3.49,18.08,18.08,0,0,0,.32-3.49,40.21,40.21,0,0,1,.27-5.82c0.22-1.81,1.35-3.51,3.39-5.1a8.55,8.55,0,0,1-3.89-.7l-0.14-7a57.47,57.47,0,0,0-.52-7,54.71,54.71,0,0,1-.52-7,64.41,64.41,0,0,1,.24-7.36,68,68,0,0,0,.24-7.36q-0.08-3.86-.14-7a36.72,36.72,0,0,0-.91-7,39.52,39.52,0,0,1-.58-9.67,48.51,48.51,0,0,0-.59-10.45,37.93,37.93,0,0,1-.21-10.84,77.58,77.58,0,0,0,.56-10.86,11.79,11.79,0,0,1,1.46-4.68l-0.06-3.1a70.11,70.11,0,0,1-1.48-16.24q0.23-7.74.84-16.28a6.34,6.34,0,0,0,.31-3.88,23.18,23.18,0,0,1-.46-3.86,42.08,42.08,0,0,1,1.37-9.32,27.06,27.06,0,0,1,.62-7.76l-0.33-17a24.87,24.87,0,0,0-.46-3.86,27.34,27.34,0,0,1-.48-4.64,14.86,14.86,0,0,0,.68-4.66,14.51,14.51,0,0,1,.68-4.66q1.44-5.44.61-8.53a8.15,8.15,0,0,1-.47-4.25,34.78,34.78,0,0,1,1.08-4.28,19,19,0,0,0,1.41-7q-0.06-3.09-.14-7a65.4,65.4,0,0,0,1.34-10.87A89.13,89.13,0,0,1,604,529q0.6-8.15,2-16.69a55.5,55.5,0,0,1,.25-7,50.79,50.79,0,0,0,.27-6.2q-0.08-3.87-.14-7A13.67,13.67,0,0,1,607.8,486a11.48,11.48,0,0,0-.2-10.07q-3.18-3.81-.14-7a23.82,23.82,0,0,0,.64-7,20.35,20.35,0,0,0,.65-6.21,3.15,3.15,0,0,0,.73-2.34q-1.77-10.8,3.54-17.11,3-6.25-1.79-12.36l5.69-5.92a53.79,53.79,0,0,1,5.71-5.15c3.06-2.12,5.62-3.21,7.68-3.25a3,3,0,0,0,1.93-.42,3.06,3.06,0,0,1,1.93-.43q6.92-2.46,11.6-1A43,43,0,0,0,655.88,409.1Zm-105.34-128a2.8,2.8,0,0,1,.68,1.86l0.19,1.79a1.46,1.46,0,0,0,1.1,1.21,2.93,2.93,0,0,1-1.13,3c-0.44.37-.85,0.74-1.21,1.1a4.17,4.17,0,0,1-1.24.86c-0.48.05-.67,0.48-0.59,1.27a2.67,2.67,0,0,1-1.21,2.31,1,1,0,0,1-1.41.39,0.87,0.87,0,0,0-1.2.13,1,1,0,0,1-.69.32l-2.22.72a3.8,3.8,0,0,1-2.3,0,2,2,0,0,0-1.91.2q-1.1,1.09-1.75-.54a0.68,0.68,0,0,1-.33.28,0.68,0.68,0,0,0-.33.28,1.92,1.92,0,0,1-2.84.55,1.05,1.05,0,0,0-1.46-.09,2.43,2.43,0,0,1-2-.27,3.73,3.73,0,0,0-1.49-.33c-0.66-.09-1.23-0.19-1.73-0.3a2.26,2.26,0,0,0-1.44.15,0.21,0.21,0,0,1-.26-0.21,2.85,2.85,0,0,0-1.76-.66,3.81,3.81,0,0,1-1.74-.42,1,1,0,0,1-.74-0.16,3.86,3.86,0,0,0-2.28-1,0.79,0.79,0,0,1-.09-0.84c0.13-.26-0.05-0.52-0.57-0.79a0.67,0.67,0,0,0-.2.38,0.68,0.68,0,0,1-.2.38q-0.86,1.06-1.67.18a4,4,0,0,0-1.56-1q-2.45-.22-1.74,1.88a2,2,0,0,1,.33.81,1.91,1.91,0,0,0,.33.81,3.09,3.09,0,0,0,.69.77l0.93,0.75a1.65,1.65,0,0,1,.44,1.89,0.87,0.87,0,0,0,.85,1.12,1.55,1.55,0,0,1,1.32,1.07,4.29,4.29,0,0,1,.38,1.29,2.36,2.36,0,0,0,.35,1.05,1,1,0,0,0,.32.69l0.79,0.64a4.91,4.91,0,0,0-.07,1.58,4.07,4.07,0,0,1-.29,1.85l0.05,0.48a0.94,0.94,0,0,1,.36,1.05,3,3,0,0,0-.13,1.1,7.39,7.39,0,0,1-.65,3q-0.11,1.23-.39,3.19a2.14,2.14,0,0,0-.14,1,2.14,2.14,0,0,1-.14,1,4.49,4.49,0,0,0-.22,2.44l0.15,1.44a6.33,6.33,0,0,0,.17,3.85,1.91,1.91,0,0,1-.11,1.22,2.43,2.43,0,0,0-.34,1.37,4.29,4.29,0,0,1-.1,1.34,13.57,13.57,0,0,1-.15,3.16,11.42,11.42,0,0,0,0,4.6c0.24,0.78.5,1.64,0.76,2.58s0.51,1.8.76,2.58a13.26,13.26,0,0,0,1,2.32,3.14,3.14,0,0,1,.26,2.39,0.21,0.21,0,0,0,.26.21,2.83,2.83,0,0,1-.15,3.16,2.31,2.31,0,0,1,.73,2.34,1.37,1.37,0,0,0,.58.91,1.54,1.54,0,0,1,.63,1.38,2,2,0,0,0,.2,1.91l0.05,0.48c-0.08.82-.12,1.51-0.14,2.07s-0.07,1.26-.14,2.07l0.05,0.48a3.21,3.21,0,0,1,.46,2c-0.1.58-.19,1.27-0.26,2.08l-0.27,2-0.27,2a4.21,4.21,0,0,0-.1,1.34,4.28,4.28,0,0,1-.1,1.34,12.07,12.07,0,0,0,0,2.42,6.43,6.43,0,0,1-.22,2.44,4.36,4.36,0,0,0,0,2.42,3.15,3.15,0,0,1,.26,2.39,9.18,9.18,0,0,0-.21,1.47,2.17,2.17,0,0,1-.47,1.26q-0.72.08,0.08,0.72a14.23,14.23,0,0,1,.45,3.1c0,1,0,2,0,3.15a1.63,1.63,0,0,0,0,1.09,2.6,2.6,0,0,1,0,1.33,13.21,13.21,0,0,1-.17,2.92,23.44,23.44,0,0,0-.09,2.55,8.61,8.61,0,0,0,.39,2.5,26,26,0,0,1,.14,3.61,9.52,9.52,0,0,1-.84,3.48,15.9,15.9,0,0,1-1.32,3.53,1.53,1.53,0,0,0,.18,1.67,2.44,2.44,0,0,1,.69.77,6.1,6.1,0,0,0,.45.8,1.38,1.38,0,0,1-.91.58,0.42,0.42,0,0,0-.43.53,9.87,9.87,0,0,0-.3,1.73,8.9,8.9,0,0,0-2.87.31,16,16,0,0,1-2.61.52q-1.68.18-3.12,0.21t-2.88.19a0.69,0.69,0,0,0-.45.29,3.18,3.18,0,0,1-2,.46q-0.87-.15-2.08-0.26l-1-.38-0.72.08a0.86,0.86,0,0,1-.8.45,6.1,6.1,0,0,1-.87-0.27,1.11,1.11,0,0,1-1.27-.59,2.47,2.47,0,0,1-.23-2.15,7.9,7.9,0,0,0,.27-2,14.4,14.4,0,0,0-.7-3.19c-0.35-1-.67-2.07-0.94-3.17a7.72,7.72,0,0,0-.25-1.18,7.29,7.29,0,0,1-.25-1.18l-0.05-.48a4.64,4.64,0,0,0-.39-1.41,3,3,0,0,1-.18-1.67,11.35,11.35,0,0,0-.29-1.54,10.8,10.8,0,0,1-.29-1.54,15,15,0,0,0-.34-2,14.41,14.41,0,0,1-.34-2,1.7,1.7,0,0,0-.2-0.7,1,1,0,0,1-.17-0.47l-0.05-.48a8.86,8.86,0,0,0-.46-3.22,8.77,8.77,0,0,1-.46-3.22,38.74,38.74,0,0,0-.21-4.21l-0.42-3.95a35.79,35.79,0,0,0-1.24-9.31l-0.1-1a21.22,21.22,0,0,0-.53-7.2A11,11,0,0,1,489,362l-0.23-2.15-0.23-2.15a12.15,12.15,0,0,1-.5-2.37l-0.26-2.39a1.68,1.68,0,0,0-.2-0.7,1.63,1.63,0,0,1-.19-0.7,12.38,12.38,0,0,0,0-2.42l-0.25-2.39-0.43-4.07a15.05,15.05,0,0,0-.23-3.24,14.7,14.7,0,0,1-.23-3.24l-0.15-1.44a2.15,2.15,0,0,0,.14-1,4.34,4.34,0,0,1-.22-2q0.15-.86.29-1.85,0.25-2.2.51-4.29a19.43,19.43,0,0,0,0-4.48,12.56,12.56,0,0,1-.07-1.81c0-.57.07-1.25,0.14-2.07s0.12-1.5.14-2.07,0.07-1.25.14-2.07a22.44,22.44,0,0,0,.57-3.69,20.67,20.67,0,0,0,.42-2.83c0.06-.89.13-1.75,0.21-2.56s0.11-1.58.12-2.31a21,21,0,0,0-.12-2.29l0.34-3.67,0.41-2.95a5.2,5.2,0,0,1,.14-2.07c0.18-.58.39-1.21,0.65-1.88a2,2,0,0,0,.15-0.86,1.93,1.93,0,0,1,.15-0.86,5.21,5.21,0,0,1,.75-2q1.16-2.78-1.79-3.2a7.82,7.82,0,0,1-2.44-.22,7.65,7.65,0,0,0-1.39-.58,7,7,0,0,1-1.39-.58,10,10,0,0,0-1.25-.35l-1.49-.33a9,9,0,0,0-2.46-.34,8.65,8.65,0,0,1-2.46-.34c-0.84-.23-1.62-0.47-2.38-0.71a5.55,5.55,0,0,1-2.21-1.46,1.42,1.42,0,0,0-1.27-.59,0.93,0.93,0,0,1-.61-0.06,0.5,0.5,0,0,0-.37-0.08,24.8,24.8,0,0,0-2.32-1.33,5.2,5.2,0,0,1-1.87-1.62,0.48,0.48,0,0,1-.37-0.08,0.5,0.5,0,0,0-.37-0.08l-0.79-.64a4.37,4.37,0,0,0-1.23-1.32,5.18,5.18,0,0,1-1.21-1.08,3.27,3.27,0,0,1-.67-0.65,2.43,2.43,0,0,1-.22-0.94,0.7,0.7,0,0,1,.45-0.29,6.69,6.69,0,0,0,2.82-.78,5.76,5.76,0,0,1,3.56-.62,8.37,8.37,0,0,0,2.42,0l6.7-.71a40.56,40.56,0,0,1,6.39-.2q3,0.16,6.44.28a14.42,14.42,0,0,1,2.54,0l2.56,0.21a24,24,0,0,0,2.43.1c0.81,0,1.61,0,2.43.1a8.56,8.56,0,0,0,3.37-.12,13.63,13.63,0,0,1,3.16.15q1.44-.15,2.88-0.19t2.91,0.05l0.24,0a28.66,28.66,0,0,1,3.44-.61l3.47-.37,3.83-.41a17.92,17.92,0,0,1,2.17-.11,6.71,6.71,0,0,0,2.14-.35,11.19,11.19,0,0,1,3.23-.34,18.6,18.6,0,0,1,3.07.4l2.56,0.21a13.38,13.38,0,0,1,2.59.45,0.5,0.5,0,0,1,.37.08,0.48,0.48,0,0,0,.37.08,7.6,7.6,0,0,1,2.29,1.09,2.41,2.41,0,0,0,2.22.37,0.89,0.89,0,0,1-.23,1.23,3.22,3.22,0,0,0-1,.83,1.18,1.18,0,0,0,.71,1,5.81,5.81,0,0,1,1.17.72,5.64,5.64,0,0,1,1.09,0,5.37,5.37,0,0,0,1.09,0,1.87,1.87,0,0,1,2.21.25,1,1,0,0,1,.74.16,1.92,1.92,0,0,0,.86.15,2,2,0,0,1,.86.15,1.88,1.88,0,0,1,.9,1.6,2.26,2.26,0,0,0,.82.88,2.74,2.74,0,0,0-.21,1.47,6.83,6.83,0,0,0,1.44,1.06,1.81,1.81,0,0,1-1.26,1.83,4,4,0,0,0-.95.22,3.88,3.88,0,0,1-.94.22Q549,279.84,550.54,281.13Zm35.31,131.26a5.61,5.61,0,0,1-1.4-1.79,24.64,24.64,0,0,0-1.44-3.23,28,28,0,0,1-1.41-3,16.53,16.53,0,0,1-1.3-4.22q-0.35-2.14-.82-4.27a5.34,5.34,0,0,1,0-1.09,5.66,5.66,0,0,0,0-1.09c-0.17-1.59-.3-3.15-0.38-4.68s-0.21-3.08-.38-4.68a28.65,28.65,0,0,0-.64-3.68q-0.43-1.77-.87-3.66c-0.12-1.11-.27-2.15-0.45-3.1s-0.41-2-.69-3.07a12.77,12.77,0,0,1-.51-2.49l-0.27-2.51-0.74-6.94q-0.12-3.37-.34-6.62t-0.34-6.62q-0.1-3.13-.16-6t-0.16-6a6.55,6.55,0,0,1,0-1.33,6.85,6.85,0,0,0,0-1.33q0-2.41-.26-4.69a27.42,27.42,0,0,1,0-5q0.14-3.16.19-6.19t0.21-6q0.14-3.16.56-6.11t0.8-6.13a34,34,0,0,0,.32-3.79c0-1.21.06-2.46,0.08-3.76q0.15-3.16.2-6.07t0.2-6.07a2,2,0,0,0-.47-2.13,2.67,2.67,0,0,1-.6-2.23,11.78,11.78,0,0,1,.83-2.39,7.05,7.05,0,0,0,1.39.58,7.56,7.56,0,0,1,1.39.58,13.33,13.33,0,0,0,.54-1.75l0.26,0.21a2.37,2.37,0,0,0,1.1.12,2.44,2.44,0,0,1,1.1.12,1.3,1.3,0,0,1,1,.62,3.3,3.3,0,0,0,2.28,1,1.64,1.64,0,0,1,1.25.35,10.09,10.09,0,0,1,2.15.86A13,13,0,0,0,590,274a1.29,1.29,0,0,1,1.11,1.33,1.23,1.23,0,0,1-1.14.61,1.44,1.44,0,0,0-.86,1.06,1.58,1.58,0,0,0,.39,1.41,1.65,1.65,0,0,1,0,1.94,4.2,4.2,0,0,0-.35,1.25l0.5,4.67a40.06,40.06,0,0,0,.71,4.4,8.46,8.46,0,0,0,.27,1.42,9,9,0,0,1,.27,1.42,3.41,3.41,0,0,1,.29,1.54,3.34,3.34,0,0,0,.29,1.54c0.09,0.8.22,1.67,0.4,2.62s0.4,1.89.66,2.83a2.92,2.92,0,0,0,.35,1.05q0.3,0.57.59,1c0.22,0.62.45,1.2,0.67,1.74s0.43,1,.64,1.5l0.1,1a13.07,13.07,0,0,0-.17,2.92,2.65,2.65,0,0,0,.37,1.17,9.28,9.28,0,0,1,.91,4,1,1,0,0,0-.16.74,8.56,8.56,0,0,1,.49,2.37,1.39,1.39,0,0,0,.93-0.34,30.41,30.41,0,0,0,8.79-3.84,1.64,1.64,0,0,1,1.15-.61,2.67,2.67,0,0,0,1.17-.37l2.79-1,2.87-.31,1.67-.18q1.22,0.11,1.31-1.35l-0.1-1-0.24-2.27a11.57,11.57,0,0,1,0-2.3,11.44,11.44,0,0,0,.15-3.16,22.14,22.14,0,0,1-.09-3.14q0-2.41-.14-4.7a32.23,32.23,0,0,1,.1-4.73,30.38,30.38,0,0,0-.16-3.73,30,30,0,0,1-.16-3.73q0.2-2.68.17-5.22t0.17-5.22a3.4,3.4,0,0,0,0-1.57,10.68,10.68,0,0,1-.29-1.54,0.71,0.71,0,0,0-.29-0.45,2.62,2.62,0,0,1-.55-0.67,13.79,13.79,0,0,1-2.09-1.47,2.56,2.56,0,0,1-1.08-1.09,2.42,2.42,0,0,0,.51-0.9,1.08,1.08,0,0,1,.53-0.66,0.94,0.94,0,0,1,.88-0.82c0.62-.22,1.16-0.45,1.62-0.66a3,3,0,0,1,1.67-.18,7.25,7.25,0,0,0,1.18-.25,2.82,2.82,0,0,1,1.71.18,3.14,3.14,0,0,0,3.8-.65l0.24,0a1.89,1.89,0,0,0,2.47.46,3,3,0,0,1,2.26.73,5.78,5.78,0,0,1,2.28,2.06,28.7,28.7,0,0,1,1.61,2.61,1.34,1.34,0,0,1,.42,1.65,1.07,1.07,0,0,1-.07.49,1,1,0,0,0-.07.49,6.06,6.06,0,0,1,.8,1.85q0.22,0.95.59,2.12l1.18,4.23a22.06,22.06,0,0,1,1,3.88q0.33,2,.81,4.15l0.05,0.48,0.5,4.67a46.75,46.75,0,0,0,.74,4.64,25.29,25.29,0,0,0,.62,3.56q0.41,1.65.84,3.3l0.1,1a20.32,20.32,0,0,0,.36,2.26,20.94,20.94,0,0,1,.36,2.26,2.67,2.67,0,0,1,0,.85,2.62,2.62,0,0,0,0,.85l0.26,2.39L642,317.1a11.5,11.5,0,0,1,0,1.57,3.31,3.31,0,0,0,.29,1.54,20.09,20.09,0,0,0,.36,2.26,7.54,7.54,0,0,1,.12,2.29c0.12,1.12.28,2.23,0.48,3.34a9.7,9.7,0,0,1,0,3.39l0.08,0.72a8.13,8.13,0,0,1,.22,4.33l0.08,0.72a4.19,4.19,0,0,1,.49,2.37,13.81,13.81,0,0,1-.46,2.47l0.18,1.68a4.2,4.2,0,0,0-.1,1.34,4.28,4.28,0,0,1-.1,1.34L645.43,363a8.75,8.75,0,0,1,0,1.45,8.65,8.65,0,0,0,0,1.45,9.72,9.72,0,0,1,0,2.66,8.75,8.75,0,0,1,0,1.45,8.56,8.56,0,0,0,0,1.45l0.08,0.72a7,7,0,0,1,.85,3.42c0,1.06-.09,2.23-0.11,3.52a2.69,2.69,0,0,1-.8,1.54,12.23,12.23,0,0,1-1.41,1.48q-0.78.69-1.65,1.51a2.17,2.17,0,0,1-2.39.26c-0.5-.41-0.94-0.23-1.32.52a1.75,1.75,0,0,1,.68.28A3.63,3.63,0,0,0,641,385q1.22,0.11-.68.44t-1.55-.92l0.06-.12c-0.47-.07-0.79.24-0.94,0.94l-0.38,1a1.34,1.34,0,0,1-1.84.92q-0.8-.64-0.72.08a1.39,1.39,0,0,1-.91.58l-1,.1a5.22,5.22,0,0,0-3.11.33,2.17,2.17,0,0,0-1.76,1.64q-0.56,1.51-1.91.2-2-2.45-3.81-5a17.23,17.23,0,0,1-2.69-5.88,24.71,24.71,0,0,1-1.8-7.79q-0.15-1.44-.39-4.8t-0.39-7.1q-0.16-3.73-.39-7.1a41.72,41.72,0,0,1-.15-4.82l-0.24-2.27a11.56,11.56,0,0,1,0-2.3c-0.12-1.11-.2-2.19-0.23-3.24s-0.11-2.13-.23-3.24a0.87,0.87,0,0,0-1.08-1.09,13.19,13.19,0,0,0-2.82.79,8.92,8.92,0,0,0-1.42.27,8.49,8.49,0,0,1-1.42.27,0.7,0.7,0,0,1-.45.29,0.68,0.68,0,0,0-.43.53,1.25,1.25,0,0,1-1.17.37,2.46,2.46,0,0,0-1.86-.41q-0.83.21-1.76,0.55a2.12,2.12,0,0,1-.57.3,2.13,2.13,0,0,0-.57.3q0.84,1.12.43,1.77a13.35,13.35,0,0,1-.84,1.18,7,7,0,0,0-1.22,4.49l0.54,5,0.2,1.91c0.09,0.8.21,1.63,0.39,2.5s0.3,1.7.39,2.5c0.14,1.28.32,2.63,0.55,4.06a21.53,21.53,0,0,0,1,4A13,13,0,0,1,604,368a12.33,12.33,0,0,0,.07,1.81,8.85,8.85,0,0,1,.22,3.24,8.79,8.79,0,0,0,.23,3.24,7.37,7.37,0,0,1,.47,2.13l0.61,5.74,0,0.24a4.32,4.32,0,0,1,.95,2.08,11.41,11.41,0,0,1,0,2.18,4.84,4.84,0,0,1,.32,3,15,15,0,0,0-.42,2.83c-0.08.82-.12,1.51-0.14,2.07a9.38,9.38,0,0,1-.38,2.1,6.19,6.19,0,0,1-.5,1,4.16,4.16,0,0,0-.47,1.26,3.06,3.06,0,0,1-1.26,1.83,12.57,12.57,0,0,0-1.79,1.4,3.77,3.77,0,0,0-1.63,2.84l0,0.24a3.72,3.72,0,0,0-.43,1.62,3.75,3.75,0,0,1-.43,1.62,2,2,0,0,0-.86-0.15,1.93,1.93,0,0,1-.86-0.15,2.34,2.34,0,0,0-.51.9,2.41,2.41,0,0,1-.51.9,1.08,1.08,0,0,1-.07.49,1,1,0,0,0-.07.49,1.72,1.72,0,0,1-1.81,1.16,1,1,0,0,0-.74-0.16,6.43,6.43,0,0,1-6.32-.29A15.71,15.71,0,0,1,585.85,412.39Zm358,907a5.41,5.41,0,0,1-.19,2.35,5.29,5.29,0,0,0-.19,2.35,16.7,16.7,0,0,0-5.15,3.54,5.23,5.23,0,0,0-1.22,4,16.56,16.56,0,0,0-3.6,3.41,1.59,1.59,0,0,1-.29,1.19,3,3,0,0,0-.23,2c0.17,2.06,0,3.38-.45,3.92A22.08,22.08,0,0,0,929,1351q-0.77,4.73-1.93,9.49a12.6,12.6,0,0,1-4.89,6.63,20.73,20.73,0,0,0-6.56,5.21l-6.17.52a10.28,10.28,0,0,0-6,2.83,30.76,30.76,0,0,1-2.51,7.2,8,8,0,0,1-2-1,9.63,9.63,0,0,0-2-1q-4.57,1.17-5.66,6.69a33.37,33.37,0,0,1-5.53,8.23,4.19,4.19,0,0,0-1.8,1.7,11.28,11.28,0,0,1-1.74,2.48,41.94,41.94,0,0,1-9.32,9.33,37.27,37.27,0,0,1-7.27,1.38,38.16,38.16,0,0,0-7.27,1.38l-6.18-18.14a13.49,13.49,0,0,1-1.48-3.76,14.38,14.38,0,0,0-1.48-3.76,5.83,5.83,0,0,1-1-2.25,6.18,6.18,0,0,0-1-2.25q-1.42-7.64-2.38-14.57t-2.38-14.57a36.88,36.88,0,0,1-1.16-9.23,38.07,38.07,0,0,0-1.16-9.23,27.51,27.51,0,0,0-1.42-7.65,106.38,106.38,0,0,1-1.52-18.14q0-8.93.8-18.33,0-9.33,0-18.27t0-18.27q0.37-4.7.38-9.36t-0.45-10.07l-0.19-2.32a58.43,58.43,0,0,1-1.58-9.58,59.76,59.76,0,0,0-1.58-9.58,10.71,10.71,0,0,1-.81-5,41.45,41.45,0,0,0-.1-5.82l-0.64-7.72a3.11,3.11,0,0,0-.55-1.9,3,3,0,0,1-.55-1.9,90.14,90.14,0,0,1-1.71-11.13l-0.94-11.19a22.05,22.05,0,0,0-.74-4.21,21.1,21.1,0,0,1-.74-4.21q-1.36-6.88-2.35-14.18T824,1131.25q-1.29-6.1-2.26-13t-2.25-13a107.75,107.75,0,0,0-4.6-17.88q-3.06-8.67-6.15-17.75a57.06,57.06,0,0,1-5.21-15.89,27.85,27.85,0,0,1-2.57-7.56q-0.72-3.82-1.8-7.62l-2.7-4.44-2.32.19c-1.41,1.67-2.84,3.23-4.28,4.63a20,20,0,0,0-3.51,4.57q-2.64,5.67-4.95,10.52t-4.95,10.52l-2.12,2.51a29.25,29.25,0,0,0-6.82,11.45q-3.29,7.27-11.77,8c-1.08-.42-1.73-0.5-2-0.23s-0.64.19-1.19-.29a12.41,12.41,0,0,0-7.4-.16q-3.41,1.07-7.2,2.16l-11.19.94a73.16,73.16,0,0,1-10.48.1l-0.77.06a152.28,152.28,0,0,0-15.6-5.3,52.69,52.69,0,0,1-14.12-6.2q-7.33-4.05-13.89-8.16a75,75,0,0,1-12.48-9.84q-2.57-2.88-5.12-5.4a51.81,51.81,0,0,1-4.28-4.69q-4.32-5.07-7.82-9.84T634.37,1029c0-.51-0.63-1.24-1.74-2.19q-5.41.45-7.43,4.12a38,38,0,0,1-4.15,6.18,53.09,53.09,0,0,0-1.74,7.14,55.9,55.9,0,0,1-1.73,7.14l-1.73,7.14,0.32,3.86a16.08,16.08,0,0,1,.58,6.95,55.59,55.59,0,0,1-1.73,7.14,22.63,22.63,0,0,0-.32,5.47,23.15,23.15,0,0,1-.32,5.47,13.41,13.41,0,0,1-.32,5.47q-0.91,7.85.13,10.87c0.22,2.58.08,4.15-.39,4.7-1.33,2.71-1.34,5.82,0,9.33l0.58,6.95a34.28,34.28,0,0,0-.22,6.63l0.55,6.56a25.34,25.34,0,0,0-.25,6.24L615,1151a64.41,64.41,0,0,0,1,7.3,24.34,24.34,0,0,1,.23,7.37,43.68,43.68,0,0,1-.7,10.16,10.6,10.6,0,0,0,2.19,7.59,18.49,18.49,0,0,1,2.09,6.43l0.48,5.79a15.92,15.92,0,0,0,4.05,11.32,73.75,73.75,0,0,0-.45,8.59q0,4.66-.38,9.36a12.52,12.52,0,0,1-1.09,5.53,8.59,8.59,0,0,0-.45,3.92,8.73,8.73,0,0,1-.45,3.92,13.48,13.48,0,0,0-.42,4.31,13.81,13.81,0,0,1-.42,4.31,19.69,19.69,0,0,0-.93,7.46,38.23,38.23,0,0,1-.16,7.4,28.74,28.74,0,0,1,0,4.66,27.32,27.32,0,0,0,0,4.66,40.75,40.75,0,0,1,1.9,13.44,58.93,58.93,0,0,0,1.13,13.51,26.78,26.78,0,0,1-.51,7.82c-0.56,2.65-1,5.27-1.29,7.88s-0.51,4.84-.61,6.66-0.34,3.79-.67,5.89a109.65,109.65,0,0,1-2.06,12.61,40.35,40.35,0,0,0-1.86,5.6,7,7,0,0,0,1.22,5.34,8.58,8.58,0,0,1-.83,8.62,8.59,8.59,0,0,0-.45,3.92l-5.66,6.69q-3.74,1.88-10.93-.64-10.49-4.55-19.55-1.48a11.9,11.9,0,0,0-2.48-1.74,4.05,4.05,0,0,1-1.7-1.8q-3.42-3.59-9.71-4.63a13.24,13.24,0,0,1-5.63-2.25,29,29,0,0,0-5.69-3l-0.13-1.54a10.7,10.7,0,0,0,.64-6.27,16.54,16.54,0,0,1-.13-6.21l-0.9-10.81-0.87-10.42a90.57,90.57,0,0,1-.16-11.26c-0.3-3.59-.47-7.08-0.49-10.45s0.07-6.87.29-10.52q0.11-7.77.29-15.18a75,75,0,0,0-1.26-15.05,34.24,34.24,0,0,1-1.13-8.84c0-2.84-.1-5.82-0.36-8.91a8.72,8.72,0,0,0-.61-2.67,8.32,8.32,0,0,1-.61-2.67l-5.6-39.17a141.45,141.45,0,0,1-1.9-18.11,126.75,126.75,0,0,1,.48-17.53l-0.2-30.3q0-9.32-.39-18.62a148.89,148.89,0,0,1,.38-18.68q0.89-7.83,2.18-15.73t2.18-15.73a42.47,42.47,0,0,0,.77-9.39l2.7-23.54a159.22,159.22,0,0,1,4.3-22.9,11.89,11.89,0,0,0,1.16-4.76,61.41,61.41,0,0,0,2.44-8,6.33,6.33,0,0,0,.55-2.77,4.23,4.23,0,0,1,1.32-2.83q1.28-3.2,2.6-6t2.6-6q1.28-3.2,2.6-6t2.6-6c0.9-1.63,1.8-3.13,2.73-4.5s1.82-2.87,2.73-4.5a64.22,64.22,0,0,0,2.18-6.4,64.1,64.1,0,0,1,2.19-6.4,38.18,38.18,0,0,1,3.6-8.07,14.25,14.25,0,0,1,6.88-6,4.76,4.76,0,0,0,2.64-1,26.8,26.8,0,0,1,2.57-1.77,20,20,0,0,1,.26-6.24A8.39,8.39,0,0,0,598,915a8.64,8.64,0,0,1,2.67-.61c2.57-.22,5.26-0.56,8.07-1.06a28.71,28.71,0,0,1,8.14-.29,17.12,17.12,0,0,0,8.2.48,28.76,28.76,0,0,1,8.14-.29,26,26,0,0,1,6.24.26,22.42,22.42,0,0,0,5.47.32,70.37,70.37,0,0,0,13.38,11.32,17.52,17.52,0,0,1,5.76,3.79,33.31,33.31,0,0,0,5.82,4.57l2.51,2.12a31.17,31.17,0,0,1,9.23,8.17,80.91,80.91,0,0,0,7.75,9.07,84.47,84.47,0,0,1,7.75,9.07,47.31,47.31,0,0,0,7.69,8.3,21,21,0,0,1,4.31,5.08c1.2,2,2.4,4,3.6,5.92a64.58,64.58,0,0,1,6.18,8.81q4,1.23,7.52-3,5.59-7.46,10.8-14.89t10.8-14.89a43.4,43.4,0,0,1,6.11-6c2.19-1.74,4.47-3.74,6.88-6a61.34,61.34,0,0,1,16.72-13.83,6.24,6.24,0,0,1,1.45-1.29,11,11,0,0,0,2.15-2.12,4.19,4.19,0,0,0,1.8-1.7,11,11,0,0,1,1.74-2.48,12.52,12.52,0,0,1,5.27-2L801,921a39.51,39.51,0,0,1,10.93.64,12.9,12.9,0,0,0,5.92,1.06,24.52,24.52,0,0,1,5.85.29q6.3,1,12.64,2.44a54.14,54.14,0,0,1,12.83,4.76,29.88,29.88,0,0,0,3.67,6.69,24.48,24.48,0,0,1,1.38,2.6,7.44,7.44,0,0,0,2.15,2.54,30.9,30.9,0,0,1,6.92,8.36,70.17,70.17,0,0,0,6.21,9.2,48.15,48.15,0,0,1,4.54,7.78q1.89,4.12,3.76,7.85a1.53,1.53,0,0,0,.48,1.12,1.62,1.62,0,0,1,.48,1.13,5.09,5.09,0,0,0-.38,4.7c0.64,1.5,1.28,3,1.93,4.5l0.26,3.09a24.48,24.48,0,0,1,1.26,5.72,15.7,15.7,0,0,0,1.19,5l0.84,10,0.32,3.86q1.93,4.5,3.48,9c1,3,2.18,6,3.48,9a3.29,3.29,0,0,0,.52,1.51,3.52,3.52,0,0,1,.51,1.51,30.66,30.66,0,0,0,4.25,13.63l1.1,13.12a30.31,30.31,0,0,1,1.58,4.92,18.72,18.72,0,0,0,2.41,5.63,11.67,11.67,0,0,0,1.93,4.5q5,3.49,4.12,12.09,0.45,5.41,3,8.3a5.28,5.28,0,0,1,1.87,3.73,3.2,3.2,0,0,1,1,2.25,8.93,8.93,0,0,1,3.12,4.79,42.11,42.11,0,0,1,.87,5.76,48.38,48.38,0,0,0,.9,6.14,50.66,50.66,0,0,1,.9,6.14,27.42,27.42,0,0,1-.13,7.78,3.12,3.12,0,0,0,1,2.25,29.38,29.38,0,0,1,2.61,7.94,74.6,74.6,0,0,0,1.83,8,51.59,51.59,0,0,0,1.48,8.43,15.75,15.75,0,0,1-.06,8.56l0.06,0.77a31,31,0,0,1,3,12.57,24.75,24.75,0,0,0,3.77,12.51,23.57,23.57,0,0,1,2.51,11.45l0.13,1.54c1.24,2.49,1.54,6.09.9,10.81a20,20,0,0,0,1.29,6.11q3,7.53,1.81,12.28,1.08,3.81,1.71,6.46a54.77,54.77,0,0,0,1.64,5.69c0.68,2,1.22,3.78,1.61,5.31a34.09,34.09,0,0,1,.84,5.37,9.68,9.68,0,0,1,.77,4.6,32.58,32.58,0,0,0,.06,5.44,13.59,13.59,0,0,0-.83,4,14.28,14.28,0,0,1-.83,4l0.32,3.86a16.57,16.57,0,0,1-2.76,4.12,44.07,44.07,0,0,1,2.77,5.21,7.45,7.45,0,0,0-1.86,5.6,25.22,25.22,0,0,0,1.29,6.11q1.86,3.74,0,9.33a14.85,14.85,0,0,0-.9,3.18A7,7,0,0,0,943.89,1319.42Zm77.58-436a32.5,32.5,0,0,1-5.41.49,9.36,9.36,0,0,1-3.5-.71c-1.3-.48-2.48-1-3.51-1.48a32.9,32.9,0,0,0-9.35-2.92,59.37,59.37,0,0,1-9.34-2.14,6.19,6.19,0,0,0-2.34-.73,5.83,5.83,0,0,1-2.34-.73,8.47,8.47,0,0,1-2.35-1.5,2.29,2.29,0,0,0-1.56-.74,3.12,3.12,0,0,1-2.34-.73,3.2,3.2,0,0,0-2.34-.73A9.52,9.52,0,0,1,970,867a21.49,21.49,0,0,0-5.54-6.09,18.67,18.67,0,0,0-5.6-8.8,18.44,18.44,0,0,1-5.59-8.8c-0.54-1-1.2-2.17-2-3.45a18.65,18.65,0,0,0-2.78-3.43,5.2,5.2,0,0,1-.46-3.48,3.72,3.72,0,0,0-1.23-3.46q-2.35-1.5-4-6.12a6.16,6.16,0,0,1-.46-3.86,6.36,6.36,0,0,0-.46-3.86q-0.06-3.09-1.59-2.29l-0.79-.76-2.5-9.25a24.9,24.9,0,0,1-1.67-6.17,3.48,3.48,0,0,1-.44-2.7c0.24-.78-0.16-1.67-1.21-2.69a0.68,0.68,0,0,1-.79-0.76,16.65,16.65,0,0,0-.94-8.5,68.27,68.27,0,0,1-2.49-8.47q-0.21-10.83-3.43-17a33.93,33.93,0,0,1-.9-6.57,35.33,35.33,0,0,0-.9-6.57,14.5,14.5,0,0,1-.87-4.63,12.55,12.55,0,0,0-1.65-5.39q-2.37-2.28-.09-4.65l0-.77L921.32,713a41.79,41.79,0,0,0-.5-5.8,9.71,9.71,0,0,1,1-5.83l0-.77a53.74,53.74,0,0,1-.95-8.89q-0.08-4.25-.16-8.13l-0.18-9.29a33.88,33.88,0,0,0-.49-5.41,27.17,27.17,0,0,1-.48-4.64c0-1.55.2-2.58,0.71-3.11a3.53,3.53,0,0,0-.85-3.86l0-.77,0-1.55a3.53,3.53,0,0,0,.7-3.89,14.55,14.55,0,0,1-.86-4.63,34.37,34.37,0,0,0-.92-7.34,12.25,12.25,0,0,1,.63-7.37,35.14,35.14,0,0,0,.65-6.6q-0.05-2.7-.11-5.81a2.54,2.54,0,0,0,.71-3.11,6.79,6.79,0,0,1-.84-3.08,11,11,0,0,0,.29-5,9.71,9.71,0,0,1,1-5.83c0.51,0,.76-0.79.73-2.34A24.84,24.84,0,0,0,921,596a6.2,6.2,0,0,1,.31-3.88,8.71,8.71,0,0,0,.7-3.89c-0.06-3.1.15-5.16,0.65-6.21a22.8,22.8,0,0,0,1.38-8.55A22.65,22.65,0,0,1,925.4,565l0-2.32,0-2.32a11.62,11.62,0,0,0,1-6.61,23.53,23.53,0,0,1,.24-7.36q1.45-4.68,2.92-9c1-2.85,1.94-5.85,2.92-9a4.52,4.52,0,0,0,.71-3.11,7.11,7.11,0,0,1-.09-4.65c0.48-1.56,1-3.12,1.46-4.68a14.45,14.45,0,0,1,.68-4.66,28.86,28.86,0,0,1,1.47-3.9,6.29,6.29,0,0,1,1.09-3.89,4,4,0,0,0,.31-3.88,5,5,0,0,1-.07-3.87,12.93,12.93,0,0,0,.7-3.89c0.49-1,1-2.21,1.48-3.52a9.66,9.66,0,0,0,.71-3.5,4.44,4.44,0,0,0,.33-3.11,4.31,4.31,0,0,1,.33-3.1,34.23,34.23,0,0,0,2.21-5.85,14.31,14.31,0,0,0-.13-6.58,11.73,11.73,0,0,0,2.54-8.57,18.31,18.31,0,0,1,1-8.54,12.5,12.5,0,0,0,1.44-5.45q1.42-6.22,2.85-12.84T954.3,418a4.51,4.51,0,0,0,.71-3.11,47.49,47.49,0,0,1,2.92-9.35q1.47-3.89,1.9-2c0.28,1.29.65,0.64,1.12-2,0-1-.29-1.16-0.78-0.37s-1,.67-1.56-0.36a2.61,2.61,0,0,1,1.12-2.35c0.76-.52.87-1.3,0.34-2.33,0-2.06.44-3.36,1.47-3.9q4.71,3,11.62-.23A5.06,5.06,0,0,1,977,392a10.69,10.69,0,0,0,4.66.68c1,0,1.41-.28,1.15-0.8s0.12-.26,1.18.75c1.56,0.49,3-.18,4.22-2s2.4-2.24,3.46-1.23c0.52,0.51,1.42.36,2.7-.44s1.92-.93,1.93-0.42c2.63,2.54,4,2.63,4.27.3s1.59-4.29,4.15-5.89q2.29-1.59,5.43.28c2.08,1.25,3.9,1.35,5.43.28a63.44,63.44,0,0,0,7.29-3.63,66.49,66.49,0,0,1,7.29-3.63l3.07-1.61a7,7,0,0,1,3.08-.83c1.54-.54,2.95-1.09,4.23-1.63s2.69-1.08,4.23-1.63l0.76-.79,7.71-1.7,7.72-1.7q3.85-.84,7.72-1.31t7.74-.54a45.74,45.74,0,0,1,10.87,1.34c5.17,0.94,8.82,2.15,10.92,3.66a1.57,1.57,0,0,1-.37,1.17,1.57,1.57,0,0,0-.36,1.17q0.14,7-4.47,9.38a10.31,10.31,0,0,0-2.67,2,8.72,8.72,0,0,1-3.45,2c-1.54.55-1.77,2.36-.67,5.44l0,0.77,0,0.77a20.47,20.47,0,0,1-2.69,1.21,7.73,7.73,0,0,0-2.67,2c-0.5,1.05-.71,3.11-0.65,6.21,0,2.07-.71,3.38-2.25,3.92a14.78,14.78,0,0,0-6.82,7.88c0,1.55-.47,2.33-1.5,2.35a26.14,26.14,0,0,0-3.81,3.17l-3,3.16a37.21,37.21,0,0,1-14.47,12.68c-0.52,0-.77.15-0.77,0.4s-0.26.39-.77,0.4a16.35,16.35,0,0,0-8.85,2.88,49,49,0,0,1-8,4.42c-2.06.56-3.85,1.12-5.39,1.65s-3.34,1.11-5.39,1.65a10.88,10.88,0,0,0-4.63.86,4.45,4.45,0,0,0-3.07,1.61,4.29,4.29,0,0,1-5.41.88q-2.37-2.28-3.84,1.62-3.78,5.5-2.92,9.35l0.06,3.1a13.46,13.46,0,0,0-.58,10.08,4.29,4.29,0,0,1-.69,4.27,4.25,4.25,0,0,0-.69,4.27,3.47,3.47,0,0,1-.36,1.56,3.36,3.36,0,0,0-.36,1.56A87.11,87.11,0,0,1,997,501.6l0,1.55a95.92,95.92,0,0,1,1,11.6,93.12,93.12,0,0,0,1,11.6,3.44,3.44,0,0,1-.36,1.56,3.38,3.38,0,0,0-.36,1.56,17.14,17.14,0,0,0,.46,3.48,18.44,18.44,0,0,1,.46,3.48,3.2,3.2,0,0,1,.82,2.31q-0.72,3.12-.56,10.86a19.31,19.31,0,0,1,2.49,8.47,6.16,6.16,0,0,0-.31,3.88,4.22,4.22,0,0,1-1.09,3.9,13.47,13.47,0,0,1-.62,7.76,10,10,0,0,0,.15,7.74c0.56,2.58,1.88,3.84,3.95,3.8a6.34,6.34,0,0,1,2.69-.83,4.23,4.23,0,0,0,2.68-1.6,6.32,6.32,0,0,1,2.69-.83,6.22,6.22,0,0,0,2.7-.83c1,0,1.54-.29,1.53-0.8a5.21,5.21,0,0,1,4.6-2.41,6.3,6.3,0,0,0,4.62-1.64,14,14,0,0,0,6.17-1.28,25.24,25.24,0,0,1,6.16-2.06c3.1-.06,5.14-0.61,6.16-1.67a13.06,13.06,0,0,1,5.78-1.66,8.85,8.85,0,0,0,5-1.65l0.76-.79,16.22-2.64c2-.55,3.85-1.1,5.39-1.65s3.33-1.09,5.39-1.65a29.58,29.58,0,0,0,6.15-2.44,8.24,8.24,0,0,1,7-.14l3.1-.06q3.85-.84,7.33-1.31a67.76,67.76,0,0,1,7.35-.53,13.51,13.51,0,0,1,10.08.58,8.34,8.34,0,0,0,2.7-.44,3.59,3.59,0,0,1,2.72.33,14.87,14.87,0,0,1,4.66.68,12,12,0,0,0-2.26,3.14c-0.5,1.05-1,2.09-1.49,3.13a58.05,58.05,0,0,1-3.39,4.71,27.86,27.86,0,0,0-3.38,5.49q-1.45,5.46-6.86,5.56a7.08,7.08,0,0,0-3.8,3.95l0,1.55a33,33,0,0,1-.62,7.76l-3,3.16a9.75,9.75,0,0,1-4.6,2.41l-0.76.79a5.42,5.42,0,0,1-.34,2.33,5.3,5.3,0,0,0-.34,2.33c-1.52,1.58-2.27,2.89-2.25,3.92a3.16,3.16,0,0,1-.73,2.34c-1,1.06-1.12,2-.33,2.72s0.68,1.67-.33,2.72a18.18,18.18,0,0,0-4.59,3.19l0,1.55a18.19,18.19,0,0,0-2.27,2.76,2.61,2.61,0,0,1-2.3,1.21q-3.85,1.64-8.37,7.91-7,.14-12.22,8.76a13.41,13.41,0,0,0-5.41.88,4.82,4.82,0,0,0-1.12,2,1.36,1.36,0,0,1-1.14,1.18,23.35,23.35,0,0,0-6.13,3.61,22.86,22.86,0,0,1-6.13,3.61c-1,1.06-1.91,1.47-2.69,1.21a1.77,1.77,0,0,0-1.93.43,11,11,0,0,1-6.16,1.67l-4.65.09a24.31,24.31,0,0,0-7.36-.24,65,65,0,0,1-7.35.53l-2.32,0q-1.52,2.35-3.44,2.39a4.82,4.82,0,0,0-3.45,1.62,6.73,6.73,0,0,1-3.45,2,6.81,6.81,0,0,0-3.45,2,12.46,12.46,0,0,0-3.79,4.33q-1.51,2.75.08,4.26c1,1,1.45,1.91,1.21,2.69a8.38,8.38,0,0,0-.33,2.72,23.33,23.33,0,0,0-.64,7,3,3,0,0,0,.43,1.93c0.26,0.26.14,0.91-.35,1.94q-2.32,0,0,2.32a6.36,6.36,0,0,1,1.25,4.62,9.39,9.39,0,0,0,.48,4.64c-1,1.06-1.26,2-.72,2.72a28.11,28.11,0,0,1,1.6,2.68,19.41,19.41,0,0,1,1.72,8.49,34.56,34.56,0,0,0,.49,5,36.66,36.66,0,0,1,.49,5c1,1,1.32,1.79.82,2.31q-1.52,2.35.08,3.87,0.91,7.74,1.45,14.69a103,103,0,0,0,2.22,14.67c0,2.07.32,3.36,0.85,3.86s0.81,1.8.85,3.86c-0.48,2.08-.59,3.5-0.3,4.27s0.69,2.44,1.26,5c0.55,2.06,1.1,3.85,1.65,5.39a17.42,17.42,0,0,1,.88,5.41,7.85,7.85,0,0,1,.84,3.47,4.77,4.77,0,0,0,1.62,3.45,34.88,34.88,0,0,1,2.44,5.76,32.27,32.27,0,0,0,2.44,5.76,2.8,2.8,0,0,1,.43,2.32q-0.38.79,1.21,2.3l1.61,3.07q0.81,2.31,2.49,8.47a16.24,16.24,0,0,0,3.93,3,3.86,3.86,0,0,1,2,.74c0.78,0.51,1.68.23,2.7-.83,0-.51.49-0.78,1.53-0.8a9.4,9.4,0,0,0,7,.25,45.22,45.22,0,0,1,6.93-2.07,249.15,249.15,0,0,0,29.34-5.22c2.57-.56,5-1,7.33-1.31s4.76-.73,7.33-1.3a44.34,44.34,0,0,0,6.93-2.07,45.24,45.24,0,0,1,6.93-2.07,1.37,1.37,0,0,0,1.52-1.58,12.13,12.13,0,0,1,3.05-2.38,31.63,31.63,0,0,1,3.84-1.62c0,2.59-.19,3.88-0.7,3.89-1,.54-2,1.86-3,3.93a28.62,28.62,0,0,1-3.38,5.49,27.83,27.83,0,0,0-3.38,5.49c-0.5,1.05-1.13,1.45-1.91,1.2s-1.43.16-1.91,1.2a16.83,16.83,0,0,1-5.31,5.91,20.17,20.17,0,0,0-5.32,5.14q-3,3.16-3,5.48c0,2.07-.71,3.38-2.25,3.92q-3.09.84-5.33,4.75a21.93,21.93,0,0,1-4.57,4c-0.52,0-1.79,1.08-3.81,3.17a45.39,45.39,0,0,0-4.53,6.29,6.9,6.9,0,0,0-6.54,2.06,55,55,0,0,1-5.71,5.15q-3,3.16-9.2,4.83a6.21,6.21,0,0,1-2.7.83,4.26,4.26,0,0,0-2.68,1.6c-1,1.06-3.07,1.61-6.16,1.67a13.51,13.51,0,0,1-4.24.86,4.81,4.81,0,0,0-3.45,1.62l-2.32,0A13.67,13.67,0,0,0,1021.48,883.42Zm200.4,423.64c-1,.61-1.91,2-2.76,4.12a28.57,28.57,0,0,1-3,5.69,27.8,27.8,0,0,0-3,5.69c-0.43,1.08-1,1.52-1.83,1.32s-1.41.25-1.83,1.32a16.84,16.84,0,0,1-4.92,6.24,20.18,20.18,0,0,0-5,5.47q-2.83,3.35-2.64,5.66c0.17,2.06-.49,3.42-2,4.05q-3,1-5,5.08a21.82,21.82,0,0,1-4.31,4.25c-0.52,0-1.72,1.19-3.6,3.41a45.21,45.21,0,0,0-4.11,6.56,6.89,6.89,0,0,0-6.4,2.48,54.81,54.81,0,0,1-5.37,5.5q-2.84,3.35-8.87,5.4a6.22,6.22,0,0,1-2.64,1,4.26,4.26,0,0,0-2.57,1.77c-0.95,1.12-3,1.8-6,2.06a13.46,13.46,0,0,1-4.18,1.13,4.82,4.82,0,0,0-3.34,1.83l-2.31.19a13.66,13.66,0,0,0-5.44.07,32.74,32.74,0,0,1-5.37.84,9.37,9.37,0,0,1-3.54-.48c-1.33-.4-2.53-0.82-3.6-1.25a33,33,0,0,0-9.52-2.31,59.3,59.3,0,0,1-9.46-1.54,6.14,6.14,0,0,0-2.38-.58,5.86,5.86,0,0,1-2.38-.58,8.44,8.44,0,0,1-2.44-1.35,2.3,2.3,0,0,0-1.61-.64,3.11,3.11,0,0,1-2.38-.58,3.2,3.2,0,0,0-2.38-.58,9.51,9.51,0,0,1-7.33-4.05,21.5,21.5,0,0,0-5.92-5.72,18.67,18.67,0,0,0-6.14-8.42,18.43,18.43,0,0,1-6.15-8.43c-0.6-1-1.34-2.09-2.22-3.31a18.61,18.61,0,0,0-3-3.25,5.19,5.19,0,0,1-.68-3.44,3.72,3.72,0,0,0-1.45-3.38q-2.45-1.34-4.38-5.85a6.16,6.16,0,0,1-.71-3.83,6.35,6.35,0,0,0-.71-3.83c-0.17-2.05-.75-2.78-1.74-2.19l-0.84-.71-3.09-9.07a24.82,24.82,0,0,1-2.06-6,3.47,3.47,0,0,1-.61-2.67c0.19-.79-0.27-1.65-1.38-2.61a0.68,0.68,0,0,1-.84-0.71,16.65,16.65,0,0,0-1.48-8.42,68.33,68.33,0,0,1-3-8.3q-0.9-10.8-4.51-16.72a34,34,0,0,1-1.32-6.5,35.18,35.18,0,0,0-1.32-6.5,14.54,14.54,0,0,1-1.16-4.57,12.54,12.54,0,0,0-2-5.27q-2.51-2.12-.39-4.63l-0.06-.77-1.29-15.44a41.69,41.69,0,0,0-.87-5.76,9.71,9.71,0,0,1,.67-5.89l-0.06-.77a53.6,53.6,0,0,1-1.51-8.81l-0.68-8.11-0.77-9.26a33.7,33.7,0,0,0-.84-5.37,27.46,27.46,0,0,1-.77-4.6c-0.13-1.54,0-2.59.51-3.15a3.53,3.53,0,0,0-1.09-3.79l-0.06-.77-0.13-1.54a3.53,3.53,0,0,0,.45-3.92,14.49,14.49,0,0,1-1.16-4.57,34.39,34.39,0,0,0-1.39-7.27,12.23,12.23,0,0,1,.16-7.4,35,35,0,0,0,.22-6.62l-0.48-5.79a2.54,2.54,0,0,0,.52-3.15,6.78,6.78,0,0,1-1-3,11,11,0,0,0,0-5,9.71,9.71,0,0,1,.67-5.89c0.51,0,.71-0.84.58-2.38a25,25,0,0,0-.71-3.83,6.18,6.18,0,0,1,.06-3.89,8.73,8.73,0,0,0,.45-3.92c-0.26-3.09-.18-5.16.26-6.24a22.79,22.79,0,0,0,.83-8.62,22.6,22.6,0,0,1,.83-8.62l-0.19-2.32-0.19-2.31a11.63,11.63,0,0,0,.61-6.66,23.6,23.6,0,0,1-.23-7.36q1.15-4.76,2.35-9.13c0.79-2.91,1.57-6,2.35-9.13a4.52,4.52,0,0,0,.51-3.15,7.12,7.12,0,0,1-.39-4.63c0.38-1.59.77-3.17,1.16-4.76a14.51,14.51,0,0,1,.39-4.7,28.79,28.79,0,0,1,1.22-4,6.29,6.29,0,0,1,.83-4,4,4,0,0,0,.06-3.89,5,5,0,0,1-.32-3.86,12.93,12.93,0,0,0,.45-3.92c0.42-1.07.84-2.27,1.25-3.6a9.61,9.61,0,0,0,.48-3.54,4.42,4.42,0,0,0,.13-3.12,4.31,4.31,0,0,1,.13-3.12,34.12,34.12,0,0,0,1.83-6,14.28,14.28,0,0,0-.55-6.56,11.73,11.73,0,0,0,2-8.72,18.31,18.31,0,0,1,.45-8.59,12.51,12.51,0,0,0,1.09-5.53q1-6.3,2-13t2-13a4.52,4.52,0,0,0,.51-3.15,47.45,47.45,0,0,1,2.31-9.52c0.81-2.65,1.4-3.35,1.77-2.09s0.69,0.6,1-2c-0.09-1-.36-1.14-0.81-0.32s-1,.74-1.58-0.26a2.62,2.62,0,0,1,1-2.41c0.73-.57.79-1.35,0.19-2.35-0.17-2,.23-3.38,1.22-4q4.89,2.71,11.58-1a5.07,5.07,0,0,1,3.86-.32,10.71,10.71,0,0,0,4.69.38c1-.09,1.39-0.37,1.09-0.87s0.1-.26,1.22.67q2.38,0.59,4.09-2.28t3.38-1.45c0.55,0.48,1.44.27,2.67-.61s1.85-1.05,1.9-.55c2.78,2.37,4.21,2.37,4.28,0s1.31-4.38,3.76-6.14q2.19-1.73,5.43-.07c2.16,1.12,4,1.1,5.43-.07a63.34,63.34,0,0,0,7-4.09,66.42,66.42,0,0,1,7-4.09l3-1.8a6.94,6.94,0,0,1,3-1c1.5-.64,2.87-1.27,4.12-1.9s2.61-1.25,4.11-1.9l0.71-.84,7.59-2.19,7.59-2.19q3.79-1.08,7.62-1.8t7.69-1a45.75,45.75,0,0,1,10.93.64c5.22,0.61,8.94,1.58,11.13,3a1.58,1.58,0,0,1-.29,1.19,1.57,1.57,0,0,0-.29,1.19q0.58,6.95-3.86,9.65a10.28,10.28,0,0,0-2.54,2.16,8.73,8.73,0,0,1-3.31,2.22c-1.5.65-1.62,2.47-.32,5.47l0.06,0.77,0.06,0.77a20.5,20.5,0,0,1-2.6,1.38,7.73,7.73,0,0,0-2.54,2.16c-0.43,1.08-.52,3.15-0.26,6.24,0.17,2.06-.49,3.42-2,4.05a14.78,14.78,0,0,0-6.3,8.3c0.13,1.54-.32,2.36-1.35,2.44a25.89,25.89,0,0,0-3.6,3.41l-2.83,3.35a37.2,37.2,0,0,1-13.63,13.57c-0.52,0-.76.2-0.74,0.45s-0.23.41-.74,0.45a16.36,16.36,0,0,0-8.65,3.44,48.93,48.93,0,0,1-7.75,4.92c-2,.69-3.77,1.36-5.27,2s-3.27,1.32-5.27,2a10.88,10.88,0,0,0-4.57,1.16,4.45,4.45,0,0,0-3,1.8,4.29,4.29,0,0,1-5.34,1.22q-2.51-2.12-3.73,1.87-3.42,5.73-2.31,9.52l0.26,3.09a13.45,13.45,0,0,0,.07,10.1,4.3,4.3,0,0,1-.42,4.31,4.25,4.25,0,0,0-.42,4.31,3.44,3.44,0,0,1-.26,1.58,3.39,3.39,0,0,0-.26,1.58,86.82,86.82,0,0,1,1.35,16.21l0.13,1.54a95.52,95.52,0,0,1,1.74,11.51,93,93,0,0,0,1.74,11.51,3.46,3.46,0,0,1-.26,1.58,3.36,3.36,0,0,0-.26,1.58,17.17,17.17,0,0,0,.68,3.44,18.39,18.39,0,0,1,.68,3.44,3.2,3.2,0,0,1,1,2.25q-0.52,3.16.13,10.87a19.3,19.3,0,0,1,3,8.3,6.18,6.18,0,0,0-.06,3.89,4.21,4.21,0,0,1-.84,4,13.48,13.48,0,0,1-.13,7.78,10,10,0,0,0,.65,7.72c0.72,2.54,2.12,3.71,4.18,3.54a6.35,6.35,0,0,1,2.64-1,4.22,4.22,0,0,0,2.57-1.77,6.34,6.34,0,0,1,2.64-1,6.21,6.21,0,0,0,2.64-1c1-.09,1.52-0.38,1.48-0.9a5.21,5.21,0,0,1,4.44-2.7,6.3,6.3,0,0,0,4.5-1.93,14,14,0,0,0,6.08-1.67,25.21,25.21,0,0,1,6-2.44c3.09-.26,5.09-0.94,6-2.06a13.06,13.06,0,0,1,5.66-2,8.85,8.85,0,0,0,4.89-2l0.71-.84,16-3.67c2-.68,3.77-1.35,5.27-2s3.26-1.3,5.27-2a29.67,29.67,0,0,0,6-2.83,8.23,8.23,0,0,1,6.95-.58l3.09-.26q3.79-1.08,7.24-1.77a67.9,67.9,0,0,1,7.3-1,13.51,13.51,0,0,1,10.1-.07,8.35,8.35,0,0,0,2.67-.61,3.59,3.59,0,0,1,2.73.16,14.84,14.84,0,0,1,4.7.38,12,12,0,0,0-2.06,3.28c-0.43,1.08-.87,2.15-1.29,3.22q-1.36,2.44-3.09,4.92a27.91,27.91,0,0,0-3,5.69q-1.1,5.54-6.5,6a7.08,7.08,0,0,0-3.54,4.18l0.13,1.54a33,33,0,0,1-.13,7.78l-2.83,3.35a9.76,9.76,0,0,1-4.44,2.7l-0.71.84a5.41,5.41,0,0,1-.19,2.35,5.3,5.3,0,0,0-.19,2.35c-1.41,1.67-2.08,3-2,4.05a3.17,3.17,0,0,1-.58,2.38c-1,1.12-1,2-.16,2.73s0.78,1.62-.16,2.73a18.19,18.19,0,0,0-4.37,3.48l0.13,1.54a18.26,18.26,0,0,0-2.09,2.89,2.61,2.61,0,0,1-2.22,1.35q-3.74,1.88-7.85,8.43-6.95.58-11.64,9.52a13.38,13.38,0,0,0-5.34,1.22,4.81,4.81,0,0,0-1,2,1.36,1.36,0,0,1-1.06,1.25,23.35,23.35,0,0,0-5.88,4,22.88,22.88,0,0,1-5.88,4c-1,1.12-1.81,1.58-2.6,1.38a1.78,1.78,0,0,0-1.9.55,10.94,10.94,0,0,1-6,2.06l-4.63.39a24.38,24.38,0,0,0-7.36.23,64.38,64.38,0,0,1-7.3,1l-2.32.19q-1.36,2.44-3.28,2.61a4.82,4.82,0,0,0-3.34,1.83,6.72,6.72,0,0,1-3.31,2.22,6.8,6.8,0,0,0-3.31,2.22,12.47,12.47,0,0,0-3.5,4.57c-0.89,1.9-.77,3.31.35,4.24s1.57,1.81,1.38,2.61a8.37,8.37,0,0,0-.16,2.73,23.32,23.32,0,0,0-.19,7,3,3,0,0,0,.55,1.9c0.28,0.24.2,0.89-.23,2q-2.32.19,0.19,2.32a6.36,6.36,0,0,1,1.54,4.53,9.4,9.4,0,0,0,.77,4.6c-1,1.12-1.13,2-.55,2.77a28.27,28.27,0,0,1,1.77,2.57,19.41,19.41,0,0,1,2.25,8.36,34.53,34.53,0,0,0,.81,5,36.55,36.55,0,0,1,.8,5c1.11,1,1.43,1.7,1,2.25-0.91,1.63-.8,2.92.32,3.86q1.41,7.66,2.38,14.57a103.18,103.18,0,0,0,3.16,14.5c0.17,2.06.53,3.33,1.09,3.8s0.92,1.74,1.09,3.79c-0.35,2.11-.36,3.53,0,4.28s0.84,2.39,1.58,4.92c0.68,2,1.35,3.77,2,5.27a17.48,17.48,0,0,1,1.22,5.34,7.83,7.83,0,0,1,1.06,3.41,4.77,4.77,0,0,0,1.83,3.34,35,35,0,0,1,2.8,5.6,32.3,32.3,0,0,0,2.8,5.6,2.8,2.8,0,0,1,.58,2.28q-0.33.81,1.35,2.22l1.8,3q1,2.25,3,8.3a16.27,16.27,0,0,0,4.12,2.76,3.86,3.86,0,0,1,2,.61c0.81,0.45,1.69.13,2.64-1,0-.51.44-0.81,1.48-0.9a9.41,9.41,0,0,0,7-.2,45,45,0,0,1,6.79-2.51,249.24,249.24,0,0,0,28.94-7.08q3.79-1.08,7.24-1.77c2.29-.45,4.7-1,7.24-1.77a44.26,44.26,0,0,0,6.78-2.51,44.93,44.93,0,0,1,6.78-2.51,1.37,1.37,0,0,0,1.41-1.67,12.12,12.12,0,0,1,2.89-2.57,31.48,31.48,0,0,1,3.73-1.87C1222.54,1305.72,1222.38,1307,1221.88,1307.06Zm60.59-426.79q-2.31.83-7-.64c-1.55,0-2.34-1-2.38-3.05-1.09-2.56-2.4-4.08-4-4.57a7,7,0,0,1-3.95-3.8q-1.64-3.84-3.24-7.3c-1.09-2.3-2.16-4.73-3.24-7.3-0.55-1.54-1.1-2.94-1.63-4.23s-0.32-3,.67-5c1-1,1.13-1.69.35-1.94a4.71,4.71,0,0,1-2-1.12l-0.12-6.19a5.51,5.51,0,0,0-4-5.34q-3.9-.69-0.85-3.86c1.5-2.61,1.19-4.67-.9-6.18l-1.56-.75-0.79-.76c0-.51.11-0.78,0.37-0.78s0.38-.26.37-0.78a4.3,4.3,0,0,0-.88-5.4q-3.12-.7-1.64-4.62c0.49-1,.2-2.58-0.87-4.63-1.6-2.55-1.91-4.61-.9-6.18a3.21,3.21,0,0,0-.82-2.31,2.29,2.29,0,0,0-.81-1.53,2.2,2.2,0,0,1-.81-1.53,18,18,0,0,0-1.69-7.33,17.74,17.74,0,0,1-1.69-7.33,78.71,78.71,0,0,0-5.16-26.24,40.05,40.05,0,0,1-2.49-8.47,51.5,51.5,0,0,1-.94-8.5,38.26,38.26,0,0,0-1.34-9.27,67.49,67.49,0,0,0-2.88-8.47,8.7,8.7,0,0,0-.44-2.7,8.38,8.38,0,0,1-.44-2.7,8.58,8.58,0,0,1-.85-3.86,8.78,8.78,0,0,0-.85-3.86,6.77,6.77,0,0,1-.84-3.08,7,7,0,0,0-.83-3.08,5.79,5.79,0,0,1-.82-2.31,6.19,6.19,0,0,0-.82-2.31,11.68,11.68,0,0,1-1.64-4.62,57.35,57.35,0,0,0-1-9.28,62.14,62.14,0,0,0-2.5-9.25,23.84,23.84,0,0,0-.91-7,10.93,10.93,0,0,0-.87-4.63,40.86,40.86,0,0,1-2.48-8.09,21.34,21.34,0,0,1-.16-8.13,3.2,3.2,0,0,0-.82-2.31,27.79,27.79,0,0,1-2.08-7.32A64.72,64.72,0,0,1,1207,623c-0.53-.5-0.67-0.88-0.41-1.15s0.11-.64-0.41-1.15a15.56,15.56,0,0,1-2.48-8.09,42.09,42.09,0,0,0-.93-8.12,15.74,15.74,0,0,1-.87-5,24.54,24.54,0,0,0-.89-5.79l-2.46-6.92a3.54,3.54,0,0,0-.42-1.54,3.29,3.29,0,0,1-.42-1.54q-0.87-4.63-1.73-9.26a18.92,18.92,0,0,1,.59-9.31c0.5-.52.22-1.81-0.85-3.86q-3.19-4.59-1.82-13.91a1.94,1.94,0,0,0-.06-3.1q-3.2-4.59-.93-7.73c1.51-2.09,1.19-4.67-.93-7.73a14.74,14.74,0,0,1-3.64-7.68q-0.47-3.86-1.31-7.72a52.15,52.15,0,0,1-2.15-10.8,54.13,54.13,0,0,0-2.15-10.8,6.92,6.92,0,0,1-1.26-5,15.31,15.31,0,0,0-.5-5.8l0-2.32a8.82,8.82,0,0,1-1.65-5,24.45,24.45,0,0,0-.89-5.79,4.07,4.07,0,0,1-.07-3.48,4.16,4.16,0,0,0-.07-3.49,7,7,0,0,0-1.23-3.46,6.9,6.9,0,0,1-1.23-3.46,26.93,26.93,0,0,1,1.38-8.55,12.44,12.44,0,0,1,.33-3.1,4.44,4.44,0,0,0-.45-3.09q-1.71-7.7-.23-11.62a14.1,14.1,0,0,0-2.52-10,11,11,0,0,1-1.67-6.17l-0.17-8.52c-0.08-4.13,0-8.25.15-12.4s0.23-8.26.15-12.4l0-2.32a11.38,11.38,0,0,1-.54-7.74,26.81,26.81,0,0,0,1-7.77q13.08-4.12,22.5,1.89a78.11,78.11,0,0,1,7.12,7.61c0.52,0.51.81,1.8,0.85,3.86-0.47,2.6-.15,6.2,1,10.83a4.54,4.54,0,0,1,.84,3.08,9.39,9.39,0,0,0-.3,4.65,24.84,24.84,0,0,1,.46,3.86,65.81,65.81,0,0,1,1.78,11.59,6.69,6.69,0,0,0,2.41,4.6,3.13,3.13,0,0,1,1.61,3.07,5.36,5.36,0,0,1,.46,3.48,5.2,5.2,0,0,0,.46,3.48l0.11,5.42a76.64,76.64,0,0,1,2.87,8.08c0.83,2.83,1.78,5.78,2.89,8.85l0.11,5.42a7.34,7.34,0,0,0,3.22,6.13,4.54,4.54,0,0,1,.83,3.08,14.85,14.85,0,0,1,.87,4.63,8.25,8.25,0,0,0,1.64,4.62,8.36,8.36,0,0,1,.93,7.73c-1,1.06-.74,2.08.83,3.08a9.86,9.86,0,0,1,2.4,3.83,9.53,9.53,0,0,0,2.4,3.83,3.2,3.2,0,0,1,.82,2.31c0.55,2.06,1,3.85,1.27,5.4a11.71,11.71,0,0,0,2,4.61,4.49,4.49,0,0,1,1.61,3.07,6.79,6.79,0,0,0,.84,3.08q1.69,7.72,2.53,10.8a1.53,1.53,0,0,0,.41,1.15,1.62,1.62,0,0,1,.41,1.15c1.07,2,1.35,3.34.85,3.86l-0.76.79a7.05,7.05,0,0,1,1.26,5,6.92,6.92,0,0,0,1.26,5c1.58,1.52,1.61,3.33.11,5.42q-0.76.8,0.86,4.63a27.6,27.6,0,0,1,5.62,10l-2.28,2.37q0.09,4.65,2.46,6.92l4.74,4.56q3.94,3.81,4,7.67a5.24,5.24,0,0,0,.43,2.32,5.47,5.47,0,0,1,.43,2.32q1.63,4.62.14,7l0,1.55a24.46,24.46,0,0,1,.89,5.79,23.67,23.67,0,0,0,.89,5.79,7.41,7.41,0,0,0,4.77,6.1c2.08,1,2.88,2.27,2.4,3.83q0,1.56.07,3.48t-2.26,3.53a0.69,0.69,0,0,1-.76.79,7.62,7.62,0,0,1-3.74,7,2.18,2.18,0,0,0-.75,1.18,2.16,2.16,0,0,1-.75,1.18c1.6,2.56,3.42,3.81,5.5,3.77,2.58,0,4.15,1,4.71,3a4.41,4.41,0,0,0,1.61,3.07l0.79,0.76a49,49,0,0,1,3.28,9.23c0.53,1,1.07,2,1.61,3.07a11.58,11.58,0,0,0,2.38,3.05q4.75,5.34,3.37,13.88l0,1.55a13.14,13.14,0,0,1,1.66,5.78q0.05,2.72.11,5.81a43.61,43.61,0,0,0,2.07,6.93,46,46,0,0,1,2.07,6.93,2.29,2.29,0,0,1,.8,1.53q-5.37,3.21.14,7a11.43,11.43,0,0,1,4,5.34,19.61,19.61,0,0,1,2,5.77,18.7,18.7,0,0,0,2,5.77l0.07,3.87q3.17,4.59,6.39,9.95a4.54,4.54,0,0,1,.84,3.08c-1,2.09-1.09,3.9-.28,5.43a36.11,36.11,0,0,1,2,4.61c0.52,0.51.81,1.8,0.85,3.86l0.07,3.87q3.24,7.69,6.39,9.95c2.09,1.51,3.89,1,5.39-1.65q3.74-6.26,6.73-12.53t6.73-12.53a43.17,43.17,0,0,0,3.71-8.59,70.46,70.46,0,0,1,3.69-9.37l9-16.44a4.45,4.45,0,0,0,1.49-3.13q1.44-5.44,2.89-10.51t2.89-10.51a75.26,75.26,0,0,0,2.55-8.18,74.2,74.2,0,0,1,2.55-8.18,39.92,39.92,0,0,1,3.73-7.43,40.12,40.12,0,0,0,3.73-7.43,64.42,64.42,0,0,0,2.59-6.25,63.92,63.92,0,0,1,2.59-6.25,5.35,5.35,0,0,0,.32-3.49,17.26,17.26,0,0,1-.46-3.48,17,17,0,0,1,.67-5.44,14.85,14.85,0,0,0,.68-4.66,8.27,8.27,0,0,1,1.46-4.68,6.82,6.82,0,0,0,1.87-3.52,6.72,6.72,0,0,1,1.87-3.52,2.24,2.24,0,0,0,.74-1.56,12,12,0,0,1,3.73-7.43q3-2.77,6.86-5.94c0-.51,1.78-1.32,5.38-2.43,3.09-.57,4.33-2.66,3.75-6.27l11.52-4.87q3.06-1.6,9.29-.18a2.09,2.09,0,0,0,1.18.75,2.25,2.25,0,0,1,1.18.75q6.24,2.2,10.75-4.86,5.45,2.22,6.33,6.85a40,40,0,0,1,1.25,4.24,34.1,34.1,0,0,0,1.24,4.24,11,11,0,0,1,.86,4.63,6.38,6.38,0,0,1,.83,2.69,6.15,6.15,0,0,0,.83,2.7l0,1.55a41.69,41.69,0,0,1-.59,9.31,30.65,30.65,0,0,1,2.77,3,2.79,2.79,0,0,1,.45,3.09l0,2.32a3.19,3.19,0,0,0-1.1,3.12,13.07,13.07,0,0,1,.45,3.09c1.06,1.53,1.63,4.11,1.7,7.71a33.47,33.47,0,0,0,.92,7.34,13.37,13.37,0,0,0,4,6.51,11.59,11.59,0,0,0,2.38,3.05q1.57,1.53.09,4.65c-0.52,0,0,.77,1.59,2.29,0.53,1,1.07,2,1.61,3.07a8.75,8.75,0,0,1,.85,3.86l0,1.55q3.16,3.82,1.75,10,3.09-.06,4.74,4.56a7,7,0,0,1,.83,3.08,6.82,6.82,0,0,0,.84,3.08,33.35,33.35,0,0,0,4,6.89,13.72,13.72,0,0,0,3.95,3.8,4.41,4.41,0,0,0,3.13,1.49,3,3,0,0,0,2.26-3.14,23.76,23.76,0,0,0,.64-7l-0.09-4.65a22.1,22.1,0,0,0-.47-4.25,21.12,21.12,0,0,1-.47-4.25l0-2.32q-0.12-6.19-.23-11.62a93.22,93.22,0,0,1,.55-11.63q-0.14-7,.11-13.95t0.91-13.19q0.69-3.88,1.41-7t1.41-7l-0.17-8.52q0.69-3.88,1.42-6.61t1.42-6.61a13.29,13.29,0,0,1,.67-5.44q-0.08-3.87-.17-8.52a56,56,0,0,1,.59-9.31q0.66-5.42,1.34-10.87a111.63,111.63,0,0,1,2.1-11.66,30.11,30.11,0,0,0,1.06-5.06,11.9,11.9,0,0,1,1.84-5.07l0-1.55a5.61,5.61,0,0,1-1.24-4.24,18.22,18.22,0,0,0,.32-3.49,72.87,72.87,0,0,0,.58-10.08,70.72,70.72,0,0,1,.58-10.08c-0.06-3.1,0-6.32.2-9.69s0.51-6.85,1-10.48q1.33-10.87,3.06-22.14T1507,435.1q1.39-7.76,2.42-14.77a120.31,120.31,0,0,1,3.2-14.78,152.31,152.31,0,0,1,11-29.65l4.51-7.06a8.35,8.35,0,0,0,2.2-6.24q-0.15-7.73,6.73-12.53a4.19,4.19,0,0,0,1.91-1.59,4.19,4.19,0,0,1,1.91-1.59,4.3,4.3,0,0,1,5.41-.88,2.08,2.08,0,0,0,1.18.75,2.25,2.25,0,0,1,1.18.75l9.43,6.79a4.35,4.35,0,0,1,2,1.51,4,4,0,0,0,2,1.51c1.6,2.56,3.93,3,7,1.41q3.84-1.62,5.45,1.44c0.52,0.51,1.82.74,3.89,0.7,2.07,0.48,2.87,1.76,2.4,3.83-1,1.06-1.39,2-1.11,2.73a8.71,8.71,0,0,1,.44,2.7,43.88,43.88,0,0,1,2.43,5.38,20.37,20.37,0,0,1,.9,6.18l0,0.77a14.1,14.1,0,0,1,2.52,10c-0.51.53-.23,1.82,0.85,3.86a10.64,10.64,0,0,1,.91,7,5.21,5.21,0,0,0,.43,2.32,5.48,5.48,0,0,1,.43,2.32c0.54,1.54,1.08,3,1.63,4.23s1.08,2.69,1.63,4.23c-4.14.08-7-.12-8.53-0.61q0.12,6.21,3.23,6.91a13,13,0,0,0,3.91,1.86c1,0.25,1.83,1.13,2.38,2.67a17.27,17.27,0,0,0,.46,3.48,3.69,3.69,0,0,1-1.09,3.51c-1,1.06-1.39,2-1.11,2.73s-0.1,1.68-1.11,2.73l-3,3.16q-4.56,4.74.15,7.74c0.51,0,1.29.5,2.35,1.5a40.74,40.74,0,0,0-2.22,5.47,6.81,6.81,0,0,0-.74,2,7,7,0,0,1-.74,2,35.65,35.65,0,0,0-.64,7,36.59,36.59,0,0,1-.64,7,4.46,4.46,0,0,1-1.49,3.13,42.21,42.21,0,0,0-1.38,8.55,34.83,34.83,0,0,0-1.08,4.28,5.7,5.7,0,0,1-2.64,3.54q-1.53,1.59-3,7a27.36,27.36,0,0,0,.48,4.64,33.86,33.86,0,0,1,.49,5.41,12.83,12.83,0,0,1-.33,3.11,12.44,12.44,0,0,0-.33,3.1l0,1.55q0.12,6.21-3.57,15.56a12,12,0,0,0-2.26,3.14,1.58,1.58,0,0,1-.36,1.17,1.56,1.56,0,0,0-.36,1.17,17.37,17.37,0,0,1-.67,5.44,31.35,31.35,0,0,1-1.47,3.9l0.06,3.1a39.93,39.93,0,0,0,.5,5.8,41.8,41.8,0,0,1,.5,5.8c0.06,3.1-.68,4.93-2.22,5.47l-1.52,1.58a41.51,41.51,0,0,1-2.16,8.56,15.52,15.52,0,0,0-.61,8.53,4.18,4.18,0,0,1,.07,3.49,11.31,11.31,0,0,0-.69,4.27,22.51,22.51,0,0,0,.88,5.41c0.55,2.06,1.11,4.12,1.67,6.16q0.09,4.65.18,9.29a57.15,57.15,0,0,1-.59,9.31,5.36,5.36,0,0,1-.34,2.33,3.38,3.38,0,0,0-.36,1.56,1.58,1.58,0,0,1-.37,1.17,1.57,1.57,0,0,0-.37,1.17q1.62,3.85-1.31,12.42c-1,3.12-1.7,5.72-2.17,7.79,0,1.55.31,2.58,0.84,3.08a12.11,12.11,0,0,1,.17,8.52,3.85,3.85,0,0,0,.09,4.65l0.06,3.1a32.27,32.27,0,0,0,.93,7.73l0.12,6.2a11.47,11.47,0,0,0,.2,10.07l0.06,3.1a5.24,5.24,0,0,0-1.47,3.9,5.26,5.26,0,0,1-1.47,3.9l-0.74,1.56a36.73,36.73,0,0,1,.91,7,35.54,35.54,0,0,0,.91,7,17.9,17.9,0,0,1-3.83,2.4q2.4,3.84,3.35,12.72T1557.28,751a16.76,16.76,0,0,1,3.17,3.81,25.63,25.63,0,0,1,1.7,7.71l0.12,6.2a8.53,8.53,0,0,0,.85,3.86,29.41,29.41,0,0,1,2.09,8.09q0.46,4.26.56,8.9-1.45,5.46,1.72,8.49a2.81,2.81,0,0,1,.43,2.31,5.28,5.28,0,0,0-.34,2.33,8.77,8.77,0,0,1,.85,3.86l0,2.32a69,69,0,0,0-3.59,14.79,20.65,20.65,0,0,0-1.11,2.73,3.55,3.55,0,0,1-1.9,2,1.37,1.37,0,0,0-1.52,1.58,6.31,6.31,0,0,1-1.46,4.68l-3,3.16a9.63,9.63,0,0,0-3,7,3.52,3.52,0,0,1-.7,3.89c0,0.52-.12.78-0.37,0.78s-0.38.27-.37,0.78l0,0.77a3.12,3.12,0,0,0-3.07,1.61,12.14,12.14,0,0,1-2.26,3.14q-3.81,4-10,2.52-5.44-.66-9.2,4.83a2.24,2.24,0,0,0-.74,1.56,27.5,27.5,0,0,1-5.49-3.38,29,29,0,0,0-5.49-3.38,4.19,4.19,0,0,1-1.51,2,2,2,0,0,0-.74,2q-3.72,8.61-11.49,6.42l0-2.32-0.79-.76a6.42,6.42,0,0,1-6.22-1.43,44.35,44.35,0,0,1-6.3-5.3c-1.56-.48-2.37-2.28-2.43-5.38q0.7-3.1-3.24-6.91-1.57-.73-3.19-4.59-0.06-3.09-4.74-4.56a2.29,2.29,0,0,0-1.56-.74,2.19,2.19,0,0,1-1.56-.74q-2.34-.72-2.37-2.28a14.51,14.51,0,0,1-.86-4.63,14.85,14.85,0,0,0-.86-4.63c-0.05-2.58-.6-4.12-1.64-4.62q-3.94-3-5.62-10a24.2,24.2,0,0,0-3.26-8.46l-4.8-7.65q-2.4-3.82-5.18-7.65c-1.87-2.54-3.59-5.09-5.19-7.64a3.11,3.11,0,0,1-.82-2.31l0-1.55a69,69,0,0,1-6.38-9.17,5.84,5.84,0,0,1-.82-2.31,2.28,2.28,0,0,0-.81-1.53,11,11,0,0,0-.86-4.63,14.47,14.47,0,0,1-2.79-3.82,15,15,0,0,0-2.79-3.82c-1.06-1-1.58-1.77-1.59-2.29q-3.26-7.67-6.39-9.95a6.29,6.29,0,0,0-1.24-3.85,30.83,30.83,0,0,0-2.77-3q-4.72-3.77-3.29-10l0-1.55c-1.57-1-3-2-4.32-3a39.14,39.14,0,0,1-3.55-3c-1.06-1-2.34-.73-3.86.85a16.25,16.25,0,0,0-5.25,8.62,35,35,0,0,1-3,6.25c-1,1.57-2.26,3.41-3.77,5.5a20.06,20.06,0,0,1-1.88,3.14,4,4,0,0,0-.31,3.88c0,1-.24,1.55-0.74,1.56a26.35,26.35,0,0,0-3,7,56,56,0,0,1-2.19,7l0,1.55a17.19,17.19,0,0,0-2.91,9.74,59.8,59.8,0,0,1-.58,9.69,25.6,25.6,0,0,1-1.4,7.77,30.41,30.41,0,0,0-3.66,10.92,15,15,0,0,0-1.1,3.12,6.88,6.88,0,0,1-1.87,3.14q-3,3.16-1.43,6.22a4.17,4.17,0,0,1,.07,3.48,9.47,9.47,0,0,0-.71,3.5,6.84,6.84,0,0,0-.71,3.11l0,1.55a5.75,5.75,0,0,0-1.84,5.07,7,7,0,0,1-1.06,5.06q0.87,5.41-4.43,10.93a2.24,2.24,0,0,1-.74,1.56l0.14,7a5.55,5.55,0,0,1-3,5.48,10.7,10.7,0,0,0-4.56,4.35c-1,1.84-2,3.53-3,5.09a1.25,1.25,0,0,0-1.15.8,1.25,1.25,0,0,1-1.15.8,11.72,11.72,0,0,1-4.61,2,12.13,12.13,0,0,0-4.61,2,3.85,3.85,0,0,1-4.65.09q-6.22-.64-9.23,3.28-0.72,3.12-5.36,3.2a25.46,25.46,0,0,0-6.16,1.67,41.67,41.67,0,0,0-9.28,1l-3.1.06a15,15,0,0,1-7.34,1.31A67.58,67.58,0,0,0,1282.47,880.27Zm262,282.86a4.37,4.37,0,0,1-.64,1.61c-0.24.29-.29,1.19-0.16,2.73q0.39,4.63-1,7.07a26.13,26.13,0,0,0-2,13.38q-0.52,3.16-1.41,11a7.68,7.68,0,0,0-.48,3.54,13.78,13.78,0,0,1-.42,4.31l-1.54,9.46a53.36,53.36,0,0,0-1.73,7.14q-0.52,3.16-1,7.08a44.11,44.11,0,0,1-3.53,13.51q-0.71.84-1.86,5.6l0.19,2.31a37.87,37.87,0,0,0-3.34,11.16q-0.7,5.51-1.73,11.8a0.69,0.69,0,0,1-.71.84,11.91,11.91,0,0,0-1.51,5.18,30.17,30.17,0,0,1-.74,5.11c-0.86,2.15-1.6,4.15-2.22,6s-1.34,4.13-2.15,6.79a70.44,70.44,0,0,1-5.4,9.78,4.56,4.56,0,0,0-2,4.05,30,30,0,0,1-6,11.39l-1.48.9q-1.23,4-3.08,4.92a38.9,38.9,0,0,1-4.89,2,2.24,2.24,0,0,1-1.48.9,2.24,2.24,0,0,0-1.48.9q-3.61,3.42-6.88,6t-6.95,5.24a2.24,2.24,0,0,1-1.48.9,14.18,14.18,0,0,0-6.3,3.64,49.14,49.14,0,0,1-6.17,5.18,12.61,12.61,0,0,1-9.07,3.09,23.79,23.79,0,0,0-7-.19,5.37,5.37,0,0,1-5.53-1.09q-3.54-5.13-6.24-.26a11.82,11.82,0,0,1-8.17,4.57,3.17,3.17,0,0,0-2.25,1,23.39,23.39,0,0,1-8.49.71,11,11,0,0,0-4.69-.38c-2.15-.85-3.52-1.77-4.12-2.76q-4.26-4.31-6.95.58c0.09,1-.14,1.57-0.64,1.61a26.69,26.69,0,0,0-5.24,2.38,26.24,26.24,0,0,1-5.24,2.38q-4.5,1.94-7.14-1.74a6.68,6.68,0,0,0-1.64-1,5.7,5.7,0,0,1-1.64-1q-2.38-.57-2.51-2.12-1.1-3.79-5.73-3.41a1.54,1.54,0,0,1-1.19-.29,1.62,1.62,0,0,0-1.19-.29l-0.84-.71q0.18-7-6.95-8.75l-3.09.26a19.4,19.4,0,0,0-8.62-.83q-2.12,2.51-3.86.32a12.23,12.23,0,0,0-5.18-1.51,27.84,27.84,0,0,1-5.11-.74,4.54,4.54,0,0,0-3.15-.51,27.78,27.78,0,0,1-2.57-7.56,29,29,0,0,0-2.58-7.56,2.23,2.23,0,0,1,.64-1.61q1-6.3-6.31-10.35l-4.83-1.93q-6.44-2.56-7.53-6.37a13.16,13.16,0,0,1,.83-8.62,23.94,23.94,0,0,0,1.41-11,75.39,75.39,0,0,0-.78-18.59q-1.55-9.2-2.32-18.46,0.24-6.23.19-11.67t-0.52-10.84a3,3,0,0,1,.23-2,3.08,3.08,0,0,0,.22-2l-3.1-37a150.67,150.67,0,0,1-3.16-23.83q-0.59-11.61-2.39-23.9-0.52-6.17-1.45-12.7t-2.22-12.64l-1.48-17.75q-1.55-9.2-2.32-18.46t-2.32-18.46a74.74,74.74,0,0,1-1.84-8,40.29,40.29,0,0,0-2.67-8.71,9.56,9.56,0,0,1-1.32-6.5c0.31-2.36.63-4.84,0.93-7.46q0.24-6.23.54-12.09a105.64,105.64,0,0,1,1.32-12.16q1.09-5.52,1.83-10.64c0.49-3.41,1.07-7.21,1.77-11.42l1.41-1.67a83.34,83.34,0,0,1,5-19.07q3.52-8.84,7.46-17.72,2.62-5.65,4.92-10.9a57.83,57.83,0,0,1,5.75-10.2,144,144,0,0,1,8.68-12.38,142.27,142.27,0,0,0,8.68-12.38q9.31-9.32,20.19-18.79a56,56,0,0,1,7.91-7.66,53.3,53.3,0,0,1,10.35-6.31,31.23,31.23,0,0,0,6.27-4,31.82,31.82,0,0,1,6.27-4l13.51-5.79a15.74,15.74,0,0,1,8.43-1.48,20,20,0,0,0,6.24.26,113.71,113.71,0,0,1,11.35,1,23.41,23.41,0,0,1,10.07,4.21,47.44,47.44,0,0,0,8.94,4.69A48.55,48.55,0,0,1,1450,866a29.09,29.09,0,0,1,4.54,3.12,27,27,0,0,0,4.54,3.12c1.67,1.41,3.2,2.72,4.6,3.89a10.4,10.4,0,0,0,5.24,2.28,14.07,14.07,0,0,1,4.18,3.54q2.64,3.68,4.79,6.21c1.43,1.7,3,3.77,4.79,6.21a50.64,50.64,0,0,1,10.1,18.59,30.6,30.6,0,0,0,12.29,16.85c1.67,1.41,2.53,2.39,2.57,2.89a62.16,62.16,0,0,1,4.34,10.13c1.05,3.29,2.23,6.69,3.57,10.19q0.39,4.63,1.29,6.11a16.06,16.06,0,0,1,.58,6.95q-1.43,1.68.39,4.63a54.78,54.78,0,0,0,2.45,6,58.61,58.61,0,0,1,2.45,6q1.08,3.81,2.12,6.82a16.07,16.07,0,0,1,.58,6.95c0.22,2.58,1.6,3.75,4.18,3.54a3.68,3.68,0,0,1,3.41,3.6c0.72,2.54,1.31,4.94,1.77,7.24s1,4.71,1.77,7.24a17.09,17.09,0,0,1,.9,6.14,48.58,48.58,0,0,0,.13,6.21l0.26,3.09a24.47,24.47,0,0,1,1.26,5.72,34,34,0,0,0,1.32,6.5l0.13,1.54a9.89,9.89,0,0,1,1.64,5.69,30.12,30.12,0,0,1-.74,5.11,53.27,53.27,0,0,0-1.73,7.14,30.52,30.52,0,0,1-1.8,6.37l0.26,3.09a15.76,15.76,0,0,1,1.48,8.43,27.08,27.08,0,0,0-.13,7.78c0.76,3,1.53,6,2.29,8.75a17.94,17.94,0,0,1,0,8.94,2.24,2.24,0,0,0-.64,1.61,6,6,0,0,1-.58,2.38l0.19,2.32c0.26,3.09.65,6.3,1.19,9.62s1.19,6.51,2,9.55a66.86,66.86,0,0,1-.51,12.48l1,12A17.86,17.86,0,0,1,1544.43,1163.13Zm71.89-195.26a18.65,18.65,0,0,0-3.47-4.37,1.62,1.62,0,0,0-.48-1.12,1.54,1.54,0,0,1-.48-1.13c0.94-1.11,1.12-2,.55-2.77a22.69,22.69,0,0,1-1.77-2.57q-1.88-3.72-.45-5.4,1.22-4-3.41-3.6c-2.58.22-3.15-.51-1.74-2.19a11.28,11.28,0,0,1,2.15-2.12,4.18,4.18,0,0,0,1.38-2.06,1.37,1.37,0,0,0,1.41-1.67c-0.13-1.54-.71-2.27-1.74-2.19q-4.06-2-4.5-2.73t0.77-4.73a8.09,8.09,0,0,1-2-1,9.67,9.67,0,0,0-2-1,3,3,0,0,0,1.9-.55,3.07,3.07,0,0,1,1.9-.55,2.74,2.74,0,0,0-3.35-2.83,64.23,64.23,0,0,1-2.45-10.68,11,11,0,0,0-2.06-6q-1.75-2.19-3.47-4.37c-1.17-1.46-1.53-2.71-1.1-3.8a5.06,5.06,0,0,1,3.86-.32c1.67,1.42,3.74,1.51,6.24.26,1.54-.13,2.27-0.7,2.19-1.74a4.68,4.68,0,0,1,2.44-3.31,10.24,10.24,0,0,0,3.28-2.61c1-.09,1.52-0.38,1.48-0.9a8.83,8.83,0,0,0,2.19-1.74,3.16,3.16,0,0,1,2.25-1,24.76,24.76,0,0,1,7.08,1,5.23,5.23,0,0,0,.58,2.28,5.47,5.47,0,0,1,.58,2.28,7.78,7.78,0,0,0,1.7-2.86,7.53,7.53,0,0,1,1.7-2.86q3.21,1.3,6.43,2.57a15.6,15.6,0,0,1,5.79,4.18l3.22,1.29,4.83,1.93a4.54,4.54,0,0,1,1,3,10.37,10.37,0,0,0,3.86,9,35.85,35.85,0,0,1,5.73,8.07q2.31,4.47,5,8.91a14.48,14.48,0,0,1,1.48,3.76,13.41,13.41,0,0,0,1.48,3.76,17.25,17.25,0,0,0,2.64,3.67,13.07,13.07,0,0,1,2.45,10.68c-0.61,5.24-1.58,8.95-3,11.13a6.27,6.27,0,0,1-.84,4c-0.69,1.1-1.48,2.45-2.38,4.09-0.43,1.08-.51,3.15-0.26,6.24a13.19,13.19,0,0,1-4-1.22,14.05,14.05,0,0,0-4.11,6.56q-0.52,3.16-4.37,3.47a3.12,3.12,0,0,1-2.38-.58,10.75,10.75,0,0,0-6.27-.64q-3.06.66-6.85,1.74a5.21,5.21,0,0,1-4-1.22,12.56,12.56,0,0,0-3.28-2.06,22.69,22.69,0,0,1-8.24-5.53l-2.51-2.12A19,19,0,0,0,1616.32,967.86Zm108.85,307.23a93.25,93.25,0,0,1-1.48,10.23,2,2,0,0,1-.61,2,4.17,4.17,0,0,0-1.38,2.06c-1.41,1.67-2.1,2.77-2.06,3.28a16.64,16.64,0,0,1-.61,6.66,33.15,33.15,0,0,0-1.38,6.72q0.26,3.09-3.28,7.27-2.25,1-3.41,5.73c-0.48.56-.11,1.83,1.09,3.79q-3.42,5.73-7.27,6a6.86,6.86,0,0,1-3,1l-3,1.8q-2.83,3.35-4.57,1.16a5,5,0,0,0-2.12,2.51,1.53,1.53,0,0,1-2.25,1,3.71,3.71,0,0,0-2.6,1.38,3.72,3.72,0,0,1-2.6,1.38,64.7,64.7,0,0,0-11.51,1.74,45.76,45.76,0,0,1-7.59,2.19,5.43,5.43,0,0,0-2.28.58,5.28,5.28,0,0,1-2.28.58l-12-3.66a11.81,11.81,0,0,1-4.57-8.17,20.62,20.62,0,0,0-3.09-9.07,41.8,41.8,0,0,1-2.32-9.13,100.81,100.81,0,0,1-3.35-12.16q-1.29-6.1-2.58-12.22a8.56,8.56,0,0,1-1.09-3.8l-0.39-4.63a42.29,42.29,0,0,1-4.41-15.56q-0.68-8.11-2.16-16.53c-0.21-2.57-.56-5.13-1-7.69a75.22,75.22,0,0,1-1-7.69l-0.45-5.4-0.77-9.26-1.42-17q-0.71-8.49-.65-17l-1-11.58-1-12a96.08,96.08,0,0,1-.23-12l-1-11.58a93.35,93.35,0,0,1-.2-11.64q0.11-7.77-.1-15.15a103.55,103.55,0,0,1,.67-15.21,66.06,66.06,0,0,1,.51-12.48l1.15-14.09q0.37-4.69.38-9.36a74.37,74.37,0,0,1,.45-8.59,27.5,27.5,0,0,1,0-4.66,24.74,24.74,0,0,0,.06-3.89l0.77-18.72a7,7,0,0,0-1-3c-0.6-1-1.21-2-1.8-3a6.7,6.7,0,0,1-2.7-4.44,6.3,6.3,0,0,1,1.45-1.29,6,6,0,0,0,1.45-1.29c0.94-1.11,1.67-1.69,2.19-1.74l0.77-.06q2.75-4.11,5.56-3.19a14.59,14.59,0,0,0,5.89.67,75.87,75.87,0,0,1,11.9,2.89,48.5,48.5,0,0,1,12.67,2.83l1.61,0.64q7.27,3.29,10.81,8.42,1.8,3,3.19,5.56c0.92,1.74,2,3.6,3.18,5.56q-2.77,4.13-1.86,5.6c0.59,1,2.49,1.87,5.66,2.64a17.22,17.22,0,0,0,.68,3.44,18.38,18.38,0,0,1,.68,3.44,7,7,0,0,1,1,3,4.42,4.42,0,0,0,1.8,3c1.11,1,1.22,2.23.32,3.86,0.22,2.58,1.1,3.8,2.64,3.67a4.5,4.5,0,0,1,1.8,3,28.88,28.88,0,0,1,2.54,7.17q0.67,3.44,1.77,7.24a14.84,14.84,0,0,1,1.16,4.57,8.26,8.26,0,0,0,1.93,4.5,25.86,25.86,0,0,1,3.28,11.38,48.82,48.82,0,0,1,3.61,15.24,2.8,2.8,0,0,1,.58,2.28,3.38,3.38,0,0,0-.26,1.58q-0.39,4.7,2.45,10.68a5.23,5.23,0,0,0,.58,2.28,5.47,5.47,0,0,1,.58,2.28,14.84,14.84,0,0,1,1.16,4.57,14.54,14.54,0,0,0,1.16,4.57,94,94,0,0,1,3.15,9.84,62.36,62.36,0,0,1,1.61,10,12.35,12.35,0,0,0,2,5.27,13.23,13.23,0,0,1,2.25,8.36,3.29,3.29,0,0,0,.51,1.51,5.48,5.48,0,0,1,.58,2.28q1,2.25,1.93,4.5a7.11,7.11,0,0,1-.32,5.47l0.13,1.54a12.55,12.55,0,0,1,2,5.27,23.14,23.14,0,0,1-.32,5.47,10.67,10.67,0,0,0,1.16,4.57,32.45,32.45,0,0,0,.84,5.37,6.36,6.36,0,0,1-.77,4.73l0.19,2.32a3,3,0,0,0,.55,1.9,1.62,1.62,0,0,1,.48,1.12,56.15,56.15,0,0,0-.67,5.89,46.44,46.44,0,0,0,.16,6.59l0.19,2.32a12.79,12.79,0,0,1,.52,6.17l0.45,5.4,0.45,5.4a16.6,16.6,0,0,0,.84,10l0.06,0.77A88.24,88.24,0,0,0,1725.16,1275.1ZM1774.26,1100c2.66,0.82,3.83,2.53,3.54,5.15Q1773.73,1103.15,1774.26,1100Zm179.31,173.88-0.06-.77,0.84,0.71Zm73.77-28.71-3,1.8,0.39,4.63-8.68,7.72,0.06,0.77a6,6,0,0,1-2.25,1,6,6,0,0,0-2.25,1l0.45,5.4a26.66,26.66,0,0,0-2.57,1.77,23.65,23.65,0,0,1-2.57,1.77c-1.08-.42-2.28-0.84-3.6-1.25a4.5,4.5,0,0,0-4.18,1.13,6.18,6.18,0,0,1,1,2.25,5.84,5.84,0,0,0,1,2.25,1.58,1.58,0,0,1-.29,1.19,1.57,1.57,0,0,0-.29,1.19,58.12,58.12,0,0,0,1.68,10.74,8.62,8.62,0,0,0-2.67.61,6.16,6.16,0,0,1-1.9.55,55.69,55.69,0,0,0-1.8,6.37,68.47,68.47,0,0,1-6.56-13.44,19,19,0,0,0-4.05-2,3.2,3.2,0,0,0-.9,3.18,14.38,14.38,0,0,0,1.42,3c-0.91,1.63-1.89,2.23-3,1.8s-2.15-.85-3.22-1.29a39.89,39.89,0,0,1-2.77-5.21c-1.46,1.17-1.77,2.09-.93,2.8s1,1.35.55,1.9q-0.52,3.16-3.73,1.87a8.49,8.49,0,0,1-2.44-1.35,9.44,9.44,0,0,0-2.44-1.35l-5-4.24c1.33-2.7,1.29-4.64-.1-5.82s-2.65-2.23-3.76-3.18l-0.39-4.63a30.71,30.71,0,0,0-4.44-6.62,79.37,79.37,0,0,1-5.21-6.56l-0.35-4.25a8.93,8.93,0,0,0-2-4.89l-0.06-.77a32.33,32.33,0,0,0-1.32-11.16q-1.58-4.91-3.57-10.19l-0.58-6.95-0.32-3.86a77.29,77.29,0,0,1-1.8-7.62,75.34,75.34,0,0,1-1-7.69,10.7,10.7,0,0,1-1.16-4.57l-0.26-3.09a23.59,23.59,0,0,1-1-7.3,67.88,67.88,0,0,0-.23-7.36,35.42,35.42,0,0,0-.36-8.91c-0.5-2.8-.87-5.76-1.13-8.84a41.84,41.84,0,0,0-.87-5.76,19.58,19.58,0,0,0-2.41-5.63,10.76,10.76,0,0,0,1.77-6.75,38.27,38.27,0,0,0-1.38-7.27l-0.77-9.26a44.26,44.26,0,0,0-1.48-8.43,45.8,45.8,0,0,0-2.45-10.68l-2.51-2.12c-1.37,2.19-3,4.91-4.76,8.17a8.42,8.42,0,0,0-7.53,3,10.63,10.63,0,0,1-7.59,2.19,9.71,9.71,0,0,1-5.47,4.34,28.74,28.74,0,0,0-6.37,2.86l-16.6-3.28a29.31,29.31,0,0,1-2.86,3,28.45,28.45,0,0,0-2.86,3,89.6,89.6,0,0,0-7.66-7.91l-0.06-.77a3.29,3.29,0,0,1-1.58-.26,3.54,3.54,0,0,0-1.58-.26,4.81,4.81,0,0,0-1.25,3.6l0.29,3.47a6.12,6.12,0,0,0-1,1.64,6.26,6.26,0,0,1-1,1.64l1.8,3a126,126,0,0,0-.51,17.14,152.35,152.35,0,0,1-.45,17.91q-3.55,4.2,1.42,7.65-0.33,5.47-.32,10.13c0,3.11.13,6.21,0.39,9.29q-0.39,4.7-1.16,9.42a41.54,41.54,0,0,0-.32,10.13c1.11,1,2.29,4.08,3.51,9.42a95.94,95.94,0,0,1,2.22,12.64q0.89,1.49,1.35,2.22a10.37,10.37,0,0,0,2.12,2.15,37.91,37.91,0,0,0,.81,14.31,47.4,47.4,0,0,1,.94,15.85,57.27,57.27,0,0,1,1.55,9.2,56.07,56.07,0,0,0,1.55,9.2q1.21,5.34,2.38,9.9a59.21,59.21,0,0,0,3.09,9.07,16.5,16.5,0,0,1-3.6,3.41,8.59,8.59,0,0,0-.45,3.92,14.84,14.84,0,0,1-.38,4.7,17.91,17.91,0,0,1-3.67,2.64,9.09,9.09,0,0,0-2.25,5.63q-0.14,3.13-3.92,4.21-13.78-6.61-30.75-5.2c-1.12-.94-1.69-1.67-1.74-2.19a2.29,2.29,0,0,0-.9-1.48,13.84,13.84,0,0,0-6.3-1c-2.06.17-4-1-5.73-3.41a11,11,0,0,1-2.15,2.12,11.26,11.26,0,0,0-2.16,2.12l-3.34-2.83a24,24,0,0,1,1.32-2.83,26.53,26.53,0,0,0,1.32-2.83,18.59,18.59,0,0,0-3.47-4.37,12.06,12.06,0,0,1-4.08,2.28,12.39,12.39,0,0,0-4.08,2.28,11.58,11.58,0,0,1-2.57-2.89,6.91,6.91,0,0,1,1.86-.93,6.77,6.77,0,0,0,1.87-.93l-0.32-3.86q5-5.08,1.22-13.31a22.48,22.48,0,0,1-1.22-5.34,18,18,0,0,0-2.06-6,3.93,3.93,0,0,0-3.25-1.67c-1.56-.12-2.72-1.45-3.44-4a4.54,4.54,0,0,1,3.15.51,6.24,6.24,0,0,0,1-1.64,6.08,6.08,0,0,1,1-1.64l-2.7-4.44a10.89,10.89,0,0,0,.38-4.7c0-.51.06-0.78,0.32-0.8s0.36-.28.32-0.8a2.26,2.26,0,0,0-1.22-.68,2.08,2.08,0,0,1-1.22-.67,66,66,0,0,1,.51-12.48q-4.32-5.07-4.7-9.71a6.89,6.89,0,0,0,1.67-3.25,6.81,6.81,0,0,1,1.67-3.25c-0.6-1-1.22-2.1-1.83-3.34s-1.24-2.35-1.83-3.34a3.15,3.15,0,0,0,2.25-1,3.12,3.12,0,0,0-.55-1.9,3,3,0,0,1-.55-1.9,20.61,20.61,0,0,1-3.09-9.07,42.78,42.78,0,0,0-2.32-9.13q1-6.3,1.32-7.49c0.19-.79,1.21-2.55,3.05-5.31a15.37,15.37,0,0,0-.77-4.6c-0.31-.49-1-1.47-2.19-2.93l-0.26-3.09a18,18,0,0,0,.7-10.16,62.29,62.29,0,0,0-3.09-9.07,8.59,8.59,0,0,1,.45-3.92,17.2,17.2,0,0,1-2.64-3.67,44,44,0,0,0,2.31-4.86c0.64-1.61.34-3.65-.9-6.14a23.44,23.44,0,0,0,.93-2.8,20.6,20.6,0,0,1,.93-2.8,23.39,23.39,0,0,1-1.35-6.88,8.75,8.75,0,0,0-1.09-3.79c-0.6-1-.46-2.29.45-3.92a1.62,1.62,0,0,1,1.19.29,1.53,1.53,0,0,0,1.19.29,8.39,8.39,0,0,1,.16-2.73,8.62,8.62,0,0,0,.16-2.73,3.53,3.53,0,0,0-.52-1.51,3.3,3.3,0,0,1-.51-1.51l1.41-1.67a14.59,14.59,0,0,0,.09-8.17,66.42,66.42,0,0,0-3.06-8.68,5.48,5.48,0,0,1,2.35.19,5.22,5.22,0,0,0,2.35.19,22.12,22.12,0,0,0-.74-4.21,21,21,0,0,1-.74-4.21,6.28,6.28,0,0,1,1.45-1.29,6.05,6.05,0,0,0,1.45-1.29,19.84,19.84,0,0,1-1.38-2.6,7.87,7.87,0,0,0-2.16-2.54q0.57-2.38,4.44-2.7a5.85,5.85,0,0,1-1-2.25,6.17,6.17,0,0,0-1-2.25,22,22,0,0,0,3.47-5,13.29,13.29,0,0,1-1.42-7.65,19.85,19.85,0,0,0-.64-7.72l-0.32-3.86c0.94-1.11,1.39-1.93,1.35-2.45a36.36,36.36,0,0,0,.19-7,25.3,25.3,0,0,1,.26-6.24,42,42,0,0,0-.87-5.76q-0.62-2.66-3.89-4.73a8.37,8.37,0,0,0,2.67-.61,8.63,8.63,0,0,1,2.67-.61c0.42-1.07-.19-2.31-1.87-3.73a6.69,6.69,0,0,0,1.93-4.82,3.85,3.85,0,0,1-.39-4.63,4.43,4.43,0,0,0,.13-3.12,12.28,12.28,0,0,1-.64-3.06l-2.51-2.12a19.09,19.09,0,0,0,1-7.07l-0.58-6.95a23.19,23.19,0,0,1,2.83-12.67c0.42-1.07.86-2.14,1.29-3.22s0.85-2.14,1.29-3.22c-1.67-1.41-2-2.67-1.09-3.79a8.75,8.75,0,0,1,1.09,3.79,1.57,1.57,0,0,0,1.13-.48,1.58,1.58,0,0,1,1.12-.48c0.81-2.65.53-4.44-.84-5.37a9.45,9.45,0,0,1-3-2.86c-0.13-1.54.31-2.36,1.35-2.44a4.45,4.45,0,0,0,3-1.8q1.8-6.36,3.53-13.51l3.47-14.28a4,4,0,0,1-2.06-1.38,11.88,11.88,0,0,0-2.12-2.15,8.56,8.56,0,0,0,3.92.45,2.24,2.24,0,0,0,.64-1.61,6,6,0,0,1,.58-2.38,8,8,0,0,1-2-1,9.7,9.7,0,0,0-2-1l3.54-4.18c0.13,1.54.47,2.56,1,3,2-.68,3.67-2.64,5-5.85a16.26,16.26,0,0,1-4.12-2.76l0,0.39L1806,903l-0.77.06,0-.39-2.41-1c-0.09-1,.39-1.45,1.45-1.29a3.19,3.19,0,0,0,3-1.42,50.78,50.78,0,0,0-.9-6.14,10.56,10.56,0,0,1,.64-6.27,22,22,0,0,1,4.31-4.25,6.35,6.35,0,0,0,.55-2.77,6.2,6.2,0,0,1,.54-2.77,32.64,32.64,0,0,1,5.46-9c0-.51.06-0.78,0.32-0.8s0.36-.29.32-0.8c2-.68,3.92-2.66,5.72-5.92l8.49-10q4.24-5,9.26-10.1a30.5,30.5,0,0,1,5-4.7,30.34,30.34,0,0,0,5-4.7q5-5.08,10.1-9.39a50.11,50.11,0,0,1,11.06-7.14,37.29,37.29,0,0,0,5-5.08,44,44,0,0,1,4.4-3.09l5.18-3.15q3.6-3.4,9.2-1.55,3.21,1.3,6.47,3a11.85,11.85,0,0,1,5.12,5.4,21,21,0,0,0,4.31.42,26.77,26.77,0,0,0,5.66-2,27.44,27.44,0,0,0,8.36,7.07,18.24,18.24,0,0,1,3.5.1,21.17,21.17,0,0,0,4.28,0,22.85,22.85,0,0,0,1.77,2.57,17.64,17.64,0,0,0,2.54,2.51l6.17-.52a69.17,69.17,0,0,1,15.63,10.35c2.78,2.37,4,5.1,3.8,8.23a33.38,33.38,0,0,0,3.6,5.92,53.51,53.51,0,0,1,3.54,5.14l-0.77.06c0.68,2,1.36,3.91,2,5.66s1.34,3.65,2,5.66a13.58,13.58,0,0,1-1.22,4,4.5,4.5,0,0,1,1.8,3,52.92,52.92,0,0,1,4.63,8.94q1.21,5.34,2.06,10.71t2.06,10.71a14.82,14.82,0,0,1,1.16,4.57,8.27,8.27,0,0,0,1.93,4.5,8.35,8.35,0,0,1,1.93,4.5,8.56,8.56,0,0,0,1.09,3.79,54.16,54.16,0,0,1,2.83,10.64,52.24,52.24,0,0,0,2.83,10.64,23.85,23.85,0,0,0,1.45,12.7,45.54,45.54,0,0,1,3,12.57,0.69,0.69,0,0,1,.84.71,2.16,2.16,0,0,1,1.09-.87,2.17,2.17,0,0,0,1.09-.87c1.11,1,1.33,2,.64,3.06a2.77,2.77,0,0,0-.13,3.12,23.41,23.41,0,0,0-.19,7l-0.77.06a6.16,6.16,0,0,1,1,2.25,5.85,5.85,0,0,0,1,2.25,9,9,0,0,1-1,2,8.63,8.63,0,0,0-1,2,61.66,61.66,0,0,1,2.22,17.3q0.09,10.49-2.47,16.92,5,3.48,5,8.52a29.25,29.25,0,0,0,2,10.32c0,0.52-.41,1.33-1.35,2.44a7,7,0,0,1,1,3,4.31,4.31,0,0,1,.42,5,6.94,6.94,0,0,1-.61,2l1.8,3a16.49,16.49,0,0,1-.06,3.89,4.3,4.3,0,0,0,.64,3.05,5.23,5.23,0,0,0,.58,2.28,5.49,5.49,0,0,1,.58,2.28,23.19,23.19,0,0,1,1.22,5.34,14.54,14.54,0,0,0,1.16,4.57l0.32,3.86,1.23,14.66A25.22,25.22,0,0,0,2019,1099l1.48,17.75a12.53,12.53,0,0,1,2.57,2.89l0.65,7.72,0.06,0.77a3.11,3.11,0,0,0,1,2.25l-1.29,3.22a12.55,12.55,0,0,1,2.57,2.89,7.67,7.67,0,0,0-.48,3.54,13.8,13.8,0,0,1-.42,4.31,17.88,17.88,0,0,1,3.93,9.77,39.39,39.39,0,0,1-.64,10.93,41.76,41.76,0,0,0,2.32,9.13l-2.12,2.51a19,19,0,0,1,2.64,3.67q-3.74,1.88-2.7,4.89,5.54,10.43,1.74,20.84a37.15,37.15,0,0,1-.06,8.55q-0.33,5.47-.67,10.55t-0.61,11.32a17.16,17.16,0,0,0,.68,3.44,18.34,18.34,0,0,1,.67,3.44Z" transform="translate(32.13 76.01)"/><path class="cls-1" d="M1807.22,1215.39a0.69,0.69,0,0,0,.71-0.84A0.69,0.69,0,0,0,1807.22,1215.39Z" transform="translate(32.13 76.01)"/></svg>