<svg id="Layer_1" data-name="Layer 1" xmlns="http://www.w3.org/2000/svg" viewBox="0 0 107.87 118.72"><defs><style>.cls-1{fill:#fff;}</style></defs><title>nmlogo_white</title><path class="cls-1" d="M54.88,131.26V56.88c-0.35,0,18.91.31,31.88,15.31V56.25s25.35,9.18,37.39,28.56c0,0,8.36-17.06,35.74-28.81v75.25h-7.66V69.81c-9.92,3.63-23.91,19.34-23.91,26v35.47h-8.44V95.79c0-6.72-16.41-24.06-25-25.94v61.41H86.6V86.88S78,69.07,62.38,67.5v63.75h-7.5Z" transform="translate(-53.5 -56)"/><path class="cls-1" d="M62,159.48v-7.11c0-1.91-1-2.52-2.43-2.52a4.2,4.2,0,0,0-3.22,1.69v7.95H54.69V148.61h1.69v1.58a5.39,5.39,0,0,1,3.87-1.85c2.27,0,3.47,1.15,3.47,3.51v7.63H62Z" transform="translate(-53.5 -56)"/><path class="cls-1" d="M66.57,154a5.44,5.44,0,0,1,5.36-5.69c3.29,0,5.22,2.57,5.22,5.83v0.43h-8.8a3.83,3.83,0,0,0,3.92,3.76A4.75,4.75,0,0,0,75.62,157l0.81,1.1a5.91,5.91,0,0,1-4.32,1.67A5.39,5.39,0,0,1,66.57,154Zm5.33-4.3a3.63,3.63,0,0,0-3.56,3.62h7.13A3.52,3.52,0,0,0,71.9,149.74Z" transform="translate(-53.5 -56)"/><path class="cls-1" d="M89.39,159.48l-2.84-8.73-2.84,8.73H82l-3.47-10.87h1.76L83,157.28l2.86-8.66h1.44l2.86,8.66,2.66-8.66h1.76l-3.47,10.87H89.39Z" transform="translate(-53.5 -56)"/><path class="cls-1" d="M115.65,159.48V152.1c0-1.37-.61-2.25-2-2.25a3.8,3.8,0,0,0-2.88,1.66v8h-1.69V152.1c0-1.37-.59-2.25-2-2.25a3.8,3.8,0,0,0-2.86,1.69v7.95h-1.69V148.61h1.69v1.58a4.7,4.7,0,0,1,3.51-1.85,2.79,2.79,0,0,1,2.93,2,4.57,4.57,0,0,1,3.65-2c2,0,3,1.1,3,3.29v7.85h-1.69Z" transform="translate(-53.5 -56)"/><path class="cls-1" d="M120.19,154a5.44,5.44,0,0,1,5.36-5.69c3.29,0,5.22,2.57,5.22,5.83v0.43H122a3.83,3.83,0,0,0,3.92,3.76,4.75,4.75,0,0,0,3.35-1.37l0.81,1.1a5.91,5.91,0,0,1-4.32,1.67A5.39,5.39,0,0,1,120.19,154Zm5.33-4.3a3.63,3.63,0,0,0-3.56,3.62h7.13A3.52,3.52,0,0,0,125.52,149.74Z" transform="translate(-53.5 -56)"/><path class="cls-1" d="M141.48,159.48v-1.62a4.58,4.58,0,0,1-3.67,1.89c-2.84,0-4.84-2.16-4.84-5.69s2-5.72,4.84-5.72a4.54,4.54,0,0,1,3.67,1.91v-5.78h1.69v15h-1.69Zm0-2.95v-4.93a4.08,4.08,0,0,0-3.26-1.76c-2.18,0-3.49,1.8-3.49,4.21s1.31,4.19,3.49,4.19A4,4,0,0,0,141.48,156.54Z" transform="translate(-53.5 -56)"/><path class="cls-1" d="M146.36,145.93a1.14,1.14,0,1,1,2.27,0A1.14,1.14,0,0,1,146.36,145.93Zm0.29,13.55V148.61h1.69v10.87h-1.69Z" transform="translate(-53.5 -56)"/><path class="cls-1" d="M158.62,159.48v-1.24a4.7,4.7,0,0,1-3.6,1.51,3.62,3.62,0,0,1-3.8-3.6,3.56,3.56,0,0,1,3.8-3.58,4.55,4.55,0,0,1,3.6,1.49v-2c0-1.46-1.17-2.3-2.75-2.3a4.32,4.32,0,0,0-3.33,1.51l-0.79-1.17a5.69,5.69,0,0,1,4.34-1.8c2.3,0,4.21,1,4.21,3.67v7.47h-1.69Zm0-2.3v-2a3.64,3.64,0,0,0-3-1.35,2.39,2.39,0,1,0,0,4.75A3.64,3.64,0,0,0,158.62,157.19Z" transform="translate(-53.5 -56)"/><path class="cls-1" d="M57,174.6V174a2.19,2.19,0,0,1-1.68.7A1.69,1.69,0,0,1,53.5,173a1.66,1.66,0,0,1,1.77-1.67,2.12,2.12,0,0,1,1.68.69v-0.91a1.12,1.12,0,0,0-1.28-1.07,2,2,0,0,0-1.55.7l-0.37-.54a2.65,2.65,0,0,1,2-.84,1.69,1.69,0,0,1,2,1.71v3.48H57Zm0-1.07v-1a1.7,1.7,0,0,0-1.39-.63,1.11,1.11,0,1,0,0,2.21A1.7,1.7,0,0,0,57,173.53Z" transform="translate(-53.5 -56)"/><path class="cls-1" d="M61.56,173.54v-3.31H60.72v-0.69h0.84v-1.38h0.79v1.38h1v0.69h-1v3.14a0.55,0.55,0,0,0,.51.65,0.76,0.76,0,0,0,.53-0.21l0.23,0.59a1.29,1.29,0,0,1-.94.33A1,1,0,0,1,61.56,173.54Z" transform="translate(-53.5 -56)"/><path class="cls-1" d="M71.41,171.88V167.6h0.87v4.26a2,2,0,1,0,4,0V167.6h0.87v4.27A2.85,2.85,0,0,1,71.41,171.88Z" transform="translate(-53.5 -56)"/><path class="cls-1" d="M85.79,174.6L81.71,169v5.58H80.85v-7h0.89l4,5.46V167.6h0.87v7H85.79Z" transform="translate(-53.5 -56)"/><path class="cls-1" d="M90.08,171.1a3.5,3.5,0,0,1,3.6-3.62,3.13,3.13,0,0,1,2.65,1.38l-0.73.41a2.36,2.36,0,0,0-1.92-1,2.84,2.84,0,0,0,0,5.68,2.33,2.33,0,0,0,1.92-1l0.74,0.41a3.16,3.16,0,0,1-2.66,1.38A3.5,3.5,0,0,1,90.08,171.1Z" transform="translate(-53.5 -56)"/><path class="cls-1" d="M109.33,174.6L108.71,173h-3.48l-0.62,1.55h-1l2.81-7h1.08l2.82,7h-1ZM107,168.5l-1.49,3.76h3Z" transform="translate(-53.5 -56)"/><path class="cls-1" d="M112.86,173.92l0.41-.57a2.29,2.29,0,0,0,1.67.72,1,1,0,0,0,1.19-.87c0-1.23-3.13-.47-3.13-2.35a1.63,1.63,0,0,1,1.89-1.46,2.56,2.56,0,0,1,1.88.73l-0.37.54a2,2,0,0,0-1.51-.64,1,1,0,0,0-1.12.8c0,1.11,3.13.38,3.13,2.35,0,0.85-.68,1.53-2,1.53A2.69,2.69,0,0,1,112.86,173.92Z" transform="translate(-53.5 -56)"/><path class="cls-1" d="M123.7,174.6v-3.33a1,1,0,0,0-1.14-1.15,2,2,0,0,0-1.5.79v3.7h-0.79v-7h0.79v2.66a2.52,2.52,0,0,1,1.81-.86,1.42,1.42,0,0,1,1.61,1.62v3.57H123.7Z" transform="translate(-53.5 -56)"/><path class="cls-1" d="M127.86,172.06a2.53,2.53,0,0,1,2.49-2.65,2.46,2.46,0,0,1,2.43,2.72v0.2h-4.1a1.78,1.78,0,0,0,1.82,1.75,2.21,2.21,0,0,0,1.56-.64l0.38,0.51a2.75,2.75,0,0,1-2,.78A2.51,2.51,0,0,1,127.86,172.06Zm2.48-2a1.69,1.69,0,0,0-1.66,1.69H132A1.64,1.64,0,0,0,130.34,170.06Z" transform="translate(-53.5 -56)"/><path class="cls-1" d="M137.5,174.6l-2.11-5.06h0.85l1.69,4.15,1.68-4.15h0.86l-2.11,5.06H137.5Z" transform="translate(-53.5 -56)"/><path class="cls-1" d="M143.24,168.29a0.53,0.53,0,1,1,1.06,0A0.53,0.53,0,0,1,143.24,168.29Zm0.14,6.31v-5.06h0.79v5.06h-0.79Z" transform="translate(-53.5 -56)"/><path class="cls-1" d="M147.83,174.6v-7h0.79v7h-0.79Z" transform="translate(-53.5 -56)"/><path class="cls-1" d="M152.28,174.6v-7h0.79v7h-0.79Z" transform="translate(-53.5 -56)"/><path class="cls-1" d="M156.45,172.06a2.53,2.53,0,0,1,2.49-2.65,2.46,2.46,0,0,1,2.43,2.72v0.2h-4.1a1.78,1.78,0,0,0,1.82,1.75,2.21,2.21,0,0,0,1.56-.64l0.38,0.51a2.75,2.75,0,0,1-2,.78A2.51,2.51,0,0,1,156.45,172.06Zm2.48-2a1.69,1.69,0,0,0-1.66,1.69h3.32A1.64,1.64,0,0,0,158.93,170.06Z" transform="translate(-53.5 -56)"/></svg>