<?xml version="1.0" standalone="no"?>
<!DOCTYPE svg PUBLIC "-//W3C//DTD SVG 20010904//EN"
 "http://www.w3.org/TR/2001/REC-SVG-20010904/DTD/svg10.dtd">
<svg version="1.0" xmlns="http://www.w3.org/2000/svg"
 width="260.000000pt" height="260.000000pt" viewBox="0 0 260.000000 260.000000"
 preserveAspectRatio="xMidYMid meet">
<metadata>
Created by potrace 1.11, written by Peter Selinger 2001-2013
</metadata>
<g transform="translate(0.000000,260.000000) scale(0.100000,-0.100000)"
fill="#000000" stroke="none">
<path d="M90 1940 l0 -340 50 0 50 0 1 143 c1 161 3 178 26 217 27 46 68 61
125 47 50 -13 58 -47 58 -237 l0 -170 50 0 50 0 1 38 c1 20 1 106 1 190 -1
168 -8 193 -65 236 -39 28 -178 31 -220 3 l-27 -17 0 115 0 115 -50 0 -50 0 0
-340z"/>
<path d="M1143 2250 c-2 -22 2 -30 15 -32 9 0 22 -2 27 -3 6 -2 24 -3 42 -4
l32 -1 0 -270 1 -270 -37 -1 c-21 -1 -54 -2 -73 -3 -32 -1 -35 -4 -38 -34 l-3
-32 200 0 201 0 0 34 c0 30 -3 33 -27 33 -16 0 -49 1 -75 1 l-47 2 0 263 c0
144 0 281 0 305 l-1 42 -107 0 -108 0 -2 -30z"/>
<path d="M1655 2253 c3 -39 3 -39 28 -40 12 0 37 -1 55 -2 l32 -1 0 -270 0
-270 -37 -1 c-21 -1 -55 -2 -75 -2 -36 -1 -38 -3 -38 -34 l0 -33 199 0 c186 0
199 1 204 19 7 28 -9 46 -43 47 -16 1 -48 2 -70 3 l-40 1 0 305 0 305 -109 0
-108 0 2 -27z"/>
<path d="M717 2076 c-39 -17 -84 -61 -102 -100 -26 -54 -33 -165 -16 -227 32
-114 127 -168 276 -156 103 9 125 21 125 69 0 42 -1 42 -50 27 -59 -17 -136
-22 -174 -9 -39 13 -73 58 -78 105 l-3 29 160 0 c88 0 163 5 166 10 13 18 -2
121 -24 164 -34 69 -83 96 -176 98 -42 1 -89 -4 -104 -10z m161 -90 c13 -13
27 -39 32 -59 l8 -37 -114 0 -114 0 10 28 c21 55 34 71 69 85 45 18 79 13 109
-17z"/>
<path d="M2235 2075 c-162 -57 -185 -352 -35 -451 28 -19 57 -28 103 -31 102
-9 163 20 215 101 24 37 27 50 27 141 0 108 -15 154 -67 202 -54 51 -159 68
-243 38z m152 -81 c39 -25 57 -72 57 -154 0 -83 -17 -129 -60 -157 -57 -37
-142 -4 -165 65 -19 56 -15 165 7 203 37 62 103 79 161 43z"/>
<path d="M1256 1371 c-26 -9 -65 -31 -86 -49 l-38 -32 -7 40 -7 40 -64 0 c-58
0 -65 -2 -72 -22 -10 -29 -8 -781 2 -796 10 -17 142 -16 153 0 4 7 8 121 9
253 2 308 16 364 105 414 35 20 51 23 110 19 70 -5 98 -20 121 -61 18 -34 19
-61 20 -332 0 -148 4 -278 9 -288 13 -24 144 -25 153 -1 3 9 6 143 6 298 0
383 -15 435 -144 500 -73 37 -192 44 -270 17z"/>
<path d="M1993 1371 c-23 -11 -46 -29 -53 -40 -15 -29 -28 -26 -32 7 -3 25 -6
27 -57 30 -30 2 -58 -1 -63 -6 -10 -10 -14 -794 -4 -811 9 -13 132 -15 140 -2
3 5 7 130 8 277 2 346 16 414 89 414 67 0 77 -48 78 -404 1 -153 4 -283 7
-287 9 -14 134 -11 139 4 3 6 6 140 8 297 3 249 5 290 21 328 29 68 90 85 123
35 16 -24 18 -59 20 -341 1 -176 6 -319 11 -324 5 -5 38 -8 73 -6 l64 3 0 340
c0 306 -2 344 -18 385 -24 59 -50 86 -103 106 -75 29 -172 -2 -205 -63 -16
-30 -21 -29 -42 6 -20 34 -90 71 -133 71 -16 0 -48 -9 -71 -19z"/>
<path d="M7 443 c-4 -3 -7 -35 -7 -70 l0 -63 459 0 c355 0 461 3 469 13 13 16
14 98 0 114 -8 10 -107 13 -463 13 -248 0 -455 -3 -458 -7z"/>
</g>
</svg>
