<svg id="Layer_1" data-name="Layer 1" xmlns="http://www.w3.org/2000/svg" viewBox="0 0 1154.94 832.46"><defs><style>.cls-1{fill:#fff;}</style></defs><title>cutout_nicole</title><text x="62.16" y="31.39"/><text x="62.16" y="31.39"/><path class="cls-1" d="M1092.78,801.07H-62.16V-31.39H1092.78V801.07ZM34.34,133.2H81v61.4h19.6V133.2h45.9V114.6H34.34v18.6Zm219.5,61.4h19.6v-80h-19.6v28.7H176V114.6h-19.6v80H176V161.9h77.8v32.7Zm29.5,0h19.6v-80h-19.6v80Zm53.5-80q-24.2,0-24.2,19.5v12.6q0,17.1,24.1,17.1h66.8q4.5,0,4.5,2.9v6.5q0,2.8-4.5,2.8h-88.3v18.6h88.3q24.1,0,24.1-19.4V164.3q0-19.1-24-19.1h-66.8q-4.6,0-4.6-2.9v-6.2q0-2.9,4.6-2.9h88.3V114.6h-88.3Zm149.4,80h19.6v-80h-19.6v80Zm53.5-80q-24.2,0-24.2,19.5v12.6q0,17.1,24.1,17.1h66.8q4.5,0,4.5,2.9v6.5q0,2.8-4.5,2.8h-88.3v18.6h88.3q24.1,0,24.1-19.4V164.3q0-19.1-24-19.1h-66.8q-4.6,0-4.6-2.9v-6.2q0-2.9,4.6-2.9H628V114.6h-88.3ZM167.8,389.34q9.41,11.33,20.45,16.51t27,5.18h38.59V257.44H217.15V375.32h-1.92a22.83,22.83,0,0,1-11.9-3.46,40.71,40.71,0,0,1-9.79-8.06l-74.3-85.63q-9.6-10.75-20.06-15.74t-25.82-5H34.94V411H71.42V293.15h1.92a23.86,23.86,0,0,1,12,3.36,36.52,36.52,0,0,1,9.89,8.16Zm151.49-14q-8.64,0-8.64-7.68V351.9H487.1V316.19H310.65V300.64q0-7.49,8.64-7.49h169V257.44h-169q-46.27,0-46.27,37.44V373.4Q273,411,319.29,411H488.82V375.32H319.29Zm261.5-7.3q-2.88,7.3-7.68,7.3h-5.57q-5.76,0-7.1-7.49l-22.08-110.4H497.08l31.87,135A23.32,23.32,0,0,0,552.18,411h29.38a30.06,30.06,0,0,0,17.38-5.18,29,29,0,0,0,10.85-13.25L649,293.15h12.48L700.6,392.6a29,29,0,0,0,10.85,13.25A30,30,0,0,0,728.82,411H758.2a21.33,21.33,0,0,0,6.91-1.25,25.62,25.62,0,0,0,6.91-3.65,26.37,26.37,0,0,0,5.76-5.86,23.39,23.39,0,0,0,3.65-7.87l31.87-135H772l-22.08,110.4q-1.54,7.49-7.1,7.49h-5.57q-5,0-7.68-7.3l-42-110.59h-64.7ZM34.15,619.8H67V511.7h1.76a11.26,11.26,0,0,1,6.88,2.55A16.65,16.65,0,0,1,80.53,520l51.84,99.82h55.19L239.24,520a17,17,0,0,1,4.85-5.72,10.89,10.89,0,0,1,6.79-2.55h1.76V619.8h32.8V479H250.7a62.79,62.79,0,0,0-14.2,1.5,39.08,39.08,0,0,0-21.6,13.2,66.58,66.58,0,0,0-8.29,12.76L165.7,587.06H154.42l-41.26-81.16a63,63,0,0,0-8-12.5A40.3,40.3,0,0,0,95.52,485a37.41,37.41,0,0,0-11.9-4.67A72.81,72.81,0,0,0,68.54,479H34.15V619.8Zm311.42-32.75q-7.94,0-7.94-7V565.58H499.69V532.83H337.63V518.57q0-6.87,7.94-6.87H500.75V479H345.57q-42.5,0-42.5,34.33v72q0,34.51,42.5,34.51H501.28V587.06H345.57ZM517.68,619.8H682.55q53.08,0,53.08-44.72V523.85q0-44.89-53.08-44.89H517.68V619.8Zm34.56-108.1H682.58q18.49,0,18.49,12.15v51.23q0,12-18.49,12H552.24V511.7Zm201,108.1h34.56V479H753.27V619.8Zm228.89,0h39.68l-73.71-129Q941.24,479,926.61,479H891a33.42,33.42,0,0,0-7.94.79,17.87,17.87,0,0,0-5.47,2.29,15.85,15.85,0,0,0-4,3.7,37.89,37.89,0,0,0-3.26,5.19L796.47,619.8h39.85l15.52-27.64H966.28Zm-89.4-101.41q3.7-6.69,9.35-6.69h13.58a9,9,0,0,1,4.85,1.5,13.37,13.37,0,0,1,4.32,5l24.51,43H868.59Z" transform="translate(62.16 31.39)"/></svg>