<svg id="Layer_1_Image" data-name="Layer 1 Image" xmlns="http://www.w3.org/2000/svg" viewBox="0 0 2746.34 2952"><defs><style>.cls-1{fill:#fcfcfc;}</style></defs><title>mask_2</title><path class="cls-1" d="M2746.67,824V2954H0.67c-0.31-18.53-.22-37-0.1-55.93,221.13-35.21,440.94-69.81,662.47-105.13-3.92-3.44-6-5.49-8.36-7.31q-32.6-25.56-65.27-51-149.15-116.36-298.3-232.72Q151.82,2393.15,12.63,2284.32c-14.89-11.65-12.1-6.53-12.1-24.55Q0.45,1137.38.49,15c0-4.33.12-8.66,0.18-13h2746V204c-12.48,12-24.85,24-37.46,35.87-24,22.53-48.22,44.89-72.29,67.37-16.79,15.67-33.46,31.46-50.25,47.13q-35.39,33-70.86,66c-17.26,16.14-34.36,32.45-51.63,48.57-23.58,22-47.3,43.92-70.89,65.95-17,15.9-33.88,32-50.92,47.88-22.87,21.33-45.92,42.47-68.77,63.82-23.1,21.59-46,43.4-69.09,65-28,26.12-56.07,52.08-84.07,78.15-29.71,27.66-59.47,55.27-89,83.14-7.68,7.25-14.56,15.34-22.37,23.65l342.07,149.07c14.37-12.82,28-25,41.64-37.16q43.15-38.57,86.3-77.14,58.1-51.77,116.28-103.44c15.65-13.93,31.34-27.83,46.82-41.95,4.54-4.14,8.55-4.78,14.25-1.95,10.41,5.18,21.31,9.36,32,14.08Q2717.56,810.93,2746.67,824ZM1361.26,2687.21l-120.83-379.57c7.13-6.67,13.86-13.07,20.7-19.34q33.48-30.67,67-61.26,28-25.59,55.93-51.22,32.36-29.68,64.68-59.4c18.12-16.67,36.15-33.43,54.29-50.07q33.82-31,67.74-62,26.88-24.58,53.75-49.16,33.1-30.35,66.15-60.75c17.88-16.44,35.69-32.95,53.59-49.35,21.83-20,43.79-39.84,65.59-59.86,26.22-24.07,52.31-48.29,78.52-72.38,5.82-5.34,11.88-10.42,18-15.73L2262.11,1861l287.67-264L271.39,581.7c1.13,3.87,1.66,6,2.38,8.15q15.15,43.86,30.34,87.71,49.58,143.89,99.13,287.79,29.59,85.86,59.26,171.69,45.36,131.62,90.68,263.26,34.34,99.53,68.83,199,40.22,116.51,80.33,233,39.18,113.69,78.37,227.39,40,116.05,80,232.09,39.72,115.09,79.5,230.17,35,101.41,69.93,202.85,33.14,96.25,66.22,192.52c2.56,7.45,5.32,14.83,8.39,23.38Z" transform="translate(-0.33 -2)"/><path class="cls-1" d="M1116.69,1952.42L869.88,1236.51c30.39,12.9,58.15,26.61,86.26,39.52,28.41,13,56.71,26.33,85.06,39.51l85.06,39.51q42.54,19.74,85.08,39.47,42.08,19.54,84.14,39.12c28.37,13.13,56.8,26.12,85.18,39.23s56.74,26.28,85.08,39.48,56.56,26.41,86.52,40.41Z" transform="translate(-0.33 -2)"/></svg>