<svg id="Layer_1" data-name="Layer 1" xmlns="http://www.w3.org/2000/svg" viewBox="0 0 2228.86 1461.64"><defs><style>.cls-1{fill:#fff;}</style></defs><title>new_media_HERO_portrait_tim1</title><path class="cls-1" d="M2135,1188.35V2338H218.16V1188.35H2135m156-156H62.16V2494H2291V1032.35h0Z" transform="translate(-62.16 -1032.35)"/><g id="MAIN"><path class="cls-1" d="M1481.3,1981.75q-9.53-5-23.07-5-25.08,0-39.12,16.3t-16.55,41.87h103.8Q1506.37,1995.3,1481.3,1981.75Z" transform="translate(-62.16 -1032.35)"/><path class="cls-1" d="M1453.71,1734.58q0,13.54,11,23.32t35.35,9.78q24.32,0,40.12-16.3t16.8-40.87q-29.59-8-55.16-8Q1453.71,1702.49,1453.71,1734.58Z" transform="translate(-62.16 -1032.35)"/><path class="cls-1" d="M1117.24,1666.38q-1-26.07-17.55-42.62-15-15-40.12-15T1017.69,1629q-16.81,20.31-16.8,54.41t17.05,54.91q17,20.81,43.13,20.81,21.56,0,38.61-17.05,17.55-17.55,17.55-44.13v-31.59Z" transform="translate(-62.16 -1032.35)"/><path class="cls-1" d="M643.1,1980.75q-26.83,0-43.88,19.31T582.17,2058q0,38.62,15.29,57.92t41.87,19.31q26.57,0,43.63-19.31T700,2058q0-38.61-15-57.92T643.1,1980.75Z" transform="translate(-62.16 -1032.35)"/><path class="cls-1" d="M1663.83,2108.62q0,13.54,11,23.32t35.35,9.78q24.32,0,40.12-16.3t16.8-40.87q-29.59-8-55.16-8Q1663.83,2076.53,1663.83,2108.62Z" transform="translate(-62.16 -1032.35)"/><path class="cls-1" d="M145,1135.68V2406.4H2166.73V1135.68H145ZM941.6,1403.75q-3.75-3-11.73-5.49l-26.46-9.49q-29.46-10.23-29.46-33.45,0-15.48,13.86-24.84t37.2-9.36q23.34,0,35.95,10.24t13.11,25.71H946.35a12.17,12.17,0,0,0-5.74-9.49q-5.24-3.49-15-3.5t-15.1,3.87q-5.37,3.87-5.37,8.86,0,8.74,14.73,13l28.71,10.73q14.23,4.75,21.84,12.11t7.61,19.1q0,15-14.23,26-14.73,11.49-38.95,11.48t-38.94-10.61q-14.73-10.61-15-29.83h27.46q0.5,17.23,25.21,17.23,9.49,0,15.6-4.12t6.12-9.61A10.25,10.25,0,0,0,941.6,1403.75ZM803.8,1272.56q4.74-4.62,13.48-4.62,8.48,0,13.36,4.62t4.87,12.61q0,8-4.87,12.61t-13.36,4.62q-8.74,0-13.48-4.62t-4.74-12.61Q799.06,1277.18,803.8,1272.56ZM832,1324.11v121.58H802.55V1324.11H832Zm-167,79.64q-3.75-3-11.73-5.49l-26.46-9.49q-29.46-10.23-29.46-33.45,0-15.48,13.86-24.84t37.2-9.36q23.34,0,35.95,10.24t13.11,25.71H669.75a12.17,12.17,0,0,0-5.74-9.49q-5.24-3.49-15-3.5t-15.1,3.87q-5.37,3.87-5.37,8.86,0,8.74,14.73,13L672,1380.53q14.23,4.75,21.84,12.11t7.61,19.1q0,15-14.23,26-14.73,11.49-38.95,11.48t-38.94-10.61q-14.73-10.61-15-29.83h27.46Q622.31,1426,647,1426q9.49,0,15.6-4.12t6.12-9.61A10.25,10.25,0,0,0,665,1403.75ZM527.2,1272.56q4.74-4.62,13.48-4.62,8.48,0,13.36,4.62t4.87,12.61q0,8-4.87,12.61t-13.36,4.62q-8.74,0-13.48-4.62t-4.74-12.61Q522.46,1277.18,527.2,1272.56Zm28.21,51.55v121.58H526V1324.11h29.46Zm-187.48-49.68h29.46v69.65q12.48-23,36.45-23t35.33,14.73q11.36,14.73,11.36,38.95v70.9H451.06v-70.9q0-13.48-6.49-20.35t-18.22-6.87q-11.74,0-20.1,10.49t-8.86,31.46v56.17H367.93V1274.43Zm-113.84,49.93h17v-32h29.46v32h33v19.72h-33V1411q0,15,14.23,15,7.24,0,18.72-4l4.24,20.72q-16.48,6.49-26,6.49a55.26,55.26,0,0,1-16.6-2.25,37.53,37.53,0,0,1-12.61-6.74Q271.07,1430,271.07,1412v-67.9h-17v-19.72Zm217.76,855.47H412.68V2037.41q0-27.08-13-40.87T363,1982.75q-23.58,0-40.37,21.06T304.86,2067v112.83H245.69V1936.12h51.65l6.52,42.12q24.07-48.64,77.23-48.64,45.13,0,67.95,29.59t22.82,78.23v142.42Zm16-550.56q-15,20.57-16,62.18v114.34H412.68V1663.37q0-27.08-13-40.87T363,1608.71q-23.58,0-40.37,21.06T304.86,1693v112.83H245.69V1562.07h51.65l6.52,42.12q24.07-48.63,77.23-48.64,30.58,0,50.9,14t30.34,38.61q23.57-52.65,82.74-52.65,43.63,0,67.7,29.59,23.06,28.09,23.07,78.23v142.42H576.16V1663.37q0-27.08-13-40.87t-36.61-13.79Q502.93,1608.71,487.9,1629.27Zm236.69,525.49q-31.1,32.1-83.24,32.09t-84.25-32.09q-34.6-34.6-34.6-96.28,0-62.68,34.6-97.28,31.59-31.59,84.25-31.59a135.12,135.12,0,0,1,46.13,7.77,96.61,96.61,0,0,1,37.11,23.82q34.6,35.11,34.6,97.28Q759.19,2119.66,724.58,2154.76Zm-5-377.05q-33.6-36.6-33.6-93.77,0-58.67,33.6-94.28,32.09-34.1,80.74-34.1,50.64,0,78.73,35.6a111.33,111.33,0,0,1,18.8,37.11q6.26,21.06,6.27,38.61a225.67,225.67,0,0,1-2,31.59H744.65q1,29.59,14.54,48.14t41.12,18.55q36.6,0,43.63-32.09h59.67q-6,36.61-33.6,57.67-28.58,22.07-69.7,22.06Q752.17,1812.81,719.57,1777.71ZM1038,2179.83H978.83V2135.7q-23.07,48.65-74.22,48.64-64.69,0-85.25-50.65-7.52-17.55-7.52-42.62V1935.62H871v149.44q0,24.07,11.53,35.86a38.08,38.08,0,0,0,28.33,11.78q16.8,0,28.33-4.76a54.61,54.61,0,0,0,20.06-14.29q18.55-21.56,19.56-57.67V1935.62H1038v244.22ZM973.82,1777.2q-32.6-37.11-32.6-94.28t31.09-92.77q30.58-34.6,76.22-34.6t68.7,36.61V1461.78h59.67v344h-48.64l-7-37.61q-22.57,44.64-69.2,44.63T973.82,1777.2Zm261.76,402.63h-66.7l-90.77-243.71h68.2l55.66,185,56.17-185h68.2Zm27.08-374V1561.57h59.17v244.22h-59.17Zm56.41-297.12q-9.78,9.28-26.83,9.28-17.56,0-27.08-9.28t-9.53-25.32q0-16,9.53-25.32t27.08-9.28q17,0,26.83,9.28t9.78,25.32Q1328.85,1499.4,1319.08,1508.67Zm97.53,612q13.54,18.56,41.12,18.55,36.6,0,43.63-32.09H1561q-6,36.61-33.6,57.67-28.58,22.07-69.7,22.06-48.14,0-80.74-35.1-33.6-36.6-33.6-93.77,0-58.67,33.6-94.28,32.09-34.1,80.74-34.1,50.64,0,78.73,35.6a111.32,111.32,0,0,1,18.8,37.11q6.26,21.06,6.27,38.61a225.66,225.66,0,0,1-2,31.59H1402.06Q1403.06,2102.11,1416.61,2120.66ZM1560,1773.19q-23.58,39.62-72.21,39.62-47.14,0-73.21-23.07-24.07-22.06-24.07-55.91t26.58-52.15q26.57-18.3,72.71-18.3,29.08,0,67.2,9.53v-24.07q0-25.57-10.28-37.86t-33.6-12.29q-23.32,0-35.86,9.28t-12.54,26.33h-64.69q0-41.62,29.34-60.18t82-18.55q75.22,0,97.29,52.65,7.52,18.05,7.52,42.62v155h-51.65Zm266.28,406.64h-51.65l-4.51-32.6q-23.58,39.62-72.21,39.62-47.14,0-73.21-23.07-24.07-22.06-24.07-55.91t26.58-52.15q26.57-18.3,72.71-18.3,29.08,0,67.2,9.53v-24.07q0-25.58-10.28-37.86t-33.6-12.29q-23.32,0-35.86,9.28t-12.54,26.33h-64.69q0-41.62,29.34-60.18t82-18.55q75.22,0,97.29,52.65,7.52,18.05,7.52,42.62v155Zm294.86,0H2062V2135.7q-23.07,48.65-74.22,48.64-64.69,0-85.25-50.65-7.52-17.55-7.52-42.62V1935.62h59.17v149.44q0,24.07,11.53,35.86a38.08,38.08,0,0,0,28.33,11.78q16.8,0,28.33-4.76a54.61,54.61,0,0,0,20.06-14.29Q2061,2092.08,2062,2056V1935.62h59.17v244.22Z" transform="translate(-62.16 -1032.35)"/><path class="cls-1" d="M823.88,1607.71q-9.53-5-23.07-5-25.08,0-39.12,16.3t-16.55,41.87H849Q849,1621.26,823.88,1607.71Z" transform="translate(-62.16 -1032.35)"/></g></svg>