<?xml version="1.0" encoding="utf-8"?>
<!-- Generator: Adobe Illustrator 17.0.0, SVG Export Plug-In . SVG Version: 6.00 Build 0)  -->
<!DOCTYPE svg PUBLIC "-//W3C//DTD SVG 1.1//EN" "http://www.w3.org/Graphics/SVG/1.1/DTD/svg11.dtd">
<svg version="1.1" xmlns="http://www.w3.org/2000/svg" xmlns:xlink="http://www.w3.org/1999/xlink" x="0px" y="0px"
	 width="2529.6px" height="1640px" viewBox="0 0 2529.6 1640" style="enable-background:new 0 0 2529.6 1640;" xml:space="preserve"
	>
<style type="text/css">
	.st0{display:none;}
	.st1{display:inline;fill:#231F20;}
	.st2{fill:#00A79D;}
	.st3{fill:#FFFFFF;}
</style>
<g id="Layer_2" class="st0">
	<rect x="-193.4" y="-184" class="st1" width="2984" height="2048"/>
</g>
<g id="Layer_1">
	<g>
		<polygon class="st2" points="1984.2,1220.8 2068.8,1220.8 2027.1,1102 		"/>
		<path class="st2" d="M1371.8,1072.5h-44v197.6h50.4c48.7,0,80-38.2,80-97.9C1458.1,1111.9,1423.9,1072.5,1371.8,1072.5z"/>
		<path class="st2" d="M20.5,104v1440h2503.1V104H20.5z M1051.4,647.8v102h-190v50.4h214.4v102H726.9V496h343.6v102H861.3v49.8
			H1051.4z M861.1,336.6c0-28.3,23.8-46,60.6-46c22.4,0,45.6,6.7,61.6,16.8l-17,35.5c-14.3-7.9-36.3-16.6-48.6-16.6
			c-5.2,0-8.7,1.6-8.7,5.9c0,17.8,73.3,6.7,73.3,57.9c0,31.5-27.7,45.4-59.6,45.4c-24.6,0-52.1-8.3-70.9-22.6l17.4-35.1
			c14.5,12.1,39.6,22,53.9,22c6.9,0,11.3-2.2,11.3-7.3C934.4,374.1,861.1,386.2,861.1,336.6z M796.1,292.6h46.8v141.5h-46.8V292.6z
			 M626.3,336.6c0-28.3,23.8-46,60.6-46c22.4,0,45.6,6.7,61.6,16.8l-17,35.5c-14.3-7.9-36.3-16.6-48.6-16.6c-5.2,0-8.7,1.6-8.7,5.9
			c0,17.8,73.3,6.7,73.3,57.9c0,31.5-27.7,45.4-59.6,45.4c-24.6,0-52.1-8.3-70.9-22.6l17.4-35.1c14.5,12.1,39.6,22,53.9,22
			c6.9,0,11.3-2.2,11.3-7.3C699.6,374.1,626.3,386.2,626.3,336.6z M561.4,292.6h46.8v141.5h-46.8V292.6z M547.3,496H669v406.2H556.6
			L396.7,694.8v207.4H274.4V496h112.4l160.5,208.6V496z M406.5,292.6h46.8v54.9h43.8v-54.9H544v141.5h-46.8V383h-43.8v51.1h-46.8
			V292.6z M270.9,292.6h127.4v36.9h-40.4v104.6H311V329.5h-40.2V292.6z M735.6,1374.4h-117v-222.5L549,1335H461l-69.5-183.1v222.5
			h-117V968.2h142l88.6,212.1l88.6-212.1h142V1374.4z M1142.3,1374.4H793.5V968.2h343.6v102H928v49.8h190v102H928v50.4h214.4V1374.4
			z M1369.5,1374.4h-176.1V968.2h181.4c133.8,0,220.8,79.4,220.8,202.8C1595.4,1294.4,1506.8,1374.4,1369.5,1374.4z M1479,902.2
			l-56.2-242.8l-57.9,242.8h-138.5L1094.8,496h143.7l61.4,266.5l60.3-265.9l130.9-0.6l61.4,266.5l60.3-266.5h137.3l-132.7,406.2
			H1479z M1767.5,1374.4h-134.4V968.2h134.4V1374.4z M2122.1,1374.4l-20.3-57.4h-152.4l-20.9,57.4h-137.9l171.5-406.2h137.9
			l165.1,406.2H2122.1z"/>
	</g>
	<g>
		<path class="st3" d="M2269.2,252.6v1121.8H274.9V252.6H2269.2 M2549.2-27.4h-280H274.9h-280v280v1121.8v280h280h1994.3h280v-280
			V252.6V-27.4L2549.2-27.4z"/>
	</g>
</g>
</svg>
