<svg id="Layer_1" data-name="Layer 1" xmlns="http://www.w3.org/2000/svg" viewBox="0 0 2233.36 1461.12"><defs><style>.cls-1{fill:#fff;}</style></defs><title>new_media_white_tim1</title><path class="cls-1" d="M2081.36,152V1309.12H152V152H2081.36m152-152H0V1461.12H2233.36V0h0Z"/><g id="MAIN"><path class="cls-1" d="M1382.07,935.39q-8.3-4.32-20.09-4.32-21.84,0-34.05,14.19t-14.41,36.45h90.37Q1403.89,947.18,1382.07,935.39Z"/><path class="cls-1" d="M1358,720.22q0,11.79,9.6,20.3t30.78,8.51q21.17,0,34.93-14.19T1448,699.26q-25.77-7-48-7Q1358,692.26,1358,720.22Z"/><path class="cls-1" d="M1065.11,660.82q-0.86-22.7-15.28-37.11-13.1-13.1-34.93-13.1T978.44,628.3Q963.81,646,963.82,675.67t14.84,47.81q14.83,18.12,37.55,18.12,18.77,0,33.61-14.84,15.28-15.28,15.28-38.42V660.82h0Z"/><path class="cls-1" d="M652.31,934.51q-23.35,0-38.2,16.81t-14.85,50.43q0,33.62,13.31,50.43T649,1069q23.14,0,38-16.81t14.84-50.43q0-33.61-13.1-50.43T652.31,934.51Z"/><path class="cls-1" d="M1541,1045.84q0,11.79,9.6,20.3t30.78,8.51q21.17,0,34.93-14.19t14.63-35.59q-25.77-7-48-7Q1541,1017.9,1541,1045.84Z"/><path class="cls-1" d="M141.2,140L126.72,1339.29l1979.2-9.09V130.91L251.28,140H141.2Zm771,292.18q-3.26-2.59-10.22-4.78l-23-8.26Q853.3,410.23,853.3,390q0-13.48,12.07-21.62t32.39-8.15q20.32,0,31.3,8.91t11.41,22.38H916.33a10.6,10.6,0,0,0-5-8.26q-4.57-3-13-3t-13.15,3.36q-4.68,3.37-4.67,7.72,0,7.61,12.82,11.31l25,9.34q12.39,4.13,19,10.54t6.63,16.63q0,13-12.39,22.6-12.83,10-33.91,10t-33.92-9.26q-12.83-9.24-13-25.95h23.91q0.43,15,22,15,8.26,0,13.58-3.59t5.33-8.36A8.93,8.93,0,0,0,912.19,432.18ZM792.22,318q4.13-4,11.74-4,7.39,0,11.63,4t4.24,11q0,6.92-4.24,11T804,344q-7.61,0-11.74-4t-4.13-11q0-7,4.13-11V318Zm24.56,44.88v105.8H791.14V362.83h25.65v0.05Zm-145.4,69.29q-3.26-2.59-10.22-4.78l-23-8.26q-25.65-8.91-25.65-29.12,0-13.48,12.07-21.62t32.39-8.15q20.32,0,31.3,8.91t11.37,22.38H675.52a10.6,10.6,0,0,0-5-8.26q-4.57-3-13-3t-13.15,3.36q-4.68,3.37-4.67,7.72,0,7.61,12.82,11.31l25,9.34q12.39,4.13,19,10.54t6.63,16.63q0,13-12.39,22.6-12.83,10-33.91,10t-33.92-9.26q-12.83-9.24-13-25.95h23.91q0.43,15,22,15,8.26,0,13.58-3.59t5.33-8.36A8.93,8.93,0,0,0,671.38,432.18ZM551.41,318q4.13-4,11.74-4,7.39,0,11.63,4T579,329q0,6.92-4.24,11t-11.63,4q-7.61,0-11.74-4t-4.13-11q0-7,4.13-11V318ZM576,362.89v105.8H550.33V362.83H576v0.05ZM412.74,319.64h25.63v60.64q10.86-20,31.74-20t30.75,12.82q9.89,12.83,9.89,33.91v61.73H485.08V407q0-11.74-5.65-17.71t-15.86-6q-10.22,0-17.5,9.13t-7.7,27.34v48.91H412.75v-149ZM313.64,363h14.78V335.23h25.65V363h28.68v17.17H354.07v58.25q0,13,12.39,13,6.3,0,16.3-3.46l3.69,18q-14.34,5.65-22.6,5.65a48.11,48.11,0,0,1-14.45-2,32.67,32.67,0,0,1-11-5.86q-10-8.91-10-24.56V380.25H313.64V363Zm189.59,744.76H451.71v-124q0-23.57-11.35-35.58t-31.87-12q-20.53,0-35.14,18.34t-15.5,55v98.23H306.32V895.66h45L357,932.33q21-42.38,67.24-42.38,39.3,0,59.16,25.76t19.89,68.11v124h0Zm14-479.27q-13.09,17.89-14,54.11v99.54H451.71v-124q0-23.58-11.35-35.59t-31.87-12q-20.53,0-35.14,18.34t-15.5,55v98.23H306.32V570h45L357,606.68q21-42.38,67.24-42.38,26.62,0,44.31,12.22t26.42,33.61q20.52-45.84,72-45.84,38,0,58.94,25.76Q646,614.55,646,658.2v124h-51.9v-124q0-23.58-11.35-35.59t-31.9-12Q530.28,610.61,517.2,628.53ZM723.25,1086Q696.18,1114,650.79,1114T577.44,1086q-30.13-30.13-30.13-83.83,0-54.57,30.13-84.7Q605,890,650.79,890a117.64,117.64,0,0,1,40.16,6.76,84.1,84.1,0,0,1,32.31,20.76q30.13,30.57,30.13,84.7,0,53.23-30.13,83.79v0Zm-4.32-328.26q-29.25-31.87-29.25-81.64,0-51.08,29.25-82.08,27.93-29.69,70.29-29.69,44.11,0,68.54,31a96.92,96.92,0,0,1,16.34,32.31q5.46,18.34,5.46,33.61a196.48,196.48,0,0,1-1.73,27.51H740.72q0.86,25.77,12.66,41.91t35.8,16.16q31.87,0,38-27.94h52q-5.24,31.87-29.25,50.17Q825,788.3,789.18,788.3q-41.91,0-70.28-30.55Zm277.23,350.1H944.61v-38.44Q924.52,1111.8,880,1111.8q-56.32,0-74.22-44.11-6.55-15.28-6.55-37.11V895.22h51.52v130.1q0,21,10,31.22a33.16,33.16,0,0,0,24.67,10.26q14.62,0,24.67-4.15a47.58,47.58,0,0,0,17.46-12.44q16.15-18.77,17-50.17V895.22h51.52v212.61ZM940.28,757.33Q911.89,725,911.9,675.25T939,594.49q26.62-30.13,66.36-30.13t59.81,31.87V482.7h52V782.19h-42.38l-6.12-32.74q-19.64,38.86-60.25,38.86t-68.11-31Zm227.89,350.53H1110.1l-79-212.18h59.37l48.44,161.1,48.9-161.1h59.35Zm23.58-325.65V569.59h51.52V782.21h-51.52Zm49.11-258.68q-8.51,8.09-23.35,8.08-15.28,0-23.57-8.08t-8.3-22q0-14,8.3-22t23.57-8.08q14.83,0,23.35,8.08t8.51,22q0,14-8.55,22Zm84.91,532.83q11.79,16.16,35.8,16.15,31.87,0,38-27.94h52q-5.24,31.88-29.25,50.17-24.89,19.22-60.69,19.21-41.91,0-70.29-30.56-29.25-31.87-29.25-81.64,0-51.08,29.25-82.08Q1319.21,890,1361.57,890q44.11,0,68.54,31a96.88,96.88,0,0,1,16.37,32.31q5.46,18.34,5.46,33.61a196.46,196.46,0,0,1-1.73,27.51H1313.08q0.86,25.75,12.65,41.9Zm124.86-302.5q-20.53,34.5-62.87,34.49-41,0-63.74-20.09-21-19.2-21-48.68t23.14-45.4q23.14-15.93,63.31-15.93,25.32,0,58.5,8.3v-21q0-22.26-9-33t-29.31-10.73q-20.3,0-31.22,8.08t-10.92,22.92H1311.3q0-36.23,25.54-52.39t71.38-16.16q65.49,0,84.7,45.84,6.55,15.72,6.55,37.11V782.22h-45Zm231.82,354h-45l-3.93-28.38Q1613,1114,1570.68,1114q-41,0-63.74-20.09-21-19.2-21-48.68t23.14-45.4q23.14-15.93,63.31-15.93,25.32,0,58.5,8.3v-21q0-22.26-9-33t-29.25-10.7q-20.3,0-31.22,8.08t-10.92,22.92h-56.32q0-36.23,25.54-52.39T1591.18,890q65.49,0,84.7,45.84,6.55,15.72,6.55,37.11v134.94Zm256.71,0h-51.52v-38.47q-20.09,42.38-64.61,42.38-56.32,0-74.22-44.11-6.55-15.28-6.55-37.11V895.22h51.52v130.1q0,21,10,31.22a33.16,33.16,0,0,0,24.67,10.26q14.62,0,24.67-4.15a47.58,47.58,0,0,0,17.46-12.44q16.15-18.77,17-50.17V895.22h51.48v212.61Z"/><path class="cls-1" d="M809.7,609.74q-8.3-4.32-20.09-4.32-21.84,0-34.05,14.19T741.12,656h90.42Q831.53,621.53,809.7,609.74Z"/></g></svg>