<?xml version="1.0" encoding="utf-8"?>
<!-- Generator: Adobe Illustrator 19.1.0, SVG Export Plug-In . SVG Version: 6.00 Build 0)  -->
<svg version="1.1" xmlns="http://www.w3.org/2000/svg" xmlns:xlink="http://www.w3.org/1999/xlink" x="0px" y="0px"
	 viewBox="0 0 2529.6 1640" style="enable-background:new 0 0 2529.6 1640;" xml:space="preserve">
<style type="text/css">
	.st0{display:none;}
	.st1{display:inline;fill:#231F20;}
	.st2{display:inline;}
	.st3{fill:#FFFFFF;}
</style>
<g id="Layer_2" class="st0">
	<rect x="-193.4" y="-184" class="st1" width="2984" height="2048"/>
</g>
<g id="Layer_1" class="st0">
	<g class="st2">
		<path d="M466.5,341.5l-89.6,154.8l-89.5-154.8H466.5z"/>
		<path d="M541,418c-7.7,6.2-14.9,10.9-21.5,14.1c-6.6,3.3-12.2,4.9-16.8,4.9c-5,0-9.3-1.6-12.7-4.9c-3.5-3.3-5.9-7.9-7.3-13.9
			c1.4-6.1,3.8-10.8,7.3-14c3.5-3.3,7.7-4.9,12.7-4.9c4.4,0,10,1.6,16.5,4.8C525.9,407.3,533.1,411.9,541,418z M541.4,393.1
			l-4.8,4.8l-44.2-44.3l4.8-4.8L541.4,393.1z M541.4,443.1l-44.2,44.3l-4.8-4.9l44.2-44.2L541.4,443.1z M561.5,339.2
			c6.1,1.4,10.8,3.9,14,7.4c3.3,3.5,4.9,7.7,4.9,12.7c0,4.4-1.6,9.9-4.8,16.5s-7.8,13.8-13.9,21.8c-6.2-7.9-10.8-15.2-14.1-21.8
			s-4.8-12-4.8-16.5c0-5,1.6-9.3,4.8-12.7C550.9,343.1,555.5,340.7,561.5,339.2z M561.5,438.7c6.2,8,10.8,15.3,14.1,21.7
			s4.8,11.9,4.8,16.3c0,5-1.6,9.3-4.8,12.7c-3.2,3.5-7.8,5.9-13.9,7.4c-6.2-1.4-10.8-3.9-14.1-7.3s-4.8-7.7-4.8-12.8
			c0-4.4,1.6-9.9,4.8-16.5S555.5,446.5,561.5,438.7z M580,418c0,5.2-1.8,9.5-5.3,13.1c-3.5,3.6-7.9,5.4-12.9,5.4
			c-5.2,0-9.5-1.8-13.1-5.3c-3.6-3.5-5.4-7.9-5.4-13.2c0-5,1.8-9.3,5.3-12.9c3.5-3.6,7.9-5.4,12.9-5.4c5.2,0,9.5,1.8,13.1,5.3
			C578.2,408.6,580,412.9,580,418z M630.8,353.7L586.6,398l-4.8-4.8l44.3-44.3L630.8,353.7z M630.8,482.4l-4.8,4.9l-44.3-44.3
			l4.8-4.8L630.8,482.4z M640.3,418c-1.3,6-3.7,10.7-7.1,14c-3.5,3.3-7.8,5-12.8,5c-4.4,0-10-1.6-16.5-4.8
			c-6.6-3.2-13.8-7.9-21.6-14c7.9-6.1,15.1-10.8,21.5-14c6.5-3.3,12-4.9,16.6-4.9c4.9,0,9.1,1.6,12.6,4.9
			C636.4,407.4,638.8,412,640.3,418z"/>
		<path d="M764.3,435.6c2.2-2.2,4.5-3.9,6.8-4.9c2.3-1.1,4.7-1.6,7.3-1.6c5.2,0,9.7,1.9,13.4,5.6c3.7,3.8,5.6,8.3,5.6,13.5
			c0,5.2-1.8,9.6-5.5,13.2s-8.2,5.3-13.5,5.3c-5.2,0-9.7-1.8-13.3-5.4c-3.6-3.6-5.4-8-5.4-13.3c0-1.1,0.1-2.2,0.2-3.2
			c0.1-1,0.4-1.9,0.8-2.7l-30.4-17.6v35.1c5.2,1.6,9,4,11.4,7s3.7,6.8,3.7,11.3c0,5.3-1.8,9.8-5.4,13.5c-3.6,3.7-8,5.5-13.3,5.5
			c-5.3,0-9.8-1.8-13.4-5.5s-5.5-8.2-5.5-13.5c0-4.3,1.3-8,3.8-11c2.5-3,6.3-5.5,11.4-7.3v-34.9L692.7,442c0.3,0.9,0.5,1.8,0.6,2.7
			c0.1,1,0.2,2,0.2,3.2c0,5.3-1.8,9.8-5.4,13.4c-3.6,3.7-8,5.5-13.3,5.5c-5.2,0-9.7-1.9-13.4-5.6c-3.7-3.7-5.5-8.2-5.5-13.3
			c0-5.2,1.8-9.6,5.5-13.3c3.7-3.6,8.1-5.4,13.4-5.4c2.6,0,5.1,0.5,7.4,1.6c2.3,1,4.5,2.6,6.7,4.8l30.4-17.6l-30.6-17.5
			c-2.2,2.1-4.5,3.7-6.7,4.8c-2.3,1-4.7,1.6-7.4,1.6c-5.3,0-9.7-1.8-13.3-5.4c-3.6-3.6-5.4-8-5.4-13.3c0-5.2,1.8-9.6,5.5-13.3
			c3.7-3.7,8.1-5.6,13.2-5.6c5.2,0,9.7,1.8,13.4,5.5c3.7,3.7,5.5,8.1,5.5,13.4c0,1.1-0.1,2.2-0.2,3.2c-0.1,1-0.4,1.9-0.6,2.7
			l30.3,17.6v-35.2c-5.2-1.9-9-4.3-11.4-7.3s-3.7-6.7-3.7-11.2c0-5.2,1.8-9.6,5.5-13.2c3.7-3.7,8.1-5.5,13.4-5.5
			c5.2,0,9.6,1.8,13.2,5.5s5.5,8.1,5.5,13.2c0,4.6-1.3,8.4-3.8,11.4c-2.5,3-6.3,5.4-11.4,7v35.2l30.6-17.6c-0.4-1.1-0.7-2.2-0.9-3.2
			c-0.2-1-0.3-1.9-0.3-2.7c0-5.3,1.8-9.8,5.5-13.4c3.7-3.7,8.1-5.5,13.4-5.5c5.2,0,9.7,1.8,13.3,5.5s5.5,8.1,5.5,13.2
			c0,5.2-1.8,9.7-5.5,13.4c-3.7,3.7-8.1,5.5-13.3,5.5c-2.7,0-5.2-0.5-7.5-1.6c-2.3-1-4.5-2.6-6.6-4.8L734.3,418L764.3,435.6z"/>
		<path d="M992.7,494.1H813.7l89.5-154.9L992.7,494.1z"/>
		<path d="M1178.6,435.6c2.2-2.2,4.5-3.9,6.8-4.9c2.3-1.1,4.7-1.6,7.3-1.6c5.2,0,9.7,1.9,13.4,5.6c3.7,3.8,5.6,8.3,5.6,13.5
			c0,5.2-1.8,9.6-5.5,13.2s-8.2,5.3-13.5,5.3c-5.2,0-9.7-1.8-13.3-5.4c-3.6-3.6-5.4-8-5.4-13.3c0-1.1,0.1-2.2,0.2-3.2
			c0.1-1,0.4-1.9,0.8-2.7l-30.4-17.6v35.1c5.2,1.6,9,4,11.4,7s3.7,6.8,3.7,11.3c0,5.3-1.8,9.8-5.4,13.5c-3.6,3.7-8,5.5-13.3,5.5
			c-5.3,0-9.8-1.8-13.4-5.5s-5.5-8.2-5.5-13.5c0-4.3,1.3-8,3.8-11c2.5-3,6.3-5.5,11.4-7.3v-34.9l-30.3,17.4c0.3,0.9,0.5,1.8,0.6,2.7
			c0.1,1,0.2,2,0.2,3.2c0,5.3-1.8,9.8-5.4,13.4c-3.6,3.7-8,5.5-13.3,5.5c-5.2,0-9.7-1.9-13.4-5.6c-3.7-3.7-5.5-8.2-5.5-13.3
			c0-5.2,1.8-9.6,5.5-13.3c3.7-3.6,8.1-5.4,13.4-5.4c2.6,0,5.1,0.5,7.4,1.6c2.3,1,4.5,2.6,6.7,4.8l30.4-17.6l-30.6-17.5
			c-2.2,2.1-4.5,3.7-6.7,4.8c-2.3,1-4.7,1.6-7.4,1.6c-5.3,0-9.7-1.8-13.3-5.4c-3.6-3.6-5.4-8-5.4-13.3c0-5.2,1.8-9.6,5.5-13.3
			c3.7-3.7,8.1-5.6,13.2-5.6c5.2,0,9.7,1.8,13.4,5.5c3.7,3.7,5.5,8.1,5.5,13.4c0,1.1-0.1,2.2-0.2,3.2c-0.1,1-0.4,1.9-0.6,2.7
			l30.3,17.6v-35.2c-5.2-1.9-9-4.3-11.4-7.3s-3.7-6.7-3.7-11.2c0-5.2,1.8-9.6,5.5-13.2c3.7-3.7,8.1-5.5,13.4-5.5
			c5.2,0,9.6,1.8,13.2,5.5s5.5,8.1,5.5,13.2c0,4.6-1.3,8.4-3.8,11.4c-2.5,3-6.3,5.4-11.4,7v35.2l30.6-17.6c-0.4-1.1-0.7-2.2-0.9-3.2
			c-0.2-1-0.3-1.9-0.3-2.7c0-5.3,1.8-9.8,5.5-13.4c3.7-3.7,8.1-5.5,13.4-5.5c5.2,0,9.7,1.8,13.3,5.5s5.5,8.1,5.5,13.2
			c0,5.2-1.8,9.7-5.5,13.4c-3.7,3.7-8.1,5.5-13.3,5.5c-2.7,0-5.2-0.5-7.5-1.6c-2.3-1-4.5-2.6-6.6-4.8l-30.3,17.5L1178.6,435.6z"/>
		<path d="M1406.9,494.1h-179.1l89.5-154.9L1406.9,494.1z"/>
		<path d="M627.8,872.1h-333v-333h333V872.1z"/>
		<path d="M962,777.7l-13.1,22.5l-63.8-39.4v71l-63.3-36.6l2.3,76.9h-26l2.6-76.9l-63.5,36.6v-71l-63.8,39.4l-12.9-22.5l67.5-36.6
			l-61.4-35.6l61.9-35.4l-68-36.6l12.9-22.5l63.8,39.4v-70.5l63.5,36.3l-2.6-77.1h26l-2.3,77.1l63.3-36.3v70.5l63.8-39.4l13.1,22.5
			l-68.2,36.6l61.9,35.4l-61.4,35.6L962,777.7z M794,705.5l-55.8-30.2l-52.3,30.2l51.8,30.2L794,705.5z M802.6,690.7l-1.9-63.3
			L746.8,596v60L802.6,690.7z M802.6,720.5l-55.8,34.5v60.5l53.9-31.2L802.6,720.5z M875.5,656v-60l-53.7,31.4l-1.9,63.3L875.5,656z
			 M875.5,815.4v-60.5L820,720.5l1.9,63.8L875.5,815.4z M936.5,705.5l-52.3-30.2l-55.8,30.2l56.2,30.2L936.5,705.5z"/>
		<path d="M997.4,534.2c15.3,0.8,29.8,2.9,43.5,6.4c13.7,3.5,26.7,8.6,39,15.1c28,15.2,49.8,36.1,65.6,62.7
			c15.8,26.6,23.7,55.8,23.7,87.5c0,31.6-7.9,60.8-23.8,87.7c-15.9,26.9-37.7,48.3-65.5,64.2c-11.6,6.4-24.2,11.3-38,14.6
			c-13.8,3.4-28.6,5.1-44.5,5.3V534.2z"/>
		<path d="M680.1,1084c0,29.7-7.2,57.1-21.6,82.3c-14.4,25.2-34.4,45.3-60,60.5c-16.4,9.7-34.2,17-53.3,21.9
			c-19.1,4.9-39.3,7.4-60.4,7.4c-16.4,0-32-1.4-46.8-4.1s-27.2-6.5-37.4-11.4c-34.2-16.2-60.1-37.6-77.7-64.1s-26.4-57.3-26.4-92.5
			s8.8-65.9,26.4-92.3c17.6-26.4,43.5-47.7,77.7-64c9.8-4.8,22.2-8.6,37-11.4c14.8-2.7,30.5-4.1,47.1-4.1c20.9,0,41,2.5,60.2,7.4
			s37,12.2,53.4,21.9c25.6,15.2,45.6,35.3,60,60.5C672.9,1027.1,680.1,1054.4,680.1,1084z M621,1084c0-21.1-3.8-41.1-11.4-59.9
			c-7.6-18.8-18.6-35.5-33.2-50c-14.4-14.4-31-25.4-49.8-33c-18.8-7.7-38.6-11.5-59.2-11.5c-21.6,0-41.8,3.7-60.6,11.1
			c-18.8,7.4-35.4,18.2-49.8,32.5c-14.8,14.5-26.1,31.3-33.8,50.2c-7.7,18.9-11.5,39.1-11.5,60.7c0,21.9,3.8,42.2,11.4,60.8
			c7.6,18.7,18.7,35.2,33.4,49.6c14.5,14.4,31.3,25.4,50.3,32.9c19,7.6,39.2,11.4,60.6,11.4c20.6,0,40.3-3.9,59.2-11.6
			c18.8-7.7,35.4-18.8,49.8-33.2c14.5-14.4,25.6-31,33.2-49.8C617.2,1125.2,621,1105.2,621,1084z"/>
		<path d="M1015.7,1155.7l-13.1,22.5l-63.8-39.4v71l-63.3-36.6l2.3,76.9h-26l2.6-76.9l-63.5,36.6v-71l-63.8,39.4l-12.9-22.5
			l67.5-36.6l-61.4-35.6l61.9-35.4l-68-36.6l12.9-22.5l63.8,39.4v-70.5l63.5,36.3l-2.6-77.1h26l-2.3,77.1l63.3-36.3v70.5l63.8-39.4
			l13.1,22.5l-68.2,36.6l61.9,35.4l-61.4,35.6L1015.7,1155.7z M847.6,1083.5l-55.8-30.2l-52.3,30.2l51.8,30.2L847.6,1083.5z
			 M856.3,1068.7l-1.9-63.3L800.5,974v60L856.3,1068.7z M856.3,1098.5l-55.8,34.5v60.5l53.9-31.2L856.3,1098.5z M929.2,1034v-60
			l-53.7,31.4l-1.9,63.3L929.2,1034z M929.2,1193.4v-60.5l-55.5-34.5l1.9,63.8L929.2,1193.4z M990.1,1083.5l-52.3-30.2l-55.8,30.2
			l56.2,30.2L990.1,1083.5z"/>
		<path d="M1228.3,1076.9c16.2-0.9,32.4-9.8,48.5-26.5l0.9-0.9c10.9-11.1,20.1-18.4,27.4-22c7.3-3.6,15.5-5.4,24.4-5.4
			c17.7,0,32.5,6,44.6,17.9c12.1,12,18.2,26.6,18.2,43.9c0,17.5-6.1,32.2-18.2,44.2c-12.1,12-27,17.9-44.6,17.9
			c-8.9,0-17.1-1.9-24.5-5.6c-7.4-3.8-16.5-11-27.3-21.8c-0.2,0-0.2-0.1-0.2-0.2c-16.6-17.2-33.1-26.1-49.7-26.7
			c1.1,16.1,9.7,32.1,25.8,48c0.6,0.6,1.1,1.1,1.4,1.4c10.8,10.8,18,19.9,21.8,27.4s5.6,15.6,5.6,24.4c0,17.7-6,32.6-17.9,44.8
			s-26.6,18.3-43.9,18.3c-17.5,0-32.2-6.1-44.1-18.2c-11.9-12.1-17.8-27.1-17.8-44.9c0-8.7,1.8-16.8,5.4-24.1
			c3.6-7.3,10.9-16.6,21.8-27.7c0.5-0.5,1.2-1.2,2.1-2.1c15.9-15.8,24.2-31.7,24.8-47.8c-15.9,1.3-32,9.9-48,26l-1.4,1.4
			c-10.9,10.9-20.1,18.2-27.4,21.9c-7.3,3.7-15.5,5.5-24.4,5.5c-18,0-32.9-5.9-44.9-17.8c-12-11.9-17.9-26.6-17.9-44.3
			c0-17.3,6.1-32,18.2-43.9c12.1-12,27-17.9,44.6-17.9c8.9,0,17,1.8,24.4,5.4c7.3,3.6,16.5,10.9,27.4,22c0.5,0.5,1.2,1.2,2.1,2.1
			c15.8,15.9,31.7,24.2,47.8,24.8c-0.9-15.8-9.3-31.6-25.1-47.3c-0.9-0.9-1.7-1.6-2.3-2.1c-10.9-11.1-18.2-20.3-21.8-27.7
			c-3.6-7.3-5.4-15.5-5.4-24.4c0-17.7,5.9-32.5,17.8-44.6c11.9-12.1,26.6-18.2,44.1-18.2c17.3,0,32,6.1,43.9,18.2
			c12,12.1,17.9,27,17.9,44.6c0,8.9-1.9,17.1-5.6,24.6s-11,16.6-21.8,27.4l-1.4,1.4C1237.3,1044.7,1228.9,1060.8,1228.3,1076.9z"/>
		<path d="M1663.5,1122.4c4.8-4.8,9.8-8.4,14.9-10.8c5.1-2.3,10.3-3.5,15.8-3.5c11.4,0,21.2,4.1,29.3,12.3
			c8.1,8.2,12.2,18,12.2,29.4c0,11.4-4,21-12,28.7s-17.8,11.6-29.5,11.6c-11.4,0-21.1-3.9-28.9-11.7c-7.9-7.8-11.8-17.5-11.8-29.1
			c0-2.5,0.2-4.8,0.5-6.9c0.3-2.1,0.9-4.1,1.6-6l-66.3-38.4v76.6c11.2,3.6,19.6,8.7,25,15.2s8.1,14.8,8.1,24.6
			c0,11.6-3.9,21.4-11.8,29.4c-7.9,8-17.5,12.1-28.9,12.1c-11.6,0-21.3-4-29.3-12.1s-12-17.8-12-29.4c0-9.4,2.7-17.4,8.2-24
			c5.5-6.6,13.7-11.9,24.8-15.8v-76.2l-66.1,38c0.6,1.9,1.1,3.9,1.4,6c0.3,2.1,0.5,4.4,0.5,6.9c0,11.6-3.9,21.3-11.8,29.3
			c-7.9,8-17.5,12-28.9,12c-11.4,0-21.1-4.1-29.2-12.2c-8-8.1-12.1-17.8-12.1-29.1c0-11.4,4-21.1,12.1-28.9
			c8-7.9,17.8-11.8,29.2-11.8c5.8,0,11.1,1.1,16.1,3.4c4.9,2.3,9.8,5.7,14.6,10.4l66.3-38.4l-66.8-38.2c-4.8,4.7-9.7,8.2-14.6,10.4
			c-4.9,2.3-10.3,3.4-16.1,3.4c-11.6,0-21.3-3.9-29.1-11.7c-7.8-7.8-11.7-17.5-11.7-29.1c0-11.2,4-20.9,12-29.1
			c8-8.1,17.6-12.2,28.8-12.2c11.4,0,21.1,4,29.2,12c8,8,12.1,17.7,12.1,29.3c0,2.5-0.2,4.8-0.5,6.9c-0.3,2.1-0.8,4.1-1.4,6
			l66.1,38.4v-76.9c-11.2-4.1-19.6-9.4-25-15.9s-8.1-14.7-8.1-24.4c0-11.2,4-20.9,12.1-28.8c8-8,17.8-12,29.2-12
			c11.2,0,20.9,4,28.8,12s12,17.6,12,28.8c0,10-2.7,18.3-8.2,25c-5.5,6.6-13.8,11.8-24.8,15.4v76.9l66.8-38.4
			c-0.9-2.5-1.6-4.8-2-6.9c-0.4-2.1-0.6-4.1-0.6-6c0-11.6,4-21.3,12.1-29.3c8-8,17.8-12,29.2-12c11.4,0,21.1,4,29.1,12
			s12,17.6,12,28.8c0,11.4-4,21.1-12,29.2c-8,8-17.7,12.1-29.1,12.1c-5.9,0-11.4-1.1-16.4-3.4c-5-2.3-9.8-5.7-14.3-10.4l-66.1,38.2
			L1663.5,1122.4z"/>
		<path d="M2065.2,1034c13.6,0,25.1,4.8,34.5,14.4s14.1,21.4,14.1,35.5c0,14.2-4.7,26.1-14.1,35.6c-9.4,9.5-20.9,14.3-34.5,14.3
			h-3.3l1.4,1.6c5,5,8.7,10.3,11.2,15.8c2.5,5.5,3.8,11.6,3.8,18.2c0,14.2-5,26.2-14.9,36.1c-9.9,9.8-21.9,14.8-36,14.8
			c-6.6,0-12.9-1.2-18.9-3.8c-6-2.5-11.3-6-15.8-10.5l-1.4-1.6l0.5,2.1v1.4c0,13.1-4.8,24.4-14.5,33.9c-9.7,9.5-21.5,14.2-35.4,14.2
			c-13.9,0-25-4-33.3-12c-8.3-8-14-20-17.1-36.1l0.5-1.4v-2.1l-1.4,1.6c-4.7,4.5-10,8-15.9,10.5c-5.9,2.5-12.2,3.8-18.8,3.8
			c-14.1,0-26.1-4.9-36-14.8c-9.9-9.8-14.9-21.9-14.9-36.1c0-6.6,1.2-12.6,3.8-18.2c2.5-5.5,6.2-10.8,11.2-15.8l1.4-1.6h-3.3
			c-13.6,0-25.1-4.8-34.5-14.3c-9.4-9.5-14.1-21.4-14.1-35.6c0-14.1,4.7-25.9,14.1-35.5s20.9-14.4,34.5-14.4h3.3l-1.4-1.4
			c-5-5-8.8-10.3-11.2-15.9c-2.5-5.6-3.8-11.6-3.8-18c0-14.2,5-26.2,14.9-36.1c9.9-9.8,21.9-14.8,36-14.8c6.6,0,12.8,1.3,18.8,3.8
			c5.9,2.5,11.2,6,15.9,10.5l1.4,1.4l-0.5-1.9v-1.4c0-13.4,4.8-24.8,14.3-34.1c9.5-9.3,21.4-13.9,35.6-13.9
			c13.7,0,24.8,3.9,33.2,11.8c8.4,7.9,14.1,20,17.2,36.2l-0.5,1.4v1.9l1.4-1.4c4.5-4.5,9.8-8,15.8-10.5c6-2.5,12.3-3.8,18.9-3.8
			c14.1,0,26.1,5,36,14.9c9.9,9.9,14.9,21.9,14.9,36c0,6.4-1.3,12.4-3.8,18c-2.5,5.6-6.3,10.9-11.2,15.9l-1.4,1.4H2065.2z
			 M1888.7,1103.2c-0.2,0-0.4-0.7-0.7-2.1c-0.3-1.4-0.6-2.6-0.9-3.5c-15.6,4.1-28,7-37.1,8.8c-9.1,1.8-16.4,2.7-21.7,2.7
			c-9.1,0-16.3-2.3-21.7-6.8c-5.4-4.5-8.1-10.6-8.1-18.3c0-7.3,2.7-13.3,8.1-17.9c5.4-4.6,12.5-6.9,21.2-6.9
			c5.2,0,12.3,0.9,21.4,2.6c9.1,1.7,21.8,4.7,37.9,8.9c0.3-0.3,0.6-1.1,0.8-2.3c0.2-1.2,0.4-2.4,0.6-3.5
			c-15.8-6.7-28.9-11.6-39.3-14.8c-10.4-3.1-19-4.7-25.9-4.7c-12.5,0-22.7,3.6-30.7,10.8c-8,7.2-12,16.5-12,27.9
			c0,11.6,3.9,20.9,11.8,28.1c7.9,7.2,18.2,10.8,30.8,10.8c7.3,0,16.4-1.6,27.1-4.8C1861.1,1114.9,1873.9,1109.9,1888.7,1103.2z
			 M1918,1033.1c-10-26.6-19.9-45.6-29.6-57.1c-9.8-11.5-20.7-17.2-32.9-17.2c-10.8,0-20,3.8-27.5,11.4c-7.6,7.6-11.4,16.9-11.4,28
			c0,12,5.6,22.8,16.9,32.3c11.2,9.5,30.3,19.5,57.2,30l2.8-5.9c-23.8-13.3-39.7-23.8-47.8-31.5c-8.1-7.7-12.2-15.6-12.2-23.6
			c0-6.4,2.4-12,7.1-16.8c4.8-4.8,10.2-7.1,16.3-7.1c7.7,0,15.2,3.8,22.6,11.2c7.4,7.5,18.5,23.9,33.2,49.2L1918,1033.1z
			 M1917.8,1134.8c-0.8-0.3-1.6-0.7-2.3-1.1c-0.8-0.4-1.6-0.9-2.6-1.5c-14.8,25.2-26,41.5-33.4,49c-7.4,7.5-15,11.2-22.6,11.2
			c-6.3,0-11.7-2.4-16.4-7.1c-4.7-4.8-7-10.3-7-16.8c0-8,4.1-15.8,12.2-23.6c8.1-7.7,24.1-18.3,47.8-31.8l-2.8-5.6
			c-26.9,10.3-45.9,20.3-57.2,29.9s-16.9,20.4-16.9,32.5c0,10.9,3.8,20.2,11.5,27.9c7.7,7.7,16.8,11.5,27.4,11.5
			c12.2,0,23.2-5.7,32.9-17.2C1898.1,1180.6,1907.9,1161.5,1917.8,1134.8z M1986,1084c0-12.2-4.3-22.6-12.9-31.2
			c-8.6-8.6-19-12.9-31.2-12.9c-12.5,0-23.1,4.3-31.8,12.9c-8.7,8.6-13,19-13,31.2c0,12.5,4.3,23,12.9,31.5
			c8.6,8.5,19.1,12.8,31.4,12.8c12.3,0,22.9-4.3,31.5-12.9C1981.7,1106.8,1986,1096.3,1986,1084z M1980.4,961.6
			c-2.2-12.8-6.5-22.4-12.9-28.8c-6.4-6.4-14.9-9.6-25.5-9.6c-11.7,0-21.2,3.9-28.5,11.7c-7.3,7.8-10.9,18-10.9,30.7
			c0,6.9,1.6,15.7,4.8,26.5c3.2,10.8,8.2,23.8,14.9,39.1c0.9-0.3,1.8-0.6,2.7-0.9c0.9-0.3,2-0.6,3.4-0.9c-5-20.2-8.2-33.9-9.7-41.4
			c-1.5-7.4-2.2-13.3-2.2-17.7c0-8.7,2.3-15.8,7-21.2s10.7-8.1,18-8.1c7.5,0,13.6,2.7,18.3,8.1s7,12.5,7,21.2
			c0,4.8-0.8,11.2-2.3,19.2c-1.6,8-4.8,21.3-9.6,39.8c0.5,0.2,1.4,0.4,2.7,0.8c1.3,0.4,2.5,0.7,3.6,1.1
			c6.7-15.5,11.6-28.6,14.6-39.3c3-10.7,4.6-19.9,4.6-27.5V961.6z M1922.2,1136.9c-6.7,15.3-11.7,28.4-14.9,39.1
			c-3.2,10.8-4.8,19.6-4.8,26.5c0,12.7,3.6,22.9,10.8,30.6c7.2,7.7,16.6,11.6,28.1,11.6c11.6,0,21-3.9,28.4-11.8
			c7.3-7.9,11-18.2,11-30.8c0-6.7-1.5-15.1-4.6-25.2s-8.1-23.4-15.1-40c-1.1,0.5-2.9,1-5.4,1.6c-0.3,0.2-0.6,0.2-0.9,0.2
			c5.2,20.2,8.4,33.9,9.8,41.4c1.4,7.4,2.1,13.3,2.1,17.7c0,8.6-2.3,15.6-6.9,21.1c-4.6,5.5-10.6,8.2-17.9,8.2
			c-7.5,0-13.6-2.7-18.4-8.1c-4.8-5.4-7.1-12.5-7.1-21.2c0-5.2,0.8-11.8,2.5-20s4.9-21.2,9.7-39c-0.3,0-0.7-0.1-1.2-0.2
			C1925.1,1137.9,1923.3,1137.4,1922.2,1136.9z M1992.8,1060.5c26.9-10.5,45.9-20.5,57.1-30c11.2-9.5,16.8-20.3,16.8-32.3
			c0-10.9-3.8-20.2-11.4-27.9c-7.6-7.7-16.7-11.5-27.3-11.5c-12.2,0-23.2,5.7-32.9,17.2c-9.8,11.5-19.6,30.6-29.4,57.3
			c0.6,0.3,1.4,0.7,2.2,1.2c0.9,0.5,1.8,0.9,2.7,1.4c13.7-24.1,24.5-40.1,32.3-48.2c7.8-8,15.6-12.1,23.4-12.1
			c6.2,0,11.8,2.4,16.5,7.1c4.8,4.8,7.1,10.4,7.1,16.8c0,8-4.1,15.8-12.2,23.6c-8.1,7.7-24.1,18.3-47.8,31.8
			c0.8,1.3,1.4,2.3,1.8,3.2C1992.1,1058.9,1992.5,1059.7,1992.8,1060.5z M1965.6,1134.8c9.8,26.7,19.6,45.8,29.4,57.3
			c9.8,11.5,20.7,17.2,32.9,17.2c10.5,0,19.5-3.9,27.2-11.6c7.7-7.7,11.5-17,11.5-27.8c0-12-5.6-22.9-16.8-32.5
			c-11.2-9.6-30.2-19.6-57.1-29.9l-2.8,5.6c23.7,13.4,39.7,24,47.8,31.8c8.1,7.7,12.2,15.6,12.2,23.6c0,6.4-2.3,12-7,16.8
			c-4.7,4.8-10.2,7.1-16.6,7.1c-7.8,0-15.6-4.1-23.4-12.2c-7.8-8.1-18.6-24.2-32.3-48.3c-0.6,0.3-1.9,1-3.8,2.1
			C1966.3,1134.4,1965.9,1134.7,1965.6,1134.8z M1994.7,1103.2c15.3,6.9,28.2,11.9,38.8,15c10.5,3.1,19.4,4.7,26.6,4.7
			c12.7,0,22.9-3.6,30.8-10.8c7.9-7.2,11.8-16.6,11.8-28.1c0-11.4-4-20.7-12-27.9c-8-7.2-18.2-10.8-30.7-10.8
			c-6.9,0-15.5,1.6-26,4.7c-10.5,3.1-23.5,8-39.1,14.8c0.2,1.4,0.4,2.6,0.6,3.5s0.4,1.7,0.6,2.3c15.8-4.1,28.2-7,37.4-8.8
			c9.1-1.8,16.4-2.7,21.7-2.7c8.9,0,16.1,2.3,21.6,6.9c5.5,4.6,8.2,10.6,8.2,17.9c0,7.3-2.7,13.4-8.1,18s-12.5,7-21.2,7
			c-5.5,0-12.8-0.9-22-2.7c-9.2-1.8-21.6-4.7-37.3-8.8c-0.6,1.4-1.1,2.6-1.3,3.6C1994.8,1102.2,1994.7,1102.9,1994.7,1103.2z"/>
	</g>
</g>
<g id="Layer_3">
	<path class="st3" d="M2556,1664.2H-33.2V-31H2556V1664.2z M234.1,344.4l89.5,154.8l89.6-154.8H234.1z M466,407
		c-6.6-3.2-12.1-4.8-16.5-4.8c-5,0-9.3,1.6-12.7,4.9c-3.5,3.3-5.9,7.9-7.3,14c1.4,6,3.8,10.7,7.3,13.9c3.5,3.3,7.7,4.9,12.7,4.9
		c4.6,0,10.2-1.6,16.8-4.9c6.6-3.3,13.8-8,21.5-14.1C479.8,414.8,472.6,410.2,466,407z M444,351.8l-4.8,4.8l44.2,44.3l4.8-4.8
		L444,351.8z M483.3,441.2l-44.2,44.2l4.8,4.9l44.2-44.3L483.3,441.2z M494.3,349.5c-3.2,3.5-4.8,7.7-4.8,12.7
		c0,4.4,1.6,9.9,4.8,16.5s7.9,13.8,14.1,21.8c6-7.9,10.6-15.2,13.9-21.8s4.8-12,4.8-16.5c0-5-1.6-9.3-4.9-12.7
		c-3.3-3.5-7.9-5.9-14-7.4C502.2,343.5,497.6,346,494.3,349.5z M494.3,463.1c-3.2,6.6-4.8,12-4.8,16.5c0,5.1,1.6,9.3,4.8,12.8
		s7.9,5.9,14.1,7.3c6-1.4,10.6-3.9,13.9-7.4c3.2-3.5,4.8-7.7,4.8-12.7c0-4.4-1.6-9.9-4.8-16.3s-7.9-13.7-14.1-21.7
		C502.2,449.4,497.6,456.6,494.3,463.1z M521.3,407.9c-3.6-3.5-7.9-5.3-13.1-5.3c-5.1,0-9.4,1.8-12.9,5.4c-3.5,3.6-5.3,7.9-5.3,12.9
		c0,5.2,1.8,9.6,5.4,13.2c3.6,3.5,7.9,5.3,13.1,5.3c5.1,0,9.4-1.8,12.9-5.4c3.5-3.6,5.3-7.9,5.3-13.1
		C526.7,415.8,524.9,411.5,521.3,407.9z M572.6,351.8L528.4,396l4.8,4.8l44.3-44.3L572.6,351.8z M533.2,441.2l-4.8,4.8l44.3,44.3
		l4.8-4.9L533.2,441.2z M579.6,407c-3.5-3.3-7.7-4.9-12.6-4.9c-4.6,0-10.1,1.6-16.6,4.9c-6.5,3.3-13.7,7.9-21.5,14
		c7.8,6.1,15,10.7,21.6,14c6.6,3.2,12.1,4.8,16.5,4.8c5.1,0,9.4-1.7,12.8-5c3.5-3.3,5.9-8,7.1-14C585.5,414.9,583,410.3,579.6,407z
		 M680.9,420.9l30.3-17.5c2.1,2.1,4.3,3.7,6.6,4.8c2.3,1,4.8,1.6,7.5,1.6c5.2,0,9.7-1.8,13.3-5.5c3.7-3.7,5.5-8.1,5.5-13.4
		c0-5.2-1.8-9.6-5.5-13.2s-8.1-5.5-13.3-5.5c-5.2,0-9.7,1.8-13.4,5.5c-3.7,3.7-5.5,8.1-5.5,13.4c0,0.9,0.1,1.8,0.3,2.7
		c0.2,1,0.5,2,0.9,3.2L677,414.5v-35.2c5.1-1.6,8.9-4,11.4-7c2.5-3,3.8-6.9,3.8-11.4c0-5.2-1.8-9.6-5.5-13.2s-8.1-5.5-13.2-5.5
		c-5.2,0-9.7,1.8-13.4,5.5c-3.7,3.7-5.5,8.1-5.5,13.2c0,4.4,1.2,8.2,3.7,11.2s6.3,5.4,11.4,7.3v35.2l-30.3-17.6
		c0.3-0.9,0.5-1.8,0.6-2.7c0.1-1,0.2-2,0.2-3.2c0-5.3-1.8-9.8-5.5-13.4c-3.7-3.7-8.1-5.5-13.4-5.5c-5.2,0-9.6,1.9-13.2,5.6
		c-3.7,3.7-5.5,8.2-5.5,13.3c0,5.3,1.8,9.7,5.4,13.3c3.6,3.6,8,5.4,13.3,5.4c2.6,0,5.1-0.5,7.4-1.6c2.3-1,4.5-2.6,6.7-4.8l30.6,17.5
		l-30.4,17.6c-2.2-2.1-4.5-3.7-6.7-4.8c-2.3-1-4.7-1.6-7.4-1.6c-5.2,0-9.7,1.8-13.4,5.4c-3.7,3.6-5.5,8-5.5,13.3
		c0,5.2,1.8,9.6,5.5,13.3c3.7,3.7,8.1,5.6,13.4,5.6c5.2,0,9.6-1.8,13.3-5.5c3.6-3.7,5.4-8.1,5.4-13.4c0-1.1-0.1-2.2-0.2-3.2
		c-0.1-1-0.4-1.9-0.6-2.7l30.3-17.4v34.9c-5.1,1.8-8.9,4.2-11.4,7.3c-2.5,3-3.8,6.7-3.8,11c0,5.3,1.8,9.8,5.5,13.5s8.1,5.5,13.4,5.5
		c5.2,0,9.6-1.8,13.3-5.5c3.6-3.7,5.4-8.2,5.4-13.5c0-4.5-1.2-8.3-3.7-11.3s-6.3-5.3-11.4-7v-35.1l30.4,17.6
		c-0.4,0.9-0.6,1.8-0.8,2.7c-0.1,1-0.2,2-0.2,3.2c0,5.3,1.8,9.7,5.4,13.3c3.6,3.6,8,5.4,13.3,5.4c5.4,0,9.9-1.8,13.5-5.3
		s5.5-7.9,5.5-13.2c0-5.2-1.9-9.7-5.6-13.5c-3.7-3.8-8.2-5.6-13.4-5.6c-2.5,0-4.9,0.5-7.3,1.6c-2.3,1.1-4.6,2.7-6.8,4.9L680.9,420.9
		z M849.8,342.1L760.3,497h179.1L849.8,342.1z M1095.1,420.9l30.3-17.5c2.1,2.1,4.3,3.7,6.6,4.8c2.3,1,4.8,1.6,7.5,1.6
		c5.2,0,9.7-1.8,13.3-5.5c3.7-3.7,5.5-8.1,5.5-13.4c0-5.2-1.8-9.6-5.5-13.2s-8.1-5.5-13.3-5.5c-5.2,0-9.7,1.8-13.4,5.5
		c-3.7,3.7-5.5,8.1-5.5,13.4c0,0.9,0.1,1.8,0.3,2.7c0.2,1,0.5,2,0.9,3.2l-30.6,17.6v-35.2c5.1-1.6,8.9-4,11.4-7
		c2.5-3,3.8-6.9,3.8-11.4c0-5.2-1.8-9.6-5.5-13.2s-8.1-5.5-13.2-5.5c-5.2,0-9.7,1.8-13.4,5.5c-3.7,3.7-5.5,8.1-5.5,13.2
		c0,4.4,1.2,8.2,3.7,11.2s6.3,5.4,11.4,7.3v35.2l-30.3-17.6c0.3-0.9,0.5-1.8,0.6-2.7c0.1-1,0.2-2,0.2-3.2c0-5.3-1.8-9.8-5.5-13.4
		c-3.7-3.7-8.1-5.5-13.4-5.5c-5.2,0-9.6,1.9-13.2,5.6c-3.7,3.7-5.5,8.2-5.5,13.3c0,5.3,1.8,9.7,5.4,13.3c3.6,3.6,8,5.4,13.3,5.4
		c2.6,0,5.1-0.5,7.4-1.6c2.3-1,4.5-2.6,6.7-4.8l30.6,17.5l-30.4,17.6c-2.2-2.1-4.5-3.7-6.7-4.8c-2.3-1-4.7-1.6-7.4-1.6
		c-5.2,0-9.7,1.8-13.4,5.4c-3.7,3.6-5.5,8-5.5,13.3c0,5.2,1.8,9.6,5.5,13.3c3.7,3.7,8.1,5.6,13.4,5.6c5.2,0,9.6-1.8,13.3-5.5
		c3.6-3.7,5.4-8.1,5.4-13.4c0-1.1-0.1-2.2-0.2-3.2c-0.1-1-0.4-1.9-0.6-2.7l30.3-17.4v34.9c-5.1,1.8-8.9,4.2-11.4,7.3
		c-2.5,3-3.8,6.7-3.8,11c0,5.3,1.8,9.8,5.5,13.5s8.1,5.5,13.4,5.5c5.2,0,9.6-1.8,13.3-5.5c3.6-3.7,5.4-8.2,5.4-13.5
		c0-4.5-1.2-8.3-3.7-11.3s-6.3-5.3-11.4-7v-35.1l30.4,17.6c-0.4,0.9-0.6,1.8-0.8,2.7c-0.1,1-0.2,2-0.2,3.2c0,5.3,1.8,9.7,5.4,13.3
		c3.6,3.6,8,5.4,13.3,5.4c5.4,0,9.9-1.8,13.5-5.3s5.5-7.9,5.5-13.2c0-5.2-1.9-9.7-5.6-13.5c-3.7-3.8-8.2-5.6-13.4-5.6
		c-2.5,0-4.9,0.5-7.3,1.6c-2.3,1.1-4.6,2.7-6.8,4.9L1095.1,420.9z M1264,342.1L1174.5,497h179.1L1264,342.1z M574.4,542h-333v333
		h333V542z M840.9,744l61.4-35.6L840.5,673l68.2-36.6l-13.1-22.5l-63.8,39.4v-70.5l-63.3,36.3l2.3-77.1h-26l2.6,77.1l-63.5-36.3
		v70.5l-63.8-39.4l-12.9,22.5l68,36.6l-61.9,35.4l61.4,35.6l-67.5,36.6l12.9,22.5l63.8-39.4v71l63.5-36.6l-2.6,76.9h26l-2.3-76.9
		l63.3,36.6v-71l63.8,39.4l13.1-22.5L840.9,744z M684.4,738.6l-51.8-30.2l52.3-30.2l55.8,30.2L684.4,738.6z M693.5,658.9v-60
		l53.9,31.4l1.9,63.3L693.5,658.9z M747.4,787.1l-53.9,31.2v-60.5l55.8-34.5L747.4,787.1z M766.6,693.6l1.9-63.3l53.7-31.4v60
		L766.6,693.6z M768.5,787.1l-1.9-63.8l55.5,34.5v60.5L768.5,787.1z M831.3,738.6l-56.2-30.2l55.8-30.2l52.3,30.2L831.3,738.6z
		 M944.1,880.6c15.9-0.2,30.8-1.9,44.5-5.3c13.7-3.4,26.4-8.2,38-14.6c27.8-15.9,49.6-37.3,65.5-64.2c15.9-26.9,23.8-56.1,23.8-87.7
		c0-31.7-7.9-60.9-23.7-87.5c-15.8-26.6-37.7-47.5-65.6-62.7c-12.3-6.6-25.4-11.6-39-15.1c-13.7-3.5-28.2-5.7-43.5-6.4V880.6z
		 M605.1,1004.8c-14.4-25.2-34.4-45.3-60-60.5c-16.4-9.7-34.2-17-53.4-21.9s-39.3-7.4-60.2-7.4c-16.6,0-32.3,1.4-47.1,4.1
		c-14.8,2.7-27.2,6.5-37,11.4c-34.2,16.3-60.1,37.6-77.7,64c-17.6,26.4-26.4,57.2-26.4,92.3s8.8,66,26.4,92.5s43.5,47.9,77.7,64.1
		c10.2,4.8,22.6,8.6,37.4,11.4s30.4,4.1,46.8,4.1c21.1,0,41.2-2.5,60.4-7.4c19.1-4.9,36.9-12.2,53.3-21.9
		c25.6-15.2,45.6-35.3,60-60.5c14.4-25.2,21.6-52.6,21.6-82.3C626.7,1057.3,619.5,1030,605.1,1004.8z M556.3,1147
		c-7.6,18.8-18.6,35.4-33.2,49.8c-14.4,14.4-31,25.4-49.8,33.2c-18.8,7.7-38.6,11.6-59.2,11.6c-21.4,0-41.6-3.8-60.6-11.4
		c-19-7.6-35.7-18.6-50.3-32.9c-14.7-14.4-25.8-30.9-33.4-49.6c-7.6-18.7-11.4-38.9-11.4-60.8c0-21.6,3.8-41.8,11.5-60.7
		c7.7-18.9,18.9-35.6,33.8-50.2c14.4-14.2,31-25,49.8-32.5c18.8-7.4,39-11.1,60.6-11.1c20.6,0,40.3,3.8,59.2,11.5
		c18.8,7.7,35.4,18.7,49.8,33c14.5,14.5,25.6,31.2,33.2,50c7.6,18.8,11.4,38.8,11.4,59.9C567.6,1108.1,563.9,1128.1,556.3,1147z
		 M894.6,1122l61.4-35.6l-61.9-35.4l68.2-36.6l-13.1-22.5l-63.8,39.4v-70.5l-63.3,36.3l2.3-77.1h-26l2.6,77.1l-63.5-36.3v70.5
		l-63.8-39.4l-12.9,22.5l68,36.6l-61.9,35.4l61.4,35.6l-67.5,36.6l12.9,22.5l63.8-39.4v71l63.5-36.6l-2.6,76.9h26l-2.3-76.9
		l63.3,36.6v-71l63.8,39.4l13.1-22.5L894.6,1122z M738,1116.6l-51.8-30.2l52.3-30.2l55.8,30.2L738,1116.6z M747.2,1036.9v-60
		l53.9,31.4l1.9,63.3L747.2,1036.9z M801.1,1165.1l-53.9,31.2v-60.5l55.8-34.5L801.1,1165.1z M820.3,1071.6l1.9-63.3l53.7-31.4v60
		L820.3,1071.6z M822.2,1165.1l-1.9-63.8l55.5,34.5v60.5L822.2,1165.1z M885,1116.6l-56.2-30.2l55.8-30.2l52.3,30.2L885,1116.6z
		 M1200.2,1031.3l1.4-1.4c10.8-10.8,18-19.9,21.8-27.4s5.6-15.7,5.6-24.6c0-17.7-6-32.5-17.9-44.6c-12-12.1-26.6-18.2-43.9-18.2
		c-17.5,0-32.2,6.1-44.1,18.2c-11.9,12.1-17.8,27-17.8,44.6c0,8.9,1.8,17,5.4,24.4c3.6,7.3,10.9,16.6,21.8,27.7
		c0.6,0.5,1.4,1.2,2.3,2.1c15.8,15.8,24.1,31.6,25.1,47.3c-16.1-0.6-32-8.9-47.8-24.8c-0.9-0.9-1.6-1.6-2.1-2.1
		c-10.9-11.1-20.1-18.4-27.4-22c-7.3-3.6-15.5-5.4-24.4-5.4c-17.7,0-32.5,6-44.6,17.9c-12.1,12-18.2,26.6-18.2,43.9
		c0,17.7,6,32.4,17.9,44.3c12,11.9,26.9,17.8,44.9,17.8c8.9,0,17-1.8,24.4-5.5c7.3-3.7,16.5-11,27.4-21.9l1.4-1.4
		c16.1-16.1,32.1-24.8,48-26c-0.6,16.1-8.9,32-24.8,47.8c-0.9,0.9-1.6,1.6-2.1,2.1c-10.9,11.1-18.2,20.3-21.8,27.7
		c-3.6,7.3-5.4,15.4-5.4,24.1c0,17.8,5.9,32.8,17.8,44.9c11.9,12.1,26.6,18.2,44.1,18.2c17.3,0,32-6.1,43.9-18.3
		s17.9-27.1,17.9-44.8c0-8.7-1.9-16.9-5.6-24.4s-11-16.6-21.8-27.4c-0.3-0.3-0.8-0.8-1.4-1.4c-16.1-15.9-24.7-32-25.8-48
		c16.6,0.6,33.1,9.5,49.7,26.7c0,0.2,0.1,0.2,0.2,0.2c10.8,10.8,19.9,18,27.3,21.8c7.4,3.8,15.6,5.6,24.5,5.6
		c17.7,0,32.5-6,44.6-17.9c12.1-12,18.2-26.7,18.2-44.2c0-17.3-6.1-32-18.2-43.9c-12.1-12-27-17.9-44.6-17.9c-8.9,0-17,1.8-24.4,5.4
		c-7.3,3.6-16.5,10.9-27.4,22l-0.9,0.9c-16.1,16.7-32.3,25.5-48.5,26.5C1175.5,1063.7,1184,1047.5,1200.2,1031.3z M1544.5,1086.8
		l66.1-38.2c4.5,4.7,9.3,8.2,14.3,10.4c5,2.3,10.5,3.4,16.4,3.4c11.4,0,21.1-4,29.1-12.1c8-8,12-17.8,12-29.2c0-11.2-4-20.9-12-28.8
		s-17.7-12-29.1-12c-11.4,0-21.1,4-29.2,12c-8,8-12.1,17.7-12.1,29.3c0,1.9,0.2,3.9,0.6,6c0.4,2.1,1.1,4.4,2,6.9l-66.8,38.4v-76.9
		c11.1-3.6,19.4-8.7,24.8-15.4c5.5-6.6,8.2-15,8.2-25c0-11.2-4-20.9-12-28.8s-17.6-12-28.8-12c-11.4,0-21.1,4-29.2,12
		c-8,8-12.1,17.6-12.1,28.8c0,9.7,2.7,17.8,8.1,24.4s13.7,11.9,25,15.9v76.9l-66.1-38.4c0.6-1.9,1.1-3.9,1.4-6
		c0.3-2.1,0.5-4.4,0.5-6.9c0-11.6-4-21.3-12.1-29.3c-8-8-17.8-12-29.2-12c-11.2,0-20.9,4.1-28.8,12.2c-8,8.1-12,17.8-12,29.1
		c0,11.6,3.9,21.3,11.7,29.1c7.8,7.8,17.5,11.7,29.1,11.7c5.8,0,11.1-1.1,16.1-3.4c4.9-2.3,9.8-5.7,14.6-10.4l66.8,38.2l-66.3,38.4
		c-4.8-4.7-9.7-8.2-14.6-10.4c-4.9-2.3-10.3-3.4-16.1-3.4c-11.4,0-21.1,3.9-29.2,11.8c-8,7.9-12.1,17.5-12.1,28.9
		c0,11.2,4,20.9,12.1,29.1c8,8.1,17.8,12.2,29.2,12.2c11.4,0,21.1-4,28.9-12c7.9-8,11.8-17.7,11.8-29.3c0-2.5-0.2-4.8-0.5-6.9
		c-0.3-2.1-0.8-4.1-1.4-6l66.1-38v76.2c-11.1,3.9-19.4,9.2-24.8,15.8c-5.5,6.6-8.2,14.6-8.2,24c0,11.6,4,21.4,12,29.4
		s17.7,12.1,29.3,12.1c11.4,0,21.1-4,28.9-12.1c7.9-8,11.8-17.8,11.8-29.4c0-9.8-2.7-18-8.1-24.6s-13.7-11.6-25-15.2v-76.6
		l66.3,38.4c-0.8,1.9-1.3,3.9-1.6,6c-0.3,2.1-0.5,4.4-0.5,6.9c0,11.6,3.9,21.3,11.8,29.1c7.9,7.8,17.5,11.7,28.9,11.7
		c11.7,0,21.6-3.9,29.5-11.6s12-17.3,12-28.7c0-11.4-4.1-21.2-12.2-29.4c-8.1-8.2-17.9-12.3-29.3-12.3c-5.5,0-10.7,1.2-15.8,3.5
		c-5.1,2.3-10,5.9-14.9,10.8L1544.5,1086.8z M2008.6,1036.9l1.4-1.4c5-5,8.7-10.3,11.2-15.9c2.5-5.6,3.8-11.6,3.8-18
		c0-14.1-5-26.1-14.9-36c-9.9-9.9-21.9-14.9-36-14.9c-6.6,0-12.9,1.3-18.9,3.8c-6,2.5-11.3,6-15.8,10.5l-1.4,1.4v-1.9l0.5-1.4
		c-3.1-16.2-8.9-28.3-17.2-36.2c-8.4-7.9-19.4-11.8-33.2-11.8c-14.2,0-26.1,4.7-35.6,13.9c-9.5,9.3-14.3,20.7-14.3,34.1v1.4l0.5,1.9
		l-1.4-1.4c-4.7-4.5-10-8-15.9-10.5c-5.9-2.5-12.2-3.8-18.8-3.8c-14.1,0-26.1,4.9-36,14.8c-9.9,9.8-14.9,21.9-14.9,36.1
		c0,6.4,1.2,12.4,3.8,18c2.5,5.6,6.2,10.9,11.2,15.9l1.4,1.4h-3.3c-13.6,0-25.1,4.8-34.5,14.4s-14.1,21.4-14.1,35.5
		c0,14.2,4.7,26.1,14.1,35.6c9.4,9.5,20.9,14.3,34.5,14.3h3.3l-1.4,1.6c-5,5-8.8,10.3-11.2,15.8c-2.5,5.5-3.8,11.6-3.8,18.2
		c0,14.2,5,26.2,14.9,36.1c9.9,9.8,21.9,14.8,36,14.8c6.6,0,12.8-1.2,18.8-3.8c5.9-2.5,11.2-6,15.9-10.5l1.4-1.6v2.1l-0.5,1.4
		c3.1,16.1,8.8,28.1,17.1,36.1c8.3,8,19.4,12,33.3,12c13.9,0,25.7-4.7,35.4-14.2c9.7-9.5,14.5-20.7,14.5-33.9v-1.4l-0.5-2.1l1.4,1.6
		c4.5,4.5,9.8,8,15.8,10.5c6,2.5,12.3,3.8,18.9,3.8c14.1,0,26.1-4.9,36-14.8c9.9-9.8,14.9-21.9,14.9-36.1c0-6.6-1.3-12.6-3.8-18.2
		c-2.5-5.5-6.3-10.8-11.2-15.8l-1.4-1.6h3.3c13.6,0,25.1-4.8,34.5-14.3c9.4-9.5,14.1-21.4,14.1-35.6c0-14.1-4.7-25.9-14.1-35.5
		c-9.4-9.6-20.9-14.4-34.5-14.4H2008.6z M1797.1,1120.9c-10.7,3.2-19.7,4.8-27.1,4.8c-12.7,0-22.9-3.6-30.8-10.8
		c-7.9-7.2-11.8-16.6-11.8-28.1c0-11.4,4-20.7,12-27.9c8-7.2,18.2-10.8,30.7-10.8c6.9,0,15.5,1.6,25.9,4.7
		c10.4,3.1,23.5,8,39.3,14.8c-0.2,1.1-0.4,2.3-0.6,3.5c-0.2,1.3-0.5,2-0.8,2.3c-16.1-4.2-28.7-7.2-37.9-8.9
		c-9.1-1.7-16.3-2.6-21.4-2.6c-8.8,0-15.8,2.3-21.2,6.9c-5.4,4.6-8.1,10.6-8.1,17.9c0,7.7,2.7,13.8,8.1,18.3
		c5.4,4.5,12.6,6.8,21.7,6.8c5.3,0,12.5-0.9,21.7-2.7c9.1-1.8,21.5-4.7,37.1-8.8c0.3,0.9,0.6,2.1,0.9,3.5c0.3,1.4,0.5,2.1,0.7,2.1
		C1820.5,1112.8,1807.8,1117.7,1797.1,1120.9z M1859.3,1039c-14.7-25.3-25.7-41.7-33.2-49.2c-7.4-7.5-15-11.2-22.6-11.2
		c-6.1,0-11.5,2.4-16.3,7.1c-4.8,4.8-7.1,10.4-7.1,16.8c0,8,4.1,15.8,12.2,23.6c8.1,7.7,24.1,18.2,47.8,31.5l-2.8,5.9
		c-26.9-10.5-45.9-20.5-57.2-30c-11.2-9.5-16.9-20.3-16.9-32.3c0-11.1,3.8-20.4,11.4-28c7.6-7.6,16.8-11.4,27.5-11.4
		c12.2,0,23.2,5.7,32.9,17.2c9.8,11.5,19.6,30.5,29.6,57.1L1859.3,1039z M1835,1195c-9.8,11.5-20.7,17.2-32.9,17.2
		c-10.6,0-19.8-3.8-27.4-11.5c-7.7-7.7-11.5-17-11.5-27.9c0-12,5.6-22.9,16.9-32.5s30.3-19.6,57.2-29.9l2.8,5.6
		c-23.8,13.4-39.7,24-47.8,31.8c-8.1,7.7-12.2,15.6-12.2,23.6c0,6.4,2.3,12,7,16.8c4.7,4.8,10.2,7.1,16.4,7.1
		c7.7,0,15.2-3.8,22.6-11.2c7.4-7.5,18.6-23.8,33.4-49c0.9,0.6,1.8,1.1,2.6,1.5c0.8,0.4,1.6,0.7,2.3,1.1
		C1854.6,1164.4,1844.8,1183.5,1835,1195z M1919.6,1118.2c-8.7,8.6-19.2,12.9-31.5,12.9c-12.3,0-22.8-4.3-31.4-12.8
		c-8.6-8.5-12.9-19-12.9-31.5c0-12.2,4.3-22.6,13-31.2c8.7-8.6,19.3-12.9,31.8-12.9c12.2,0,22.6,4.3,31.2,12.9
		c8.6,8.6,12.9,19,12.9,31.2C1932.6,1099.2,1928.3,1109.7,1919.6,1118.2z M1927,967.3c0,7.7-1.5,16.8-4.6,27.5
		c-3,10.7-7.9,23.8-14.6,39.3c-1.1-0.3-2.3-0.7-3.6-1.1c-1.3-0.4-2.2-0.7-2.7-0.8c4.8-18.6,8-31.9,9.6-39.8c1.6-8,2.3-14.4,2.3-19.2
		c0-8.7-2.3-15.8-7-21.2s-10.8-8.1-18.3-8.1c-7.3,0-13.4,2.7-18,8.1s-7,12.5-7,21.2c0,4.4,0.7,10.3,2.2,17.7
		c1.5,7.4,4.7,21.2,9.7,41.4c-1.4,0.3-2.5,0.6-3.4,0.9c-0.9,0.3-1.8,0.6-2.7,0.9c-6.7-15.3-11.7-28.4-14.9-39.1
		c-3.2-10.8-4.8-19.6-4.8-26.5c0-12.7,3.6-22.9,10.9-30.7c7.3-7.8,16.8-11.7,28.5-11.7c10.6,0,19.1,3.2,25.5,9.6
		c6.4,6.4,10.7,16,12.9,28.8V967.3z M1874.1,1141.5c0.5,0.2,0.9,0.2,1.2,0.2c-4.8,17.8-8.1,30.8-9.7,39s-2.5,14.9-2.5,20
		c0,8.8,2.4,15.8,7.1,21.2c4.8,5.4,10.9,8.1,18.4,8.1c7.3,0,13.3-2.7,17.9-8.2c4.6-5.5,6.9-12.5,6.9-21.1c0-4.4-0.7-10.3-2.1-17.7
		c-1.4-7.4-4.7-21.2-9.8-41.4c0.3,0,0.6-0.1,0.9-0.2c2.5-0.6,4.3-1.2,5.4-1.6c7,16.6,12.1,29.9,15.1,40s4.6,18.5,4.6,25.2
		c0,12.7-3.7,22.9-11,30.8c-7.3,7.9-16.8,11.8-28.4,11.8c-11.6,0-20.9-3.9-28.1-11.6c-7.2-7.7-10.8-17.9-10.8-30.6
		c0-6.9,1.6-15.7,4.8-26.5c3.2-10.8,8.2-23.8,14.9-39.1C1870,1140.3,1871.7,1140.8,1874.1,1141.5z M1938.4,1060.9
		c-0.4-0.9-1-1.9-1.8-3.2c23.7-13.4,39.7-24,47.8-31.8c8.1-7.7,12.2-15.6,12.2-23.6c0-6.4-2.4-12-7.1-16.8
		c-4.8-4.8-10.3-7.1-16.5-7.1c-7.8,0-15.6,4-23.4,12.1c-7.8,8-18.6,24.1-32.3,48.2c-0.9-0.5-1.8-0.9-2.7-1.4
		c-0.9-0.5-1.6-0.9-2.2-1.2c9.8-26.7,19.6-45.8,29.4-57.3c9.8-11.5,20.7-17.2,32.9-17.2c10.6,0,19.7,3.8,27.3,11.5
		c7.6,7.7,11.4,17,11.4,27.9c0,12-5.6,22.8-16.8,32.3c-11.2,9.5-30.2,19.5-57.1,30C1939.1,1062.6,1938.8,1061.8,1938.4,1060.9z
		 M1913.4,1137c1.9-1.1,3.1-1.8,3.8-2.1c13.7,24.1,24.5,40.2,32.3,48.3c7.8,8.1,15.6,12.2,23.4,12.2c6.4,0,12-2.4,16.6-7.1
		c4.7-4.8,7-10.3,7-16.8c0-8-4.1-15.8-12.2-23.6c-8.1-7.7-24.1-18.3-47.8-31.8l2.8-5.6c26.9,10.3,45.9,20.3,57.1,29.9
		c11.2,9.6,16.8,20.4,16.8,32.5c0,10.8-3.8,20-11.5,27.8c-7.7,7.7-16.7,11.6-27.2,11.6c-12.2,0-23.2-5.7-32.9-17.2
		c-9.8-11.5-19.6-30.6-29.4-57.3C1912.6,1137.5,1913,1137.3,1913.4,1137z M1941.7,1104.1c0.2-1,0.7-2.2,1.3-3.6
		c15.6,4.1,28,7,37.3,8.8c9.2,1.8,16.6,2.7,22,2.7c8.7,0,15.8-2.3,21.2-7s8.1-10.7,8.1-18c0-7.3-2.7-13.3-8.2-17.9
		c-5.5-4.6-12.7-6.9-21.6-6.9c-5.3,0-12.5,0.9-21.7,2.7c-9.1,1.8-21.6,4.7-37.4,8.8c-0.2-0.6-0.4-1.4-0.6-2.3s-0.4-2.1-0.6-3.5
		c15.6-6.7,28.7-11.6,39.1-14.8c10.5-3.1,19.1-4.7,26-4.7c12.5,0,22.7,3.6,30.7,10.8c8,7.2,12,16.5,12,27.9
		c0,11.6-3.9,20.9-11.8,28.1c-7.9,7.2-18.2,10.8-30.8,10.8c-7.2,0-16.1-1.6-26.6-4.7c-10.5-3.1-23.5-8.1-38.8-15
		C1941.3,1105.7,1941.4,1105.1,1941.7,1104.1z"/>
</g>
</svg>
