<svg id="Layer_1" data-name="Layer 1" xmlns="http://www.w3.org/2000/svg" viewBox="0 0 2598.48 1782.58"><defs><style>.cls-1{fill:#fff;}</style></defs><title>new_media_white_tim</title><path class="cls-1" d="M2313.34,196.64V1419.21H274.87V196.64H2313.34m280-280H-5.13V1699.21H2593.34V-83.36h0Z" transform="translate(5.13 83.36)"/><g id="trendy"><path class="cls-1" d="M1316.3,1020.33h-37.19V1255l100.67-218.64A131.38,131.38,0,0,0,1316.3,1020.33Z" transform="translate(5.13 83.36)"/><polygon class="cls-1" points="1382.33 690.5 1339.38 603.3 1265 603.3 1342.58 766.15 1382.33 690.5"/><path class="cls-1" d="M1309.88,1290.27h6.41c74.38,0,134.65-60.91,134.65-135.29,0-35.26-13.46-68-35.91-91.69Z" transform="translate(5.13 83.36)"/><polygon class="cls-1" points="1586.87 603.3 1437.47 603.3 1511.85 762.31 1586.87 603.3"/><polygon class="cls-1" points="1986.32 1373.63 2165.85 1373.63 2079.93 1190.25 1986.32 1373.63"/><path class="cls-1" d="M24.5,104V1574.23H2527.56V104H24.5ZM928.9,314.27l-0.6-.2-1-.2c-4.58-1.2-13.15-3.39-21.12-8.76C895,297.74,888.86,287,888.26,273.63c-0.6-11.16,3-20.92,10.16-28.49,10.36-10.76,25.3-13.75,32.47-13.75,20.32,0,31.67,7.37,41.83,13.94l4.58,3L962.76,272l-5-3.19c-9-5.78-14.74-9.56-26.89-9.56-1.79,0-8.76,1.39-12.35,5.18-1.2,1.2-2.59,3.39-2.39,8,0.2,7.17,5.18,11.16,17.93,14.34,1.59,0.4,2.79.8,4,1.19,13.35,4.58,23.71,10.76,30.88,18.53,7.17,8,11,17.33,11,27.29,0,9.76-4.18,19.92-11.16,27.69a42.42,42.42,0,0,1-32.07,14.34,82.66,82.66,0,0,1-24.5-3.39,77.2,77.2,0,0,1-33.27-21.12l20.32-19.12c14.74,15.74,31.27,15.74,37.45,15.74,11.55,0,15.34-10.56,15.34-14.14C952,326.22,943.44,319.25,928.9,314.27ZM799.42,345.15h14.94V261.28H799.42V233.39H857v27.89H842.24v83.86H857V373H799.42V345.15ZM666.75,314.27l-0.6-.2-1-.2c-4.58-1.2-13.15-3.39-21.12-8.76-11.16-7.37-17.33-18.13-17.93-31.47-0.6-11.16,3-20.92,10.16-28.49,10.36-10.76,25.3-13.75,32.47-13.75,20.32,0,31.67,7.37,41.83,13.94l4.58,3L700.62,272l-5-3.19c-9-5.78-14.74-9.56-26.89-9.56-1.79,0-8.76,1.39-12.35,5.18-1.2,1.2-2.59,3.39-2.39,8,0.2,7.17,5.18,11.16,17.93,14.34,1.59,0.4,2.79.8,4,1.19,13.35,4.58,23.71,10.76,30.88,18.53,7.17,8,11,17.33,11,27.29,0,9.76-4.18,19.92-11.16,27.69a42.42,42.42,0,0,1-32.07,14.34,82.66,82.66,0,0,1-24.5-3.39,77.2,77.2,0,0,1-33.27-21.12l20.32-19.12c14.74,15.74,31.27,15.74,37.45,15.74,11.55,0,15.34-10.56,15.34-14.14C689.86,326.22,681.3,319.25,666.75,314.27ZM652,430.17V879.63H628.32L375.7,617.39V879.63H285.93V430.17h28.21L562.28,681.51V430.17H652Zm-114.77-85h14.94V261.28H537.27V233.39h57.57v27.89H580.1v83.86h14.74V373H537.27V345.15ZM404,233.59H431.9V287h51.59V233.59h27.89V373H483.49V314.87H431.9V373H404V233.59Zm-128.29-.2H381.1v27.89H342.46V373H314.57V261.28H275.73V233.39ZM723.21,1380H285.93V930.57h30.78l187.86,170.55L691.8,930.57h31.42V1380Zm12.18-949.86h299.43v89.76H825.16v82.71H998.27v89.76H825.16v97.46H1032.9v89.76H735.39V430.17ZM1106,1020.33H896.33V1103h173.12v89.76H896.33v97.46h207.74V1380H806.57V930.57H1106v89.76Zm617.44-590.16L1517.62,879.63h-21.8l-75-164.78-75.66,164.78h-21.8L1118.17,430.17h605.27Zm-200.68,812.65a205.68,205.68,0,0,1-48.09,71.17c-20.52,20.52-44.24,37.19-71.17,48.09a214.55,214.55,0,0,1-87.2,18h-90.41v-0.64h-36.55V930.57h127A220.92,220.92,0,0,1,1474.67,996c21.16,21.16,37.19,44.88,48.09,71.81a214.55,214.55,0,0,1,18,87.2C1540.71,1185.76,1534.94,1215.25,1522.75,1242.82Zm248.14-222.49h-47.45v269.93h47.45V1380h-185.3v-89.76h48.09V1020.33h-48.09V930.57h185.3v89.76ZM2291.52,1380H1847.19v-23.72L2063.9,930.57h26.29l201.33,425.74V1380Z" transform="translate(5.13 83.36)"/><polygon class="cls-1" points="380.83 1188.33 380.83 1373.63 638.58 1373.63 638.58 1188.33 509.7 1305.67 380.83 1188.33"/></g></svg>