<?xml version="1.0" encoding="utf-8"?>
<!-- Generator: Adobe Illustrator 19.1.0, SVG Export Plug-In . SVG Version: 6.00 Build 0)  -->
<svg version="1.1" id="Layer_1" xmlns="http://www.w3.org/2000/svg" xmlns:xlink="http://www.w3.org/1999/xlink" x="0px" y="0px"
	 viewBox="0 0 2296 4080" style="enable-background:new 0 0 2296 4080;" xml:space="preserve">
<style type="text/css">
	.st0{display:none;}
	.st1{display:inline;fill:#231F20;}
	.st2{fill:#FFFFFF;}
</style>
<g id="Layer_2" class="st0">
	<rect x="-177.2" y="646" class="st1" width="3434.6" height="2573.1"/>
</g>
<g id="Layer_1_1_">
	<g id="Layer_3">
		<path class="st2" d="M2589.2,2727.7H0V1032.5h2589.2V2727.7z M267.3,1407.9l89.5,154.8l89.6-154.8H267.3L267.3,1407.9z
			 M499.2,1470.5c-6.6-3.2-12.1-4.8-16.5-4.8c-5,0-9.3,1.6-12.7,4.9c-3.5,3.3-5.9,7.9-7.3,14c1.4,6,3.8,10.7,7.3,13.9
			c3.5,3.3,7.7,4.9,12.7,4.9c4.6,0,10.2-1.6,16.8-4.9c6.6-3.3,13.8-8,21.5-14.1C513,1478.3,505.8,1473.7,499.2,1470.5z
			 M477.2,1415.3l-4.8,4.8l44.2,44.3l4.8-4.8L477.2,1415.3z M516.5,1504.7l-44.2,44.2l4.8,4.9l44.2-44.3L516.5,1504.7z M527.5,1413
			c-3.2,3.5-4.8,7.7-4.8,12.7c0,4.4,1.6,9.9,4.8,16.5s7.9,13.8,14.1,21.8c6-7.9,10.6-15.2,13.9-21.8s4.8-12,4.8-16.5
			c0-5-1.6-9.3-4.9-12.7c-3.3-3.5-7.9-5.9-14-7.4C535.4,1407,530.8,1409.5,527.5,1413z M527.5,1526.6c-3.2,6.6-4.8,12-4.8,16.5
			c0,5.1,1.6,9.3,4.8,12.8s7.9,5.9,14.1,7.3c6-1.4,10.6-3.9,13.9-7.4c3.2-3.5,4.8-7.7,4.8-12.7c0-4.4-1.6-9.9-4.8-16.3
			s-7.9-13.7-14.1-21.7C535.4,1512.9,530.8,1520.1,527.5,1526.6z M554.5,1471.4c-3.6-3.5-7.9-5.3-13.1-5.3c-5.1,0-9.4,1.8-12.9,5.4
			s-5.3,7.9-5.3,12.9c0,5.2,1.8,9.6,5.4,13.2c3.6,3.5,7.9,5.3,13.1,5.3c5.1,0,9.4-1.8,12.9-5.4s5.3-7.9,5.3-13.1
			C559.9,1479.3,558.1,1475,554.5,1471.4z M605.8,1415.3l-44.2,44.2l4.8,4.8l44.3-44.3L605.8,1415.3z M566.4,1504.7l-4.8,4.8
			l44.3,44.3l4.8-4.9L566.4,1504.7z M612.8,1470.5c-3.5-3.3-7.7-4.9-12.6-4.9c-4.6,0-10.1,1.6-16.6,4.9s-13.7,7.9-21.5,14
			c7.8,6.1,15,10.7,21.6,14c6.6,3.2,12.1,4.8,16.5,4.8c5.1,0,9.4-1.7,12.8-5c3.5-3.3,5.9-8,7.1-14
			C618.7,1478.4,616.2,1473.8,612.8,1470.5z M714.1,1484.4l30.3-17.5c2.1,2.1,4.3,3.7,6.6,4.8c2.3,1,4.8,1.6,7.5,1.6
			c5.2,0,9.7-1.8,13.3-5.5c3.7-3.7,5.5-8.1,5.5-13.4c0-5.2-1.8-9.6-5.5-13.2s-8.1-5.5-13.3-5.5s-9.7,1.8-13.4,5.5s-5.5,8.1-5.5,13.4
			c0,0.9,0.1,1.8,0.3,2.7c0.2,1,0.5,2,0.9,3.2l-30.6,17.5v-35.2c5.1-1.6,8.9-4,11.4-7s3.8-6.9,3.8-11.4c0-5.2-1.8-9.6-5.5-13.2
			s-8.1-5.5-13.2-5.5c-5.2,0-9.7,1.8-13.4,5.5s-5.5,8.1-5.5,13.2c0,4.4,1.2,8.2,3.7,11.2s6.3,5.4,11.4,7.3v35.2l-30.3-17.6
			c0.3-0.9,0.5-1.8,0.6-2.7c0.1-1,0.2-2,0.2-3.2c0-5.3-1.8-9.8-5.5-13.4c-3.7-3.7-8.1-5.5-13.4-5.5c-5.2,0-9.6,1.9-13.2,5.6
			c-3.7,3.7-5.5,8.2-5.5,13.3c0,5.3,1.8,9.7,5.4,13.3c3.6,3.6,8,5.4,13.3,5.4c2.6,0,5.1-0.5,7.4-1.6c2.3-1,4.5-2.6,6.7-4.8
			l30.6,17.5l-30.4,17.6c-2.2-2.1-4.5-3.7-6.7-4.8c-2.3-1-4.7-1.6-7.4-1.6c-5.2,0-9.7,1.8-13.4,5.4s-5.5,8-5.5,13.3
			c0,5.2,1.8,9.6,5.5,13.3s8.1,5.6,13.4,5.6c5.2,0,9.6-1.8,13.3-5.5c3.6-3.7,5.4-8.1,5.4-13.4c0-1.1-0.1-2.2-0.2-3.2
			c-0.1-1-0.4-1.9-0.6-2.7l30.3-17.4v34.9c-5.1,1.8-8.9,4.2-11.4,7.3c-2.5,3-3.8,6.7-3.8,11c0,5.3,1.8,9.8,5.5,13.5
			s8.1,5.5,13.4,5.5c5.2,0,9.6-1.8,13.3-5.5c3.6-3.7,5.4-8.2,5.4-13.5c0-4.5-1.2-8.3-3.7-11.3s-6.3-5.3-11.4-7v-35.1l30.4,17.6
			c-0.4,0.9-0.6,1.8-0.8,2.7c-0.1,1-0.2,2-0.2,3.2c0,5.3,1.8,9.7,5.4,13.3c3.6,3.6,8,5.4,13.3,5.4c5.4,0,9.9-1.8,13.5-5.3
			s5.5-7.9,5.5-13.2c0-5.2-1.9-9.7-5.6-13.5c-3.7-3.8-8.2-5.6-13.4-5.6c-2.5,0-4.9,0.5-7.3,1.6c-2.3,1.1-4.6,2.7-6.8,4.9
			L714.1,1484.4z M883,1405.6l-89.5,154.9h179.1L883,1405.6z M1128.3,1484.4l30.3-17.5c2.1,2.1,4.3,3.7,6.6,4.8
			c2.3,1,4.8,1.6,7.5,1.6c5.2,0,9.7-1.8,13.3-5.5c3.7-3.7,5.5-8.1,5.5-13.4c0-5.2-1.8-9.6-5.5-13.2s-8.1-5.5-13.3-5.5
			c-5.2,0-9.7,1.8-13.4,5.5c-3.7,3.7-5.5,8.1-5.5,13.4c0,0.9,0.1,1.8,0.3,2.7c0.2,1,0.5,2,0.9,3.2l-30.6,17.6v-35.2
			c5.1-1.6,8.9-4,11.4-7s3.8-6.9,3.8-11.4c0-5.2-1.8-9.6-5.5-13.2s-8.1-5.5-13.2-5.5c-5.2,0-9.7,1.8-13.4,5.5
			c-3.7,3.7-5.5,8.1-5.5,13.2c0,4.4,1.2,8.2,3.7,11.2s6.3,5.4,11.4,7.3v35.2l-30.3-17.6c0.3-0.9,0.5-1.8,0.6-2.7
			c0.1-1,0.2-2,0.2-3.2c0-5.3-1.8-9.8-5.5-13.4c-3.7-3.7-8.1-5.5-13.4-5.5c-5.2,0-9.6,1.9-13.2,5.6c-3.7,3.7-5.5,8.2-5.5,13.3
			c0,5.3,1.8,9.7,5.4,13.3c3.6,3.6,8,5.4,13.3,5.4c2.6,0,5.1-0.5,7.4-1.6c2.3-1,4.5-2.6,6.7-4.8l30.6,17.5l-30.4,17.6
			c-2.2-2.1-4.5-3.7-6.7-4.8c-2.3-1-4.7-1.6-7.4-1.6c-5.2,0-9.7,1.8-13.4,5.4s-5.5,8-5.5,13.3c0,5.2,1.8,9.6,5.5,13.3
			c3.7,3.7,8.1,5.6,13.4,5.6c5.2,0,9.6-1.8,13.3-5.5c3.6-3.7,5.4-8.1,5.4-13.4c0-1.1-0.1-2.2-0.2-3.2s-0.4-1.9-0.6-2.7l30.3-17.4
			v34.9c-5.1,1.8-8.9,4.2-11.4,7.3c-2.5,3-3.8,6.7-3.8,11c0,5.3,1.8,9.8,5.5,13.5s8.1,5.5,13.4,5.5c5.2,0,9.6-1.8,13.3-5.5
			c3.6-3.7,5.4-8.2,5.4-13.5c0-4.5-1.2-8.3-3.7-11.3s-6.3-5.3-11.4-7v-35.1l30.4,17.6c-0.4,0.9-0.6,1.8-0.8,2.7
			c-0.1,1-0.2,2-0.2,3.2c0,5.3,1.8,9.7,5.4,13.3s8,5.4,13.3,5.4c5.4,0,9.9-1.8,13.5-5.3s5.5-7.9,5.5-13.2c0-5.2-1.9-9.7-5.6-13.5
			s-8.2-5.6-13.4-5.6c-2.5,0-4.9,0.5-7.3,1.6c-2.3,1.1-4.6,2.7-6.8,4.9L1128.3,1484.4z M1297.2,1405.6l-89.5,154.9h179.1
			L1297.2,1405.6z M607.6,1605.5h-333v333h333V1605.5z M874.1,1807.5l61.4-35.6l-61.8-35.4l68.2-36.6l-13.1-22.5l-63.8,39.4v-70.5
			l-63.3,36.3l2.3-77.1h-26l2.6,77.1l-63.5-36.3v70.5l-63.8-39.4l-12.9,22.5l68,36.6l-61.9,35.4l61.4,35.6l-67.5,36.6l12.9,22.5
			l63.8-39.4v71l63.5-36.6l-2.6,76.9h26l-2.3-76.9l63.3,36.6v-71l63.8,39.4l13.1-22.5L874.1,1807.5z M717.6,1802.1l-51.8-30.2
			l52.3-30.2l55.8,30.2L717.6,1802.1z M726.7,1722.4v-60l53.9,31.4l1.9,63.3L726.7,1722.4z M780.6,1850.6l-53.9,31.2v-60.5
			l55.8-34.5L780.6,1850.6z M799.8,1757.1l1.9-63.3l53.7-31.4v60L799.8,1757.1z M801.7,1850.6l-1.9-63.8l55.5,34.5v60.5
			L801.7,1850.6z M864.5,1802.1l-56.2-30.2l55.8-30.2l52.3,30.2L864.5,1802.1z M977.3,1944.1c15.9-0.2,30.8-1.9,44.5-5.3
			s26.4-8.2,38-14.6c27.8-15.9,49.6-37.3,65.5-64.2s23.8-56.1,23.8-87.7c0-31.7-7.9-60.9-23.7-87.5c-15.8-26.6-37.7-47.5-65.6-62.7
			c-12.3-6.6-25.4-11.6-39-15.1c-13.7-3.5-28.2-5.7-43.5-6.4L977.3,1944.1L977.3,1944.1z M638.3,2068.2
			c-14.4-25.2-34.4-45.3-60-60.5c-16.4-9.7-34.2-17-53.4-21.9s-39.3-7.4-60.2-7.4c-16.6,0-32.3,1.4-47.1,4.1
			c-14.8,2.7-27.2,6.5-37,11.4c-34.2,16.3-60.1,37.6-77.7,64c-17.6,26.4-26.4,57.2-26.4,92.3s8.8,66,26.4,92.5s43.5,47.9,77.7,64.1
			c10.2,4.8,22.6,8.6,37.4,11.4s30.4,4.1,46.8,4.1c21.1,0,41.2-2.5,60.4-7.4c19.1-4.9,36.9-12.2,53.3-21.9
			c25.6-15.2,45.6-35.3,60-60.5s21.6-52.6,21.6-82.3C659.9,2120.8,652.7,2093.5,638.3,2068.2z M589.5,2210.5
			c-7.6,18.8-18.6,35.4-33.2,49.8c-14.4,14.4-31,25.4-49.8,33.2c-18.8,7.7-38.6,11.6-59.2,11.6c-21.4,0-41.6-3.8-60.6-11.4
			c-19-7.6-35.7-18.6-50.3-32.9c-14.7-14.4-25.8-30.9-33.4-49.6s-11.4-38.9-11.4-60.8c0-21.6,3.8-41.8,11.5-60.7
			s18.9-35.6,33.8-50.2c14.4-14.2,31-25,49.8-32.5c18.8-7.4,39-11.1,60.6-11.1c20.6,0,40.3,3.8,59.2,11.5
			c18.8,7.7,35.4,18.7,49.8,33c14.5,14.5,25.6,31.2,33.2,50c7.6,18.8,11.4,38.8,11.4,59.9C600.8,2171.6,597.1,2191.6,589.5,2210.5z
			 M927.8,2185.5l61.4-35.6l-61.9-35.4l68.2-36.6l-13.1-22.5l-63.8,39.4v-70.5l-63.3,36.3l2.3-77.1h-26l2.6,77.1l-63.5-36.3v70.5
			l-63.8-39.4l-12.9,22.5l68,36.6l-61.9,35.4l61.4,35.6l-67.5,36.6l12.9,22.5l63.8-39.4v71l63.5-36.6l-2.6,76.9h26l-2.3-76.9
			l63.3,36.6v-71l63.8,39.4l13.1-22.5L927.8,2185.5z M771.2,2180.1l-51.8-30.2l52.3-30.2l55.8,30.2L771.2,2180.1z M780.4,2100.4v-60
			l53.9,31.4l1.9,63.3L780.4,2100.4z M834.3,2228.6l-53.9,31.2v-60.5l55.8-34.5L834.3,2228.6z M853.5,2135.1l1.9-63.3l53.7-31.4v60
			L853.5,2135.1z M855.4,2228.6l-1.9-63.8l55.5,34.5v60.5L855.4,2228.6z M918.2,2180.1l-56.2-30.2l55.8-30.2l52.3,30.2L918.2,2180.1
			z M1233.4,2094.8l1.4-1.4c10.8-10.8,18-19.9,21.8-27.4s5.6-15.7,5.6-24.6c0-17.7-6-32.5-17.9-44.6c-12-12.1-26.6-18.2-43.9-18.2
			c-17.5,0-32.2,6.1-44.1,18.2s-17.8,27-17.8,44.6c0,8.9,1.8,17,5.4,24.4c3.6,7.3,10.9,16.6,21.8,27.7c0.6,0.5,1.4,1.2,2.3,2.1
			c15.8,15.8,24.1,31.6,25.1,47.3c-16.1-0.6-32-8.9-47.8-24.8c-0.9-0.9-1.6-1.6-2.1-2.1c-10.9-11.1-20.1-18.4-27.4-22
			s-15.5-5.4-24.4-5.4c-17.7,0-32.5,6-44.6,17.9c-12.1,12-18.2,26.6-18.2,43.9c0,17.7,6,32.4,17.9,44.3c12,11.9,26.9,17.8,44.9,17.8
			c8.9,0,17-1.8,24.4-5.5c7.3-3.7,16.5-11,27.4-21.9l1.4-1.4c16.1-16.1,32.1-24.8,48-26c-0.6,16.1-8.9,32-24.8,47.8
			c-0.9,0.9-1.6,1.6-2.1,2.1c-10.9,11.1-18.2,20.3-21.8,27.7c-3.6,7.3-5.4,15.4-5.4,24.1c0,17.8,5.9,32.8,17.8,44.9
			c11.9,12.1,26.6,18.2,44.1,18.2c17.3,0,32-6.1,43.9-18.3s17.9-27.1,17.9-44.8c0-8.7-1.9-16.9-5.6-24.4s-11-16.6-21.8-27.4
			c-0.3-0.3-0.8-0.8-1.4-1.4c-16.1-15.9-24.7-32-25.8-48c16.6,0.6,33.1,9.5,49.7,26.7c0,0.2,0.1,0.2,0.2,0.2
			c10.8,10.8,19.9,18,27.3,21.8s15.6,5.6,24.5,5.6c17.7,0,32.5-6,44.6-17.9c12.1-12,18.2-26.7,18.2-44.2c0-17.3-6.1-32-18.2-43.9
			c-12.1-12-27-17.9-44.6-17.9c-8.9,0-17,1.8-24.4,5.4c-7.3,3.6-16.5,10.9-27.4,22l-0.9,0.9c-16.1,16.7-32.3,25.5-48.5,26.5
			C1208.7,2127.2,1217.2,2111,1233.4,2094.8z M1577.7,2150.3l66.1-38.2c4.5,4.7,9.3,8.2,14.3,10.4c5,2.3,10.5,3.4,16.4,3.4
			c11.4,0,21.1-4,29.1-12.1c8-8,12-17.8,12-29.2c0-11.2-4-20.9-12-28.8s-17.7-12-29.1-12s-21.1,4-29.2,12c-8,8-12.1,17.7-12.1,29.3
			c0,1.9,0.2,3.9,0.6,6s1.1,4.4,2,6.9l-66.8,38.4v-76.9c11.1-3.6,19.4-8.7,24.8-15.4c5.5-6.6,8.2-15,8.2-25c0-11.2-4-20.9-12-28.8
			s-17.6-12-28.8-12c-11.4,0-21.1,4-29.2,12c-8,8-12.1,17.6-12.1,28.8c0,9.7,2.7,17.8,8.1,24.4c5.4,6.6,13.7,11.9,25,15.9v76.9
			l-66.1-38.4c0.6-1.9,1.1-3.9,1.4-6s0.5-4.4,0.5-6.9c0-11.6-4-21.3-12.1-29.3c-8-8-17.8-12-29.2-12c-11.2,0-20.9,4.1-28.8,12.2
			c-8,8.1-12,17.8-12,29.1c0,11.6,3.9,21.3,11.7,29.1c7.8,7.8,17.5,11.7,29.1,11.7c5.8,0,11.1-1.1,16.1-3.4
			c4.9-2.3,9.8-5.7,14.6-10.4l66.8,38.2l-66.3,38.4c-4.8-4.7-9.7-8.2-14.6-10.4c-4.9-2.3-10.3-3.4-16.1-3.4
			c-11.4,0-21.1,3.9-29.2,11.8c-8,7.9-12.1,17.5-12.1,28.9c0,11.2,4,20.9,12.1,29.1c8,8.1,17.8,12.2,29.2,12.2
			c11.4,0,21.1-4,28.9-12c7.9-8,11.8-17.7,11.8-29.3c0-2.5-0.2-4.8-0.5-6.9c-0.3-2.1-0.8-4.1-1.4-6l66.1-38v76.2
			c-11.1,3.9-19.4,9.2-24.8,15.8c-5.5,6.6-8.2,14.6-8.2,24c0,11.6,4,21.4,12,29.4s17.7,12.1,29.3,12.1c11.4,0,21.1-4,28.9-12.1
			c7.9-8,11.8-17.8,11.8-29.4c0-9.8-2.7-18-8.1-24.6s-13.7-11.6-25-15.2v-76.6l66.3,38.4c-0.8,1.9-1.3,3.9-1.6,6
			c-0.3,2.1-0.5,4.4-0.5,6.9c0,11.6,3.9,21.3,11.8,29.1s17.5,11.7,28.9,11.7c11.7,0,21.6-3.9,29.5-11.6s12-17.3,12-28.7
			s-4.1-21.2-12.2-29.4s-17.9-12.3-29.3-12.3c-5.5,0-10.7,1.2-15.8,3.5c-5.1,2.3-10,5.9-14.9,10.8L1577.7,2150.3z M2041.8,2100.4
			l1.4-1.4c5-5,8.7-10.3,11.2-15.9c2.5-5.6,3.8-11.6,3.8-18c0-14.1-5-26.1-14.9-36s-21.9-14.9-36-14.9c-6.6,0-12.9,1.3-18.9,3.8
			s-11.3,6-15.8,10.5l-1.4,1.4v-1.9l0.5-1.4c-3.1-16.2-8.9-28.3-17.2-36.2c-8.4-7.9-19.4-11.8-33.2-11.8c-14.2,0-26.1,4.7-35.6,13.9
			c-9.5,9.3-14.3,20.7-14.3,34.1v1.4l0.5,1.9l-1.4-1.4c-4.7-4.5-10-8-15.9-10.5s-12.2-3.8-18.8-3.8c-14.1,0-26.1,4.9-36,14.8
			c-9.9,9.8-14.9,21.9-14.9,36.1c0,6.4,1.2,12.4,3.8,18c2.5,5.6,6.2,10.9,11.2,15.9l1.4,1.4h-3.3c-13.6,0-25.1,4.8-34.5,14.4
			c-9.4,9.6-14.1,21.4-14.1,35.5c0,14.2,4.7,26.1,14.1,35.6s20.9,14.3,34.5,14.3h3.3l-1.4,1.6c-5,5-8.8,10.3-11.2,15.8
			c-2.5,5.5-3.8,11.6-3.8,18.2c0,14.2,5,26.2,14.9,36.1c9.9,9.8,21.9,14.8,36,14.8c6.6,0,12.8-1.2,18.8-3.8
			c5.9-2.5,11.2-6,15.9-10.5l1.4-1.6v2.1l-0.5,1.4c3.1,16.1,8.8,28.1,17.1,36.1c8.3,8,19.4,12,33.3,12s25.7-4.7,35.4-14.2
			c9.7-9.5,14.5-20.7,14.5-33.9v-1.4l-0.5-2.1l1.4,1.6c4.5,4.5,9.8,8,15.8,10.5s12.3,3.8,18.9,3.8c14.1,0,26.1-4.9,36-14.8
			c9.9-9.8,14.9-21.9,14.9-36.1c0-6.6-1.3-12.6-3.8-18.2c-2.5-5.5-6.3-10.8-11.2-15.8l-1.4-1.6h3.3c13.6,0,25.1-4.8,34.5-14.3
			s14.1-21.4,14.1-35.6c0-14.1-4.7-25.9-14.1-35.5c-9.4-9.6-20.9-14.4-34.5-14.4L2041.8,2100.4L2041.8,2100.4z M1830.3,2184.4
			c-10.7,3.2-19.7,4.8-27.1,4.8c-12.7,0-22.9-3.6-30.8-10.8s-11.8-16.6-11.8-28.1c0-11.4,4-20.7,12-27.9s18.2-10.8,30.7-10.8
			c6.9,0,15.5,1.6,25.9,4.7c10.4,3.1,23.5,8,39.3,14.8c-0.2,1.1-0.4,2.3-0.6,3.5c-0.2,1.3-0.5,2-0.8,2.3
			c-16.1-4.2-28.7-7.2-37.9-8.9c-9.1-1.7-16.3-2.6-21.4-2.6c-8.8,0-15.8,2.3-21.2,6.9c-5.4,4.6-8.1,10.6-8.1,17.9
			c0,7.7,2.7,13.8,8.1,18.3s12.6,6.8,21.7,6.8c5.3,0,12.5-0.9,21.7-2.7c9.1-1.8,21.5-4.7,37.1-8.8c0.3,0.9,0.6,2.1,0.9,3.5
			s0.5,2.1,0.7,2.1C1853.7,2176.3,1841,2181.2,1830.3,2184.4z M1892.5,2102.5c-14.7-25.3-25.7-41.7-33.2-49.2
			c-7.4-7.5-15-11.2-22.6-11.2c-6.1,0-11.5,2.4-16.3,7.1c-4.8,4.8-7.1,10.4-7.1,16.8c0,8,4.1,15.8,12.2,23.6
			c8.1,7.7,24.1,18.2,47.8,31.5l-2.8,5.9c-26.9-10.5-45.9-20.5-57.2-30c-11.2-9.5-16.9-20.3-16.9-32.3c0-11.1,3.8-20.4,11.4-28
			s16.8-11.4,27.5-11.4c12.2,0,23.2,5.7,32.9,17.2c9.8,11.5,19.6,30.5,29.6,57.1L1892.5,2102.5z M1868.2,2258.5
			c-9.8,11.5-20.7,17.2-32.9,17.2c-10.6,0-19.8-3.8-27.4-11.5c-7.7-7.7-11.5-17-11.5-27.9c0-12,5.6-22.9,16.9-32.5
			s30.3-19.6,57.2-29.9l2.8,5.6c-23.8,13.4-39.7,24-47.8,31.8c-8.1,7.7-12.2,15.6-12.2,23.6c0,6.4,2.3,12,7,16.8s10.2,7.1,16.4,7.1
			c7.7,0,15.2-3.8,22.6-11.2c7.4-7.5,18.6-23.8,33.4-49c0.9,0.6,1.8,1.1,2.6,1.5c0.8,0.4,1.6,0.7,2.3,1.1
			C1887.8,2227.9,1878,2247,1868.2,2258.5z M1952.8,2181.7c-8.7,8.6-19.2,12.9-31.5,12.9s-22.8-4.3-31.4-12.8s-12.9-19-12.9-31.5
			c0-12.2,4.3-22.6,13-31.2c8.7-8.6,19.3-12.9,31.8-12.9c12.2,0,22.6,4.3,31.2,12.9c8.6,8.6,12.9,19,12.9,31.2
			C1965.8,2162.7,1961.5,2173.2,1952.8,2181.7z M1960.2,2030.8c0,7.7-1.5,16.8-4.6,27.5c-3,10.7-7.9,23.8-14.6,39.3
			c-1.1-0.3-2.3-0.7-3.6-1.1c-1.3-0.4-2.2-0.7-2.7-0.8c4.8-18.6,8-31.9,9.6-39.8c1.6-8,2.3-14.4,2.3-19.2c0-8.7-2.3-15.8-7-21.2
			s-10.8-8.1-18.3-8.1c-7.3,0-13.4,2.7-18,8.1s-7,12.5-7,21.2c0,4.4,0.7,10.3,2.2,17.7s4.7,21.2,9.7,41.4c-1.4,0.3-2.5,0.6-3.4,0.9
			s-1.8,0.6-2.7,0.9c-6.7-15.3-11.7-28.4-14.9-39.1c-3.2-10.8-4.8-19.6-4.8-26.5c0-12.7,3.6-22.9,10.9-30.7
			c7.3-7.8,16.8-11.7,28.5-11.7c10.6,0,19.1,3.2,25.5,9.6s10.7,16,12.9,28.8V2030.8z M1907.3,2205c0.5,0.2,0.9,0.2,1.2,0.2
			c-4.8,17.8-8.1,30.8-9.7,39s-2.5,14.9-2.5,20c0,8.8,2.4,15.8,7.1,21.2c4.8,5.4,10.9,8.1,18.4,8.1c7.3,0,13.3-2.7,17.9-8.2
			s6.9-12.5,6.9-21.1c0-4.4-0.7-10.3-2.1-17.7s-4.7-21.2-9.8-41.4c0.3,0,0.6-0.1,0.9-0.2c2.5-0.6,4.3-1.2,5.4-1.6
			c7,16.6,12.1,29.9,15.1,40s4.6,18.5,4.6,25.2c0,12.7-3.7,22.9-11,30.8c-7.3,7.9-16.8,11.8-28.4,11.8s-20.9-3.9-28.1-11.6
			s-10.8-17.9-10.8-30.6c0-6.9,1.6-15.7,4.8-26.5c3.2-10.8,8.2-23.8,14.9-39.1C1903.2,2203.8,1904.9,2204.3,1907.3,2205z
			 M1971.6,2124.4c-0.4-0.9-1-1.9-1.8-3.2c23.7-13.4,39.7-24,47.8-31.8c8.1-7.7,12.2-15.6,12.2-23.6c0-6.4-2.4-12-7.1-16.8
			c-4.8-4.8-10.3-7.1-16.5-7.1c-7.8,0-15.6,4-23.4,12.1c-7.8,8-18.6,24.1-32.3,48.2c-0.9-0.5-1.8-0.9-2.7-1.4
			c-0.9-0.5-1.6-0.9-2.2-1.2c9.8-26.7,19.6-45.8,29.4-57.3s20.7-17.2,32.9-17.2c10.6,0,19.7,3.8,27.3,11.5
			c7.6,7.7,11.4,17,11.4,27.9c0,12-5.6,22.8-16.8,32.3c-11.2,9.5-30.2,19.5-57.1,30C1972.3,2126.1,1972,2125.3,1971.6,2124.4z
			 M1946.6,2200.5c1.9-1.1,3.1-1.8,3.8-2.1c13.7,24.1,24.5,40.2,32.3,48.3s15.6,12.2,23.4,12.2c6.4,0,12-2.4,16.6-7.1
			c4.7-4.8,7-10.3,7-16.8c0-8-4.1-15.8-12.2-23.6c-8.1-7.7-24.1-18.3-47.8-31.8l2.8-5.6c26.9,10.3,45.9,20.3,57.1,29.9
			c11.2,9.6,16.8,20.4,16.8,32.5c0,10.8-3.8,20-11.5,27.8c-7.7,7.7-16.7,11.6-27.2,11.6c-12.2,0-23.2-5.7-32.9-17.2
			c-9.8-11.5-19.6-30.6-29.4-57.3C1945.8,2201,1946.2,2200.8,1946.6,2200.5z M1974.9,2167.6c0.2-1,0.7-2.2,1.3-3.6
			c15.6,4.1,28,7,37.3,8.8c9.2,1.8,16.6,2.7,22,2.7c8.7,0,15.8-2.3,21.2-7s8.1-10.7,8.1-18s-2.7-13.3-8.2-17.9
			c-5.5-4.6-12.7-6.9-21.6-6.9c-5.3,0-12.5,0.9-21.7,2.7c-9.1,1.8-21.6,4.7-37.4,8.8c-0.2-0.6-0.4-1.4-0.6-2.3
			c-0.2-0.9-0.4-2.1-0.6-3.5c15.6-6.7,28.7-11.6,39.1-14.8c10.5-3.1,19.1-4.7,26-4.7c12.5,0,22.7,3.6,30.7,10.8s12,16.5,12,27.9
			c0,11.6-3.9,20.9-11.8,28.1c-7.9,7.2-18.2,10.8-30.8,10.8c-7.2,0-16.1-1.6-26.6-4.7c-10.5-3.1-23.5-8.1-38.8-15
			C1974.5,2169.2,1974.6,2168.6,1974.9,2167.6z"/>
	</g>
	<rect x="1.1" y="-15.4" class="st2" width="2296" height="1086.8"/>
	<rect y="2689.3" class="st2" width="2296" height="1390.7"/>
</g>
</svg>
