<svg id="Layer_1" data-name="Layer 1" xmlns="http://www.w3.org/2000/svg" viewBox="0 0 1920 1080"><defs><style>.cls-1{fill:#fff;}</style></defs><title>newMedia_cutout</title><polygon class="cls-1" points="1515.48 837.62 1578.92 837.62 1547.63 748.54 1515.48 837.62"/><path class="cls-1" d="M1056.17,726.38h-33V874.56h37.81c36.5,0,60-28.68,60-73.44C1120.91,755.92,1095.27,726.38,1056.17,726.38Z"/><path class="cls-1" d="M0,0V1080H1920V0H0ZM815.86,407.89v76.48H673.33v37.81H834.11v76.48H572.51V294H830.2v76.48H673.33v37.37H815.86ZM673.16,174.46c0-21.2,17.87-34.52,45.42-34.52,16.81,0,34.22,5,46.18,12.57L752,179.15c-10.75-5.9-27.25-12.41-36.49-12.41-3.94,0-6.51,1.21-6.51,4.39,0,13.32,55,5,55,43.45,0,23.62-20.74,34.06-44.66,34.06-18.47,0-39.06-6.21-53.14-17l13-26.34c10.9,9.08,29.67,16.5,40.42,16.5,5.15,0,8.48-1.67,8.48-5.45C728.12,202.62,673.16,211.7,673.16,174.46Zm-48.75-33h35.12V247.58H624.41V141.45Zm-127.32,33c0-21.2,17.87-34.52,45.42-34.52,16.81,0,34.22,5,46.18,12.57L576,179.15c-10.75-5.9-27.25-12.41-36.49-12.41-3.94,0-6.51,1.21-6.51,4.39,0,13.32,55,5,55,43.45,0,23.62-20.74,34.06-44.66,34.06-18.47,0-39.06-6.21-53.14-17l13-26.34c10.9,9.08,29.67,16.5,40.42,16.5,5.15,0,8.48-1.67,8.48-5.45C552,202.62,497.09,211.7,497.09,174.46Zm-48.75-33h35.12V247.58H448.34V141.45ZM437.8,294h91.26V598.66h-84.3L324.82,443.09V598.66H233.13V294h84.3L437.8,450.48V294ZM332.22,141.45h35.12v41.18H400.2V141.45h35.12V247.58H400.2v-38.3H367.35v38.3H332.22V141.45Zm-101.74,0H326v27.71H295.74v78.42H260.61V169.16H230.48V141.45ZM579,952.78H491.25V785.91L439.11,923.23H373.06L320.91,785.91V952.78H233.13V648.16H339.59l66.49,159,66.49-159H579V952.78Zm305.05,0H622.49V648.16H880.18v76.48H723.3V762H865.84v76.48H723.3V876.3H884.09v76.48Zm170.34,0H922.32V648.16h136c100.38,0,165.57,59.53,165.57,152.09S1157.42,952.78,1054.43,952.78Zm82.13-354.12L1094.4,416.58l-43.46,182.08H947.09L848.45,294H956.21l46.06,199.9,45.19-199.46,98.21-.43,46.06,199.9L1236.94,294h103l-99.51,304.62H1136.56ZM1353,952.78H1252.14V648.16H1353V952.78Zm265.94,0-15.21-43H1489.4l-15.64,43H1370.33L1499,648.16h103.42l123.85,304.62H1618.9Z"/></svg>